<!-- Generated by IcoMoon.io -->
<svg version="1.1" xmlns="http://www.w3.org/2000/svg" width="106" height="32" viewBox="0 0 106 32">
<title>amazon</title>
<path fill="#f90" d="M65.665 25.025c-6.151 4.548-15.068 6.975-22.742 6.975-10.763 0-20.453-3.994-27.783-10.636-0.576-0.522-0.060-1.233 0.631-0.827 7.911 4.618 17.692 7.397 27.797 7.397 6.814 0 14.31-1.415 21.202-4.351 1.041-0.443 1.913 0.684 0.895 1.442z"></path>
<path fill="#f90" d="M68.222 22.090c-0.783-1.008-5.196-0.476-7.178-0.24-0.603 0.074-0.695-0.453-0.153-0.832 3.516-2.482 9.285-1.766 9.957-0.934 0.673 0.837-0.175 6.638-3.478 9.407-0.507 0.425-0.991 0.198-0.766-0.366 0.742-1.858 2.406-6.023 1.617-7.035z"></path>
<path fill="#000" d="M61.182 3.493c0 0.361 0.277 0.606 0.623 0.606h5.625l-6.464 9.301c-0.391 0.596-0.396 1.265-0.396 1.659v2.446c0 0.351 0.393 0.758 0.766 0.554 3.663-1.951 8.063-1.76 11.376-0.018 0.405 0.213 0.793-0.198 0.793-0.55v-2.574c-0.033-0.348-0.148-0.699-0.572-0.939-1.879-1.063-4.068-1.372-6.142-1.322l5.58-7.991c0.514-0.716 0.806-1.17 0.81-1.516v-2.066c0-0.361-0.276-0.61-0.62-0.61h-10.769c-0.331 0-0.608 0.245-0.608 0.61v2.415zM21.904 18.549h-0.001c0.004 0 0.009 0 0.013 0 0.339 0 0.614-0.272 0.619-0.611v-8.939c0-1.951-0.092-4.65 2.261-4.65 2.327 0 2.018 2.769 2.018 4.65l0.005 8.939v0c0.005 0.327 0.264 0.593 0.59 0.61h3.271c0.004 0 0.009 0 0.013 0 0.339 0 0.614-0.272 0.619-0.611v-8.939c0-0.956-0.032-2.382 0.305-3.231 0.335-0.85 1.164-1.382 1.957-1.382 0.949 0 1.681 0.319 1.926 1.451 0.156 0.676 0.091 2.45 0.091 3.162v8.938c0.007 0.327 0.265 0.592 0.591 0.61h3.271c0.004 0 0.009 0 0.013 0 0.339 0 0.614-0.272 0.619-0.609l0.004-10.646c0-1.807 0.213-3.868-0.825-5.287-0.917-1.276-2.418-1.845-3.792-1.845-1.93 0-3.73 0.994-4.524 3.127-0.921-2.132-2.202-3.126-4.252-3.126-2.018 0-3.516 0.996-4.311 3.125h-0.062v-2.204c-0.022-0.305-0.276-0.551-0.594-0.564h-3.054c-0.005-0-0.010-0-0.016-0-0.336 0-0.61 0.27-0.615 0.606v16.866l0 0.003c0.030 0.302 0.277 0.54 0.584 0.556h3.276zM82.449 0.161c4.862 0 7.492 4.188 7.492 9.514 0 5.145-2.907 9.226-7.492 9.226-4.773 0-7.372-4.188-7.372-9.407 0-5.25 2.633-9.334 7.372-9.334zM82.478 3.605c-2.415 0-2.566 3.301-2.566 5.358 0 2.062-0.032 6.462 2.538 6.462 2.539 0 2.658-3.55 2.658-5.713 0-1.423-0.059-3.124-0.487-4.474-0.369-1.174-1.102-1.632-2.143-1.632zM96.245 18.549h-0c0.003 0 0.006 0 0.009 0 0.341 0 0.619-0.27 0.631-0.609v-9.083c0-1.138 0.060-2.164 0.521-3.194 0.364-0.814 1.097-1.35 1.893-1.35 2.262 0 2.050 2.699 2.050 4.544v9.161l0 0.003c0.043 0.288 0.283 0.511 0.581 0.528h3.284c0.003 0 0.006 0 0.009 0 0.313 0 0.573-0.229 0.622-0.532v-10.617c0-1.633 0-3.902-0.855-5.252-0.922-1.456-2.354-1.988-3.824-1.988-2.262 0-3.548 1.1-4.464 3.407h-0.062v-2.578l-0.001-0.004c-0.069-0.261-0.302-0.456-0.584-0.467l-3.036 0c-0.005-0-0.011-0-0.016-0-0.317 0-0.579 0.239-0.616 0.549l0.002 16.871v0.001c0.007 0.327 0.265 0.592 0.591 0.61h3.262zM52.598 10.494v-0.714c-2.373 0-4.874 0.51-4.874 3.311 0 1.419 0.736 2.38 1.994 2.38 0.917 0 1.746-0.569 2.267-1.493 0.645-1.137 0.613-2.206 0.613-3.486zM55.902 18.503c-0.118 0.102-0.273 0.163-0.443 0.163-0.122 0-0.236-0.032-0.335-0.088l0.003 0.002c-1.087-0.906-1.285-1.326-1.879-2.191-1.797 1.84-3.073 2.39-5.401 2.39-2.759 0-4.902-1.706-4.902-5.121 0-2.667 1.438-4.484 3.493-5.371 1.778-0.786 4.262-0.924 6.16-1.142v-0.425c0-0.782 0.060-1.706-0.401-2.38-0.396-0.606-1.161-0.855-1.838-0.855-1.249 0-2.359 0.642-2.631 1.973-0.055 0.295-0.271 0.587-0.571 0.602l-3.175-0.342c-0.266-0.062-0.566-0.278-0.487-0.689 0.727-3.865 4.21-5.029 7.324-5.029 1.594 0 3.676 0.426 4.935 1.637 1.594 1.493 1.441 3.484 1.441 5.653v5.12c0 1.54 0.636 2.215 1.234 3.047 0.208 0.295 0.254 0.652-0.012 0.874-0.67 0.559-1.858 1.599-2.512 2.181l-0.005-0.009zM9.653 10.494v-0.714c-2.368 0-4.87 0.51-4.87 3.311 0 1.419 0.732 2.38 1.99 2.38 0.922 0 1.746-0.569 2.267-1.493 0.645-1.137 0.613-2.206 0.613-3.486zM12.956 18.503c-0.118 0.102-0.274 0.164-0.443 0.164-0.122 0-0.236-0.032-0.335-0.088l0.003 0.002c-1.087-0.906-1.28-1.326-1.878-2.191-1.797 1.84-3.070 2.39-5.401 2.39-2.756 0-4.902-1.706-4.902-5.121 0-2.668 1.442-4.484 3.493-5.371 1.778-0.786 4.261-0.924 6.16-1.142v-0.425c0-0.782 0.059-1.706-0.396-2.38-0.401-0.606-1.166-0.855-1.839-0.855-1.248 0-2.363 0.642-2.635 1.973-0.055 0.295-0.272 0.587-0.566 0.602l-3.182-0.342c-0.267-0.062-0.561-0.278-0.489-0.689 0.735-3.865 4.213-5.029 7.328-5.029 1.594 0 3.676 0.426 4.934 1.637 1.594 1.493 1.442 3.484 1.442 5.653v5.12c0 1.54 0.635 2.215 1.234 3.047 0.212 0.295 0.258 0.652-0.010 0.874-0.667 0.559-1.856 1.599-2.511 2.181l-0.009-0.009z"></path>
</svg>
