<!-- Generated by IcoMoon.io -->
<svg version="1.1" xmlns="http://www.w3.org/2000/svg" width="72" height="32" viewBox="0 0 72 32">
<title>code</title>
<path fill="#4a4a4f" d="M12.501 10.973c-0.457-0.858-1.006-1.47-1.707-1.9s-1.524-0.644-2.469-0.644c-1.25 0-2.318 0.46-3.171 1.379-0.853 0.92-1.28 2.085-1.28 3.464s0.427 2.514 1.31 3.433c0.884 0.92 1.95 1.349 3.293 1.349 1.006 0 1.859-0.214 2.53-0.643s1.189-1.104 1.493-1.962h3.964c-0.488 1.992-1.432 3.525-2.836 4.659-1.402 1.134-3.109 1.685-5.152 1.685-1.189 0-2.287-0.214-3.293-0.643-1.073-0.462-1.986-1.104-2.742-1.898l-0.003-0.003c-0.762-0.797-1.341-1.685-1.768-2.758-0.457-1.012-0.67-2.085-0.67-3.157 0-1.134 0.183-2.207 0.579-3.188 0.427-1.034 1.014-1.919 1.74-2.669l-0.002 0.002c0.853-0.889 1.768-1.563 2.836-2.023 0.99-0.445 2.145-0.705 3.361-0.705 0.008 0 0.016 0 0.024 0h-0.001c1.95 0 3.659 0.552 5.122 1.685 1.433 1.134 2.379 2.636 2.836 4.536h-3.994zM49.788 6.529v-6.529h3.69v21.394h-3.69v-1.318c-0.731 0.583-1.524 1.012-2.316 1.318-0.824 0.277-1.708 0.43-2.653 0.43-1.006 0-1.951-0.153-2.866-0.491-0.884-0.337-1.707-0.797-2.408-1.41-0.975-0.859-1.707-1.839-2.226-3.004s-0.792-2.36-0.792-3.648c0-1.195 0.244-2.329 0.731-3.432s1.158-2.054 2.042-2.851c0.697-0.675 1.529-1.215 2.45-1.577l0.050-0.017c0.88-0.349 1.899-0.552 2.966-0.552 0.018 0 0.037 0 0.055 0h-0.003c1.036 0 1.95 0.123 2.744 0.398 0.762 0.276 1.525 0.706 2.226 1.288zM49.636 13.364c0-1.379-0.427-2.544-1.31-3.464s-1.951-1.379-3.262-1.379c-1.28 0-2.378 0.459-3.293 1.41s-1.371 2.054-1.371 3.372c0 1.349 0.457 2.482 1.371 3.402s2.073 1.349 3.476 1.349c1.219 0 2.256-0.459 3.11-1.379 0.823-0.858 1.28-1.992 1.28-3.31zM59.484 14.498c0.122 1.165 0.579 2.084 1.371 2.758s1.83 1.012 3.080 1.012c0.853 0 1.586-0.184 2.257-0.521 0.651-0.357 1.185-0.854 1.575-1.454l0.010-0.017h4.025c-0.67 1.746-1.707 3.125-3.049 4.107-1.371 0.981-2.927 1.47-4.726 1.47-1.189 0-2.286-0.213-3.292-0.643-1.066-0.454-1.97-1.097-2.709-1.895l-0.005-0.005c-0.762-0.797-1.341-1.717-1.768-2.758-0.402-0.942-0.637-2.037-0.641-3.187v-0.001c0-1.134 0.183-2.176 0.579-3.188 0.396-0.981 0.945-1.9 1.707-2.667 0.823-0.858 1.738-1.532 2.774-2.023 1.037-0.459 2.104-0.705 3.202-0.705 1.403 0 2.683 0.306 3.903 0.95s2.225 1.532 3.079 2.697c0.518 0.705 0.884 1.471 1.158 2.33 0.244 0.858 0.366 1.839 0.366 2.973v0.797l-12.897-0.030zM68.326 11.525c-0.305-1.073-0.853-1.9-1.616-2.452s-1.707-0.858-2.866-0.858c-0.975 0-1.89 0.306-2.683 0.92s-1.31 1.41-1.586 2.39h8.75z"></path>
<path fill="#e84610" d="M18.11 13.242c0-1.134 0.213-2.207 0.61-3.25 0.427-1.011 1.006-1.931 1.799-2.728 0.756-0.791 1.67-1.424 2.692-1.85l0.053-0.019c0.93-0.407 2.013-0.644 3.152-0.644 0.007 0 0.014 0 0.020 0h-0.001c1.158 0 2.225 0.184 3.201 0.582s1.89 0.95 2.714 1.747c0.816 0.781 1.475 1.719 1.93 2.766l0.021 0.055c0.457 1.073 0.701 2.146 0.701 3.279 0 1.227-0.183 2.36-0.61 3.371-0.396 1.012-1.006 1.931-1.799 2.759s-1.707 1.471-2.744 1.9c-1.036 0.43-2.133 0.644-3.323 0.644-1.22 0-2.318-0.215-3.293-0.644-1.006-0.429-1.89-1.073-2.714-1.931-0.792-0.859-1.371-1.778-1.768-2.789-0.457-1.073-0.641-2.115-0.641-3.249zM21.952 13.211c0 1.501 0.396 2.697 1.219 3.555 0.824 0.889 1.952 1.318 3.355 1.318 1.371 0 2.469-0.46 3.293-1.349s1.219-2.085 1.219-3.617c0-1.349-0.427-2.483-1.28-3.342s-1.952-1.318-3.232-1.318c-1.342 0-2.44 0.43-3.293 1.318s-1.28 2.024-1.28 3.433zM36.495 25.685v-0.797h0.792v0.797h-0.792zM36.526 31.938v-4.874h0.701v4.874h-0.701zM42.318 31.938v-3.004c0-0.858-0.457-1.288-1.189-1.288s-1.189 0.43-1.189 1.288v3.004h-0.702v-4.874h0.701v0.521c0.335-0.398 0.823-0.582 1.371-0.582 0.519 0 0.946 0.152 1.251 0.459 0.335 0.338 0.488 0.797 0.488 1.349v3.127h-0.731zM46.466 31.999c-0.823 0-1.464-0.184-1.982-0.705l0.488-0.491c0.396 0.398 0.914 0.552 1.493 0.552 0.793 0 1.281-0.276 1.281-0.858 0-0.429-0.244-0.674-0.792-0.705l-0.792-0.061c-0.946-0.092-1.464-0.491-1.464-1.318 0-0.889 0.731-1.41 1.768-1.41 0.702 0 1.311 0.184 1.739 0.521l-0.457 0.459c-0.335-0.276-0.793-0.398-1.281-0.398-0.701 0-1.097 0.306-1.097 0.797 0 0.429 0.244 0.674 0.853 0.705l0.792 0.061c0.853 0.092 1.432 0.399 1.432 1.318 0 0.981-0.792 1.533-1.981 1.533zM51.282 31.938c-0.823 0-1.25-0.583-1.25-1.318v-3.004h-0.61v-0.552h0.61v-1.532h0.701v1.532h1.036v0.552h-1.036v2.974c0 0.429 0.213 0.705 0.67 0.705h0.366v0.613l-0.488 0.030zM53.355 25.685v-0.797h0.792v0.797h-0.792zM53.386 31.938v-4.874h0.701v4.874h-0.701zM57.442 31.938c-0.823 0-1.25-0.583-1.25-1.318v-3.004h-0.61v-0.552h0.61v-1.532h0.701v1.532h1.037v0.552h-1.036v2.974c0 0.429 0.213 0.705 0.67 0.705h0.366v0.613l-0.488 0.030zM62.594 31.938v-0.552c-0.335 0.398-0.823 0.613-1.372 0.613-0.518 0-0.945-0.152-1.25-0.459-0.336-0.338-0.488-0.797-0.488-1.379v-3.096h0.701v3.004c0 0.858 0.457 1.288 1.189 1.288s1.221-0.43 1.221-1.288v-3.004h0.701v4.874h-0.701zM66.619 31.938c-0.823 0-1.25-0.583-1.25-1.318v-3.004h-0.61v-0.552h0.61v-1.532h0.701v1.532h1.037v0.552h-1.036v2.974c0 0.429 0.213 0.705 0.67 0.705h0.366v0.613l-0.488 0.030zM69.088 29.701c0 1.073 0.488 1.686 1.433 1.686 0.549 0 0.884-0.184 1.28-0.552l0.488 0.429c-0.488 0.49-0.945 0.766-1.768 0.766-1.28 0-2.104-0.766-2.104-2.482 0-1.563 0.762-2.483 1.981-2.483 1.251 0 1.982 0.92 1.982 2.36v0.337l-3.293-0.061zM71.497 28.352c-0.183-0.429-0.61-0.736-1.128-0.736s-0.945 0.276-1.128 0.736c-0.122 0.276-0.122 0.429-0.152 0.797h2.56c-0.030-0.368-0.030-0.521-0.152-0.797z"></path>
</svg>
