<!-- Generated by IcoMoon.io -->
<svg version="1.1" xmlns="http://www.w3.org/2000/svg" width="32" height="32" viewBox="0 0 32 32">
<title>corb</title>
<path fill="#2684ff" d="M1.038 0c-0.006-0-0.014-0-0.021-0-0.149 0-0.29 0.036-0.414 0.1l0.005-0.002c-0.145 0.074-0.266 0.174-0.361 0.296l-0.002 0.002c-0.095 0.121-0.168 0.265-0.208 0.422l-0.002 0.008c-0.024 0.094-0.038 0.202-0.038 0.313 0 0.065 0.005 0.128 0.014 0.191l-0.001-0.007 4.355 29.383c0.066 0.372 0.239 0.705 0.488 0.94 0.249 0.236 0.559 0.362 0.876 0.354h20.879c0.009 0 0.020 0.001 0.031 0.001 0.244 0 0.465-0.097 0.628-0.255l-0 0c0.189-0.184 0.321-0.425 0.365-0.697l0.001-0.007 4.353-29.713c0.008-0.053 0.012-0.115 0.012-0.178 0-0.113-0.015-0.223-0.042-0.328l0.002 0.009c-0.042-0.164-0.114-0.307-0.21-0.431l0.002 0.003c-0.097-0.123-0.217-0.224-0.355-0.295l-0.006-0.003c-0.119-0.061-0.26-0.097-0.409-0.097-0.008 0-0.015 0-0.023 0l0.001-0-29.921-0.009zM19.364 21.236h-6.664l-1.805-10.483h10.086l-1.617 10.483z"></path>
<path fill="#000" d="M30.601 10.752h-9.621l-1.614 10.484h-6.665l-7.868 10.382c0.255 0.243 0.57 0.375 0.897 0.375h20.885c0.009 0 0.020 0.001 0.031 0.001 0.244 0 0.465-0.097 0.628-0.255l-0 0c0.188-0.175 0.318-0.425 0.366-0.703l2.962-20.285z"></path>
</svg>
