<!-- Generated by IcoMoon.io -->
<svg version="1.1" xmlns="http://www.w3.org/2000/svg" width="48" height="32" viewBox="0 0 48 32">
<title>dwave</title>
<path fill="#1d2329" d="M30.275 16.272c-0.272 0.236-0.608 0.358-0.994 0.358h-2.825c-0.386 0-0.714-0.122-0.985-0.358s-0.411-0.546-0.411-0.921v-0.227c0-0.359 0.14-0.66 0.427-0.904 0.288-0.252 0.608-0.375 0.969-0.375h1.799v0.847h-1.799c-0.123 0-0.23 0.041-0.336 0.123-0.107 0.089-0.156 0.187-0.156 0.309v0.228c0 0.285 0.164 0.424 0.492 0.424h2.825c0.336 0 0.501-0.139 0.501-0.424v-2.183c0-0.115-0.049-0.212-0.156-0.301-0.091-0.081-0.212-0.131-0.345-0.131h-4.139v-0.847h4.139c0.005-0 0.012-0 0.018-0 0.368 0 0.703 0.143 0.952 0.376l-0.001-0.001c0.288 0.252 0.427 0.554 0.427 0.904v2.183c0 0.375-0.131 0.684-0.402 0.921zM35.953 15.351c-0.222 0.855-0.682 1.279-1.396 1.279h-1.216c-0.714 0-1.174-0.423-1.396-1.279l-0.895-3.462h0.961l0.862 3.3c0.099 0.391 0.304 0.587 0.599 0.587h0.953c0.304 0 0.517-0.196 0.617-0.587l0.853-3.3h0.961l-0.903 3.462zM42.378 14.3c-0.288 0.252-0.608 0.374-0.969 0.374h-1.807v-0.855h1.807c0.115 0 0.222-0.041 0.329-0.122 0.107-0.090 0.165-0.187 0.165-0.301v-0.228c0-0.285-0.165-0.432-0.493-0.432h-2.833c-0.329 0-0.493 0.147-0.493 0.432v2.174c0 0.122 0.050 0.22 0.156 0.302 0.107 0.089 0.213 0.13 0.337 0.13h4.148v0.847h-4.148c-0.362 0-0.681-0.122-0.969-0.366-0.287-0.253-0.427-0.554-0.427-0.912v-2.174c0-0.384 0.14-0.685 0.411-0.921s0.599-0.359 0.985-0.359h2.833c0.386 0 0.715 0.123 0.986 0.35 0.27 0.236 0.411 0.546 0.411 0.929v0.228c0 0.35-0.14 0.651-0.427 0.904zM13.491 14.253c0 0.312-0.255 0.565-0.57 0.565-0.001 0-0.001 0-0.002 0-0.313 0-0.566-0.253-0.568-0.565v-0c0-0.312 0.256-0.565 0.57-0.565s0.57 0.254 0.57 0.566zM13.491 12.449c0 0.312-0.255 0.565-0.57 0.565-0.001 0-0.001 0-0.002 0-0.313 0-0.566-0.253-0.568-0.565v-0c0-0.312 0.256-0.565 0.57-0.565s0.57 0.252 0.57 0.565zM15.385 16.057c0 0.312-0.255 0.566-0.57 0.566s-0.569-0.254-0.569-0.566 0.255-0.565 0.569-0.565c0.315 0 0.57 0.253 0.57 0.565z"></path>
<path fill="#3875e1" d="M15.385 14.253c0 0.312-0.255 0.565-0.57 0.565-0.001 0-0.001 0-0.002 0-0.312 0-0.566-0.252-0.567-0.565v-0c0-0.312 0.255-0.566 0.569-0.566 0.315 0 0.571 0.254 0.571 0.566z"></path>
<path fill="#1d2329" d="M20.182 15.343l-0.020 0.082c-0.229 0.793-0.679 1.186-1.366 1.186h-0.627c-0.712 0-1.169-0.421-1.39-1.273l-0.892-3.448h0.957l0.859 3.286c0.099 0.39 0.303 0.584 0.597 0.584h0.364c0.303 0 0.515-0.192 0.614-0.581 0 0 0.222-0.683 0.903-0.691 0 0 0.668-0.064 0.898 0.663l0.009 0.024z"></path>
<path fill="#1d2329" d="M21.089 15.174c0.092 0.377 0.321 0.585 0.615 0.585h0.364c0.303 0 0.515-0.195 0.614-0.585l0.851-3.285h0.956l-0.899 3.448c-0.221 0.852-0.679 1.274-1.39 1.274h-0.626c-0.711 0-1.173-0.425-1.394-1.277l0.909-0.16zM10.47 13.167c0-0.114-0.049-0.212-0.155-0.302s-0.211-0.131-0.334-0.131h-3.512v3.047h3.512c0.325 0 0.488-0.139 0.488-0.425v-2.188zM10.966 16.279c-0.268 0.237-0.602 0.359-0.983 0.359h-4.4v-4.753h4.4c0.358 0 0.675 0.122 0.959 0.375s0.423 0.556 0.423 0.907v2.188c0 0.376-0.13 0.686-0.398 0.923zM5.628 17.901h1.394v0.212h-0.581v1.444h-0.241v-1.443h-0.572v-0.213zM7.209 17.901h0.217v0.705c0.091-0.11 0.204-0.165 0.34-0.165 0.073 0 0.139 0.018 0.197 0.054s0.101 0.087 0.13 0.151c0.028 0.064 0.042 0.16 0.042 0.286v0.624h-0.217v-0.677c0-0.004 0-0.009 0-0.014 0-0.068-0.023-0.13-0.061-0.18l0.001 0.001c-0.036-0.045-0.090-0.073-0.151-0.073-0.002 0-0.004 0-0.006 0h0c-0.001 0-0.002-0-0.003-0-0.049 0-0.095 0.014-0.134 0.037l0.001-0.001c-0.042 0.025-0.090 0.065-0.141 0.122v0.784h-0.217v-1.656zM8.596 18.898h0.553c-0.005-0.086-0.031-0.153-0.077-0.199-0.045-0.044-0.106-0.071-0.174-0.071-0.004 0-0.009 0-0.013 0l0.001-0c-0.003-0-0.007-0-0.010-0-0.070 0-0.134 0.027-0.182 0.071l0-0c-0.050 0.047-0.082 0.113-0.097 0.199zM9.364 19.029h-0.773c0.006 0.105 0.041 0.188 0.106 0.25 0.062 0.058 0.146 0.094 0.239 0.094 0.005 0 0.009-0 0.014-0l-0.001 0c0.143 0 0.275-0.045 0.397-0.133v0.211c-0.067 0.044-0.133 0.075-0.199 0.094-0.065 0.018-0.139 0.028-0.216 0.028-0.005 0-0.010-0-0.015-0h0.001c-0.122 0-0.219-0.025-0.295-0.074-0.076-0.052-0.136-0.119-0.178-0.199l-0.001-0.003c-0.043-0.081-0.068-0.177-0.068-0.279 0-0.005 0-0.009 0-0.014v0.001c0-0.166 0.047-0.302 0.142-0.406s0.218-0.156 0.37-0.156c0.146 0 0.261 0.051 0.348 0.152s0.13 0.238 0.13 0.409v0.027zM11.131 18.101c-0.187 0-0.342 0.060-0.464 0.18s-0.183 0.272-0.183 0.454c0 0.178 0.062 0.325 0.185 0.444s0.277 0.177 0.463 0.177c0.183 0 0.338-0.061 0.463-0.182s0.188-0.269 0.188-0.446c0-0.181-0.061-0.331-0.185-0.45s-0.279-0.178-0.467-0.178zM11.99 19.659l-0.24 0.234c-0.085-0.005-0.165-0.019-0.241-0.042l0.007 0.002c-0.096-0.027-0.178-0.059-0.257-0.097l0.009 0.004c-0.13-0.066-0.239-0.134-0.344-0.208l0.008 0.005c-0.203-0.035-0.376-0.139-0.5-0.286l-0.001-0.001c-0.122-0.14-0.196-0.325-0.196-0.526 0-0.003 0-0.007 0-0.010v0c0-0.247 0.084-0.452 0.254-0.614s0.383-0.243 0.642-0.243c0.258 0 0.471 0.081 0.642 0.241s0.256 0.363 0.256 0.606c0 0.205-0.064 0.384-0.194 0.539s-0.296 0.253-0.5 0.293l0.063 0.023c0.196 0.075 0.338 0.112 0.424 0.112 0.048 0 0.103-0.010 0.167-0.033zM13.006 19.556v-0.14c-0.044 0.048-0.097 0.087-0.156 0.115l-0.003 0.001c-0.059 0.027-0.119 0.041-0.178 0.041-0.001 0-0.002 0-0.004 0-0.070 0-0.135-0.019-0.191-0.052l0.002 0.001c-0.057-0.033-0.103-0.081-0.133-0.138l-0.001-0.002c-0.030-0.059-0.045-0.156-0.045-0.293v-0.625h0.217v0.622c0 0.115 0.016 0.195 0.050 0.24s0.092 0.068 0.176 0.068c0.105 0 0.194-0.050 0.267-0.151v-0.78h0.217v1.091h-0.217zM14.022 19.339v-0.325l-0.146 0.056c-0.074 0.029-0.126 0.059-0.157 0.089-0.028 0.027-0.046 0.065-0.046 0.107 0 0.001 0 0.003 0 0.004v-0c0 0.045 0.015 0.082 0.044 0.111s0.066 0.043 0.113 0.043c0.069 0 0.133-0.029 0.192-0.085zM14.236 18.898v0.464c0 0.037 0.012 0.056 0.038 0.056s0.067-0.019 0.123-0.058v0.133c-0.049 0.031-0.089 0.052-0.118 0.063-0.027 0.011-0.059 0.017-0.092 0.017-0.001 0-0.001 0-0.002 0h0c-0.092 0-0.148-0.036-0.164-0.107-0.093 0.071-0.191 0.107-0.297 0.107-0.002 0-0.005 0-0.007 0-0.145 0-0.262-0.117-0.262-0.262 0-0.001 0-0.002 0-0.003v0c0-0.068 0.025-0.13 0.075-0.185 0.051-0.053 0.121-0.097 0.213-0.129l0.279-0.095v-0.059c0-0.133-0.066-0.199-0.198-0.199-0.119 0-0.234 0.061-0.346 0.181v-0.234c0.084-0.098 0.206-0.148 0.364-0.148 0.119 0 0.214 0.031 0.286 0.093 0.025 0.022 0.047 0.048 0.063 0.077l0.001 0.001c0.018 0.028 0.030 0.062 0.036 0.097l0 0.002c0.005 0.033 0.009 0.095 0.009 0.187zM14.802 18.465v0.133c0.097-0.105 0.207-0.158 0.331-0.158 0.068 0 0.133 0.018 0.191 0.053s0.103 0.084 0.135 0.145c0.030 0.061 0.046 0.158 0.046 0.292v0.626h-0.217v-0.624c0-0.113-0.017-0.193-0.051-0.24s-0.092-0.072-0.172-0.072c-0.103 0-0.19 0.051-0.262 0.152v0.785h-0.223v-1.091h0.223zM15.648 18.637l0.41-0.4v0.227h0.348v0.194h-0.348v0.534c0 0.125 0.052 0.187 0.156 0.187 0.078 0 0.16-0.025 0.247-0.076v0.2c-0.084 0.047-0.175 0.070-0.274 0.070-0.004 0-0.008 0-0.013 0-0.090 0-0.172-0.033-0.235-0.087l0 0c-0.020-0.017-0.037-0.036-0.051-0.058l-0.001-0.001c-0.015-0.025-0.026-0.053-0.034-0.084l-0-0.002c-0.009-0.035-0.014-0.102-0.014-0.201v-0.484h-0.192v-0.022zM17.325 19.556v-0.14c-0.046 0.050-0.099 0.089-0.159 0.117s-0.119 0.041-0.178 0.041c-0.001 0-0.002 0-0.004 0-0.070 0-0.135-0.019-0.191-0.052l0.002 0.001c-0.057-0.033-0.103-0.081-0.133-0.138l-0.001-0.002c-0.030-0.059-0.045-0.156-0.045-0.293v-0.625h0.217v0.622c0 0.115 0.017 0.195 0.051 0.24 0.033 0.046 0.091 0.068 0.175 0.068 0.104 0 0.193-0.050 0.266-0.151v-0.78h0.217v1.091h-0.217zM18.743 18.764v0.792h-0.22v-0.61c0-0.122-0.017-0.206-0.049-0.254s-0.090-0.072-0.171-0.072c-0.001 0-0.002-0-0.003-0-0.045 0-0.087 0.012-0.123 0.033l0.001-0.001c-0.049 0.032-0.092 0.069-0.128 0.112l-0.001 0.001v0.792h-0.217v-1.091h0.217v0.144c0.111-0.112 0.219-0.168 0.325-0.168 0.139 0 0.247 0.067 0.324 0.201 0.116-0.133 0.237-0.201 0.363-0.201 0.107 0 0.194 0.039 0.263 0.116s0.103 0.196 0.103 0.355v0.644h-0.217v-0.649c0-0.091-0.019-0.16-0.056-0.209-0.035-0.044-0.089-0.073-0.15-0.073-0.004 0-0.008 0-0.011 0l0.001-0c-0.090 0-0.173 0.046-0.251 0.138zM21.879 19.171v0.261c-0.176 0.095-0.378 0.143-0.607 0.143-0.187 0-0.345-0.037-0.475-0.112s-0.234-0.178-0.306-0.303l-0.002-0.004c-0.072-0.12-0.114-0.266-0.114-0.421 0-0.001 0-0.002 0-0.003v0c0-0.241 0.087-0.444 0.26-0.609s0.387-0.247 0.641-0.247c0.176 0 0.37 0.046 0.585 0.137v0.255c-0.196-0.111-0.386-0.167-0.573-0.167-0.191 0-0.35 0.060-0.476 0.18-0.117 0.109-0.189 0.264-0.189 0.436 0 0.005 0 0.011 0 0.016l-0-0.001c0 0.182 0.062 0.332 0.186 0.449 0.125 0.117 0.284 0.176 0.477 0.176 0.202 0 0.4-0.062 0.593-0.185zM22.642 18.656c-0.004-0-0.008-0-0.012-0-0.095 0-0.181 0.039-0.243 0.102l-0 0c-0.062 0.064-0.1 0.15-0.1 0.246 0 0.005 0 0.009 0 0.014l-0-0.001c0 0.104 0.034 0.19 0.102 0.255s0.156 0.099 0.262 0.099c0.004 0 0.009 0 0.013 0 0.096 0 0.184-0.038 0.248-0.101l-0 0c0.063-0.062 0.102-0.149 0.102-0.244 0-0.004-0-0.009-0-0.013l0 0.001c0-0.003 0-0.006 0-0.010 0-0.097-0.040-0.185-0.105-0.247l-0-0c-0.066-0.063-0.156-0.102-0.254-0.102-0.004 0-0.009 0-0.013 0l0.001-0zM22.653 18.462c0.167 0 0.305 0.053 0.415 0.161s0.165 0.242 0.165 0.404c0 0.158-0.056 0.288-0.168 0.392s-0.252 0.156-0.423 0.156c-0.164 0-0.301-0.053-0.411-0.159-0.102-0.096-0.166-0.231-0.166-0.382 0-0.005 0-0.009 0-0.014v0.001c0-0.16 0.055-0.293 0.167-0.399s0.252-0.16 0.42-0.16zM24.376 18.764v0.792h-0.22v-0.61c0-0.122-0.016-0.206-0.049-0.254s-0.089-0.072-0.171-0.072c-0.001 0-0.002-0-0.003-0-0.045 0-0.087 0.012-0.123 0.033l0.001-0.001c-0.050 0.032-0.092 0.069-0.128 0.112l-0.001 0.001v0.792h-0.217v-1.091h0.217v0.144c0.111-0.112 0.219-0.168 0.325-0.168 0.139 0 0.247 0.067 0.324 0.201 0.116-0.133 0.237-0.201 0.363-0.201 0.107 0 0.194 0.039 0.263 0.116s0.103 0.196 0.103 0.355v0.644h-0.217v-0.649c0-0.091-0.018-0.16-0.056-0.209-0.035-0.044-0.089-0.073-0.15-0.073-0.004 0-0.008 0-0.011 0l0.001-0c-0.090 0-0.173 0.046-0.251 0.138zM25.734 18.668h-0.153v0.669c0.066 0.035 0.137 0.052 0.21 0.052 0.101 0 0.185-0.035 0.25-0.105s0.097-0.161 0.097-0.272c0-0.003 0-0.006 0-0.009 0-0.066-0.017-0.128-0.047-0.181l0.001 0.002c-0.028-0.052-0.071-0.093-0.123-0.118l-0.002-0.001c-0.053-0.025-0.13-0.037-0.232-0.037zM25.358 20.114v-1.65h0.381c0.195 0 0.347 0.048 0.455 0.144s0.163 0.231 0.163 0.405c0 0.164-0.052 0.298-0.154 0.403s-0.232 0.157-0.391 0.157c-0.070 0-0.148-0.016-0.232-0.046v0.586h-0.223zM27.293 19.556v-0.14c-0.047 0.050-0.099 0.089-0.16 0.117-0.059 0.027-0.119 0.041-0.178 0.041-0.001 0-0.002 0-0.004 0-0.070 0-0.135-0.019-0.191-0.052l0.002 0.001c-0.057-0.033-0.102-0.081-0.132-0.138l-0.001-0.002c-0.030-0.059-0.046-0.156-0.046-0.293v-0.625h0.217v0.622c0 0.115 0.017 0.195 0.050 0.24s0.092 0.068 0.176 0.068c0.104 0 0.193-0.050 0.266-0.151v-0.78h0.217v1.091h-0.217zM27.665 18.637l0.41-0.4v0.227h0.349v0.194h-0.349v0.534c0 0.125 0.052 0.187 0.156 0.187 0.078 0 0.161-0.025 0.248-0.076v0.2c-0.084 0.047-0.175 0.070-0.273 0.070-0.004 0-0.009 0-0.014 0-0.090 0-0.172-0.033-0.235-0.087l0 0c-0.020-0.017-0.037-0.036-0.051-0.058l-0.001-0.001c-0.015-0.025-0.026-0.053-0.034-0.084l-0-0.002c-0.009-0.035-0.014-0.102-0.014-0.201v-0.484h-0.193v-0.022zM28.652 18.465h0.217v1.091h-0.217v-1.091zM28.76 18.007c0.036 0 0.066 0.012 0.092 0.036s0.038 0.055 0.038 0.090c0 0 0 0.001 0 0.001 0 0.035-0.015 0.066-0.038 0.088l-0 0c-0.023 0.023-0.055 0.038-0.090 0.038s-0.067-0.015-0.090-0.038l-0-0c-0.024-0.022-0.039-0.054-0.039-0.089s0.015-0.067 0.039-0.089l0-0c0.022-0.023 0.053-0.038 0.088-0.038 0 0 0 0 0.001 0h-0zM29.397 18.465v0.133c0.097-0.105 0.207-0.158 0.331-0.158 0.068 0 0.133 0.018 0.191 0.053s0.104 0.084 0.135 0.145c0.031 0.061 0.046 0.158 0.046 0.292v0.626h-0.217v-0.624c0-0.113-0.017-0.193-0.052-0.24s-0.092-0.072-0.172-0.072c-0.103 0-0.19 0.051-0.262 0.152v0.785h-0.223v-1.091h0.223zM30.743 18.653c-0.001-0-0.002-0-0.004-0-0.057 0-0.109 0.023-0.147 0.059l0-0c-0.038 0.035-0.062 0.085-0.062 0.141 0 0.001 0 0.001 0 0.002v-0c-0 0.001-0 0.003-0 0.005 0 0.054 0.024 0.102 0.061 0.135l0 0c0.039 0.035 0.090 0.056 0.147 0.056 0.003 0 0.006-0 0.009-0h-0c0.002 0 0.004 0 0.006 0 0.057 0 0.109-0.021 0.148-0.057l-0 0c0.038-0.034 0.061-0.083 0.061-0.137 0-0.001 0-0.002-0-0.004v0c0-0.001 0-0.003 0-0.004 0-0.055-0.024-0.104-0.062-0.138l-0-0c-0.039-0.035-0.091-0.057-0.149-0.057-0.002 0-0.005 0-0.007 0h0zM30.69 19.609c-0.073 0-0.133 0.016-0.18 0.046s-0.070 0.070-0.070 0.119c0 0.112 0.102 0.168 0.305 0.168 0.096 0 0.171-0.015 0.224-0.042s0.079-0.068 0.079-0.119c0-0.051-0.033-0.091-0.1-0.124s-0.153-0.048-0.259-0.048zM30.334 18.843c0-0.116 0.043-0.208 0.128-0.276s0.203-0.102 0.35-0.102h0.453v0.17h-0.222c0.043 0.043 0.073 0.083 0.090 0.119s0.025 0.076 0.025 0.122c0 0.057-0.016 0.113-0.049 0.168-0.031 0.053-0.073 0.096-0.124 0.126l-0.002 0.001c-0.051 0.029-0.135 0.053-0.253 0.070-0.084 0.012-0.125 0.040-0.125 0.084 0 0.025 0.015 0.046 0.046 0.062s0.086 0.033 0.167 0.050c0.135 0.030 0.221 0.052 0.26 0.069s0.073 0.040 0.105 0.071c0.049 0.048 0.079 0.115 0.079 0.19 0 0.003-0 0.005-0 0.008v-0c0 0.104-0.047 0.186-0.139 0.248s-0.217 0.093-0.372 0.093c-0.157 0-0.282-0.031-0.375-0.093s-0.14-0.145-0.14-0.25c0-0.148 0.092-0.243 0.275-0.286-0.073-0.047-0.109-0.093-0.109-0.139 0-0.035 0.015-0.067 0.047-0.095 0.035-0.030 0.078-0.052 0.125-0.062l0.002-0c-0.161-0.071-0.242-0.187-0.242-0.346zM33.584 19.171v0.261c-0.176 0.095-0.378 0.143-0.608 0.143-0.186 0-0.345-0.037-0.475-0.112s-0.234-0.178-0.306-0.303l-0.002-0.004c-0.071-0.12-0.113-0.264-0.113-0.418 0-0.002 0-0.004 0-0.006v0c0-0.241 0.086-0.444 0.26-0.609s0.387-0.247 0.641-0.247c0.176 0 0.37 0.046 0.584 0.137v0.255c-0.195-0.111-0.386-0.167-0.572-0.167-0.191 0-0.35 0.060-0.476 0.18-0.117 0.109-0.19 0.264-0.19 0.436 0 0.005 0 0.010 0 0.016v-0.001c0 0.182 0.062 0.332 0.186 0.449s0.283 0.176 0.477 0.176c0.203 0 0.4-0.062 0.593-0.185zM34.347 18.656c-0.004-0-0.008-0-0.012-0-0.095 0-0.181 0.039-0.243 0.102l-0 0c-0.062 0.064-0.1 0.151-0.1 0.247 0 0.004 0 0.009 0 0.013l-0-0.001c0 0.104 0.034 0.19 0.103 0.255s0.156 0.099 0.262 0.099c0.004 0 0.009 0 0.013 0 0.096 0 0.184-0.038 0.248-0.101l-0 0c0.063-0.062 0.102-0.149 0.102-0.244 0-0.004-0-0.009-0-0.013l0 0.001c0-0.003 0-0.006 0-0.010 0-0.097-0.041-0.185-0.106-0.247l-0-0c-0.066-0.063-0.156-0.102-0.254-0.102-0.004 0-0.009 0-0.013 0l0.001-0zM34.359 18.462c0.167 0 0.305 0.053 0.416 0.161s0.165 0.242 0.165 0.404c0 0.158-0.056 0.288-0.168 0.392s-0.252 0.156-0.422 0.156c-0.164 0-0.301-0.053-0.411-0.159-0.102-0.096-0.166-0.231-0.166-0.382 0-0.005 0-0.009 0-0.014v0.001c0-0.16 0.055-0.293 0.167-0.399s0.251-0.16 0.419-0.16zM36.081 18.764v0.792h-0.22v-0.61c0-0.122-0.016-0.206-0.049-0.254s-0.090-0.072-0.171-0.072c-0.001-0-0.002-0-0.004-0-0.045 0-0.086 0.012-0.123 0.033l0.001-0.001c-0.050 0.032-0.092 0.069-0.128 0.112l-0.001 0.001v0.792h-0.217v-1.091h0.217v0.144c0.11-0.112 0.219-0.168 0.325-0.168 0.139 0 0.247 0.067 0.324 0.201 0.116-0.133 0.237-0.201 0.364-0.201 0.106 0 0.193 0.039 0.262 0.116s0.103 0.196 0.103 0.355v0.644h-0.217v-0.649c0-0.091-0.019-0.16-0.056-0.209-0.035-0.044-0.089-0.073-0.15-0.073-0.004 0-0.008 0-0.011 0l0.001-0c-0.090 0-0.174 0.046-0.251 0.138zM37.44 18.668h-0.154v0.669c0.067 0.035 0.137 0.052 0.21 0.052 0.102 0 0.185-0.035 0.25-0.105s0.097-0.161 0.097-0.272c0-0.003 0-0.006 0-0.009 0-0.066-0.017-0.128-0.047-0.181l0.001 0.002c-0.028-0.052-0.071-0.093-0.123-0.118l-0.002-0.001c-0.053-0.025-0.13-0.037-0.232-0.037zM37.063 20.114v-1.65h0.381c0.195 0 0.347 0.048 0.456 0.144 0.108 0.097 0.162 0.231 0.162 0.405 0 0.164-0.051 0.298-0.153 0.403s-0.233 0.157-0.391 0.157c-0.070 0-0.148-0.016-0.233-0.046v0.586h-0.222zM38.789 19.339v-0.325l-0.145 0.056c-0.075 0.029-0.127 0.059-0.157 0.089-0.028 0.027-0.046 0.066-0.046 0.108 0 0.001 0 0.002 0 0.003v-0c0 0.045 0.014 0.082 0.044 0.111s0.066 0.043 0.113 0.043c0.069 0 0.133-0.029 0.192-0.085zM39.003 18.898v0.464c0 0.037 0.013 0.056 0.039 0.056 0.027 0 0.068-0.019 0.124-0.058v0.133c-0.050 0.031-0.089 0.052-0.119 0.063-0.027 0.011-0.059 0.017-0.092 0.017-0.001 0-0.001 0-0.002 0h0c-0.093 0-0.147-0.036-0.164-0.107-0.093 0.071-0.191 0.107-0.297 0.107-0.002 0-0.005 0-0.007 0-0.145 0-0.262-0.117-0.262-0.262 0-0.001 0-0.002 0-0.003v0c0-0.068 0.025-0.13 0.075-0.185 0.050-0.053 0.121-0.097 0.213-0.129l0.278-0.095v-0.059c0-0.133-0.066-0.199-0.198-0.199-0.118 0-0.234 0.061-0.346 0.181v-0.234c0.084-0.098 0.206-0.148 0.364-0.148 0.118 0 0.213 0.031 0.285 0.093 0.024 0.020 0.045 0.046 0.064 0.079 0.017 0.028 0.030 0.062 0.036 0.097l0 0.002c0.005 0.033 0.007 0.095 0.007 0.187h0.001zM39.568 18.465v0.133c0.098-0.105 0.208-0.158 0.331-0.158 0 0 0.001 0 0.001 0 0.141 0 0.263 0.080 0.324 0.196l0.001 0.002c0.030 0.061 0.046 0.158 0.046 0.292v0.626h-0.217v-0.624c0-0.113-0.017-0.193-0.051-0.24s-0.092-0.072-0.172-0.072c-0.103 0-0.19 0.051-0.263 0.152v0.785h-0.223v-1.091h0.223zM41.2 18.465h0.243l-0.775 1.65h-0.243l0.371-0.788-0.423-0.861h0.248l0.294 0.614 0.285-0.614zM42.29 19.114h-0.095v-0.619h0.153l0.157 0.494 0.152-0.494h0.149v0.619h-0.095v-0.519l-0.159 0.519h-0.094l-0.169-0.528v0.528zM41.921 19.114h-0.104v-0.531h-0.203v-0.088h0.511v0.088h-0.205v0.531z"></path>
</svg>
