<!-- Generated by IcoMoon.io -->
<svg version="1.1" xmlns="http://www.w3.org/2000/svg" width="201" height="32" viewBox="0 0 201 32">
<title>fb</title>
<path fill="#4267b2" d="M43.16 7.275c-1.621 0-2.090 0.7-2.090 2.245v2.563h4.324l-0.433 4.14h-3.889v12.564h-5.19v-12.564h-3.496v-4.14h3.496v-2.492c0-4.176 1.729-6.382 6.552-6.382 1.011-0.002 2.021 0.056 3.024 0.175v3.896l-2.298-0.005z"></path>
<path fill="#4267b2" d="M45.754 19.908c0-4.667 2.27-8.182 7.026-8.182 2.594 0 4.178 1.299 4.936 2.913v-2.556h4.971v16.704h-4.971v-2.527c-0.721 1.615-2.342 2.878-4.936 2.878-4.756 0-7.026-3.51-7.026-8.182v-1.049zM50.942 21.032c0 2.49 0.936 4.14 3.35 4.14 2.127 0 3.207-1.509 3.207-3.895v-1.677c0-2.386-1.080-3.895-3.207-3.895-2.414 0-3.35 1.649-3.35 4.14v1.186z"></path>
<path fill="#4267b2" d="M73.496 11.731c2.016 0 3.926 0.422 4.971 1.123l-1.152 3.58c-1.081-0.501-2.262-0.765-3.459-0.772-2.811 0-4.032 1.579-4.032 4.282v0.982c0 2.703 1.225 4.282 4.032 4.282 1.197-0.007 2.378-0.271 3.459-0.772l1.152 3.579c-1.045 0.702-2.953 1.124-4.971 1.124-6.090 0-8.864-3.194-8.864-8.318v-0.772c0-5.123 2.774-8.318 8.864-8.318z"></path>
<path fill="#4267b2" d="M79.151 21.073v-1.473c0-4.737 2.774-7.855 8.432-7.855 5.332 0 7.674 3.158 7.674 7.791v2.667h-10.92c0.109 2.281 1.154 3.299 4.032 3.299 1.947 0 4-0.386 5.514-1.018l0.949 3.461c-1.369 0.704-4.18 1.229-6.664 1.229-6.567-0.002-9.017-3.193-9.017-8.102zM84.339 18.897h6.27v-0.421c0-1.825-0.756-3.273-3.024-3.273-2.344 0.002-3.246 1.442-3.246 3.687v0.007z"></path>
<path fill="#4267b2" d="M114.488 20.962c0 4.667-2.305 8.182-7.056 8.182-2.594 0-4.395-1.263-5.116-2.878v2.527h-4.899v-25.097l5.188-0.458v11.16c0.756-1.473 2.414-2.667 4.828-2.667 4.756 0 7.056 3.51 7.056 8.182l-0.002 1.051zM109.3 19.803c0-2.351-0.936-4.106-3.422-4.106-2.127 0-3.279 1.473-3.279 3.86v1.754c0 2.386 1.153 3.86 3.279 3.86 2.486 0 3.422-1.754 3.422-4.106v-1.263z"></path>
<path fill="#4267b2" d="M116.224 20.855v-0.841c0-4.809 2.811-8.283 8.54-8.283s8.541 3.474 8.541 8.283v0.841c0 4.808-2.811 8.283-8.54 8.283s-8.541-3.476-8.541-8.283zM128.115 19.662c0-2.211-0.937-3.965-3.36-3.965s-3.352 1.754-3.352 3.965v1.545c0 2.211 0.937 3.965 3.352 3.965s3.36-1.754 3.36-3.965v-1.545z"></path>
<path fill="#4267b2" d="M135.030 20.855v-0.841c0-4.809 2.811-8.283 8.539-8.283s8.54 3.474 8.54 8.283v0.841c0 4.808-2.812 8.283-8.54 8.283s-8.539-3.476-8.539-8.283zM146.921 19.662c0-2.211-0.938-3.965-3.352-3.965s-3.35 1.754-3.35 3.965v1.545c0 2.211 0.936 3.965 3.35 3.965s3.352-1.754 3.352-3.965v-1.545z"></path>
<path fill="#4267b2" d="M159.242 20.048l5.116-7.966h5.511l-5.367 8.247 5.584 8.457h-5.511l-5.332-8.182v8.182h-5.19v-25.092l5.19-0.458v16.812z"></path>
</svg>
