<!-- Generated by IcoMoon.io -->
<svg version="1.1" xmlns="http://www.w3.org/2000/svg" width="230" height="32" viewBox="0 0 230 32">
<title>fcc</title>
<path fill="#006400" d="M3.069 11.287h-1.819c-0.625 0-0.966-0.233-0.966-0.873 0-0.582 0.341-0.873 0.966-0.873h1.819v-1.629c0-2.851 1.421-4.305 4.205-4.305 1.080 0 2.046 0.233 2.842 0.64 0.966 0.64 1.421 1.513 1.421 2.56 0 0.756-0.227 1.047-0.796 1.047-0.398 0-0.739-0.233-0.852-0.64-0.227-0.756-0.455-1.222-0.625-1.396-0.341-0.407-1.023-0.64-1.989-0.64-1.762 0-2.501 0.873-2.501 2.56v1.629h3.296c0.739 0 1.080 0.233 1.080 0.873 0 0.582-0.398 0.873-1.080 0.873h-3.296v10.764c0 0.64-0.227 0.989-0.796 0.989s-0.796-0.349-0.796-0.989l-0.114-10.589zM17.788 21.12v-9.775h-2.444c-0.682 0-1.023-0.233-1.023-0.873 0-0.582 0.341-0.873 1.023-0.873h3.239c0.568 0 0.852 0.465 0.852 1.455 1.023-1.105 2.046-1.687 3.239-1.687 0.966 0 1.648 0.233 2.216 0.873s0.796 1.396 0.796 2.327c0 0.64-0.227 0.989-0.796 0.989-0.341 0-0.568-0.233-0.739-0.64-0.227-0.815-0.398-1.222-0.398-1.28-0.227-0.407-0.739-0.64-1.25-0.64-0.625 0-1.25 0.233-1.762 0.756-0.341 0.233-0.796 0.756-1.364 1.513v7.855h3.069c0.739 0 1.023 0.233 1.023 0.815s-0.341 0.873-1.023 0.873h-7.104c-0.739 0-1.023-0.233-1.023-0.873 0-0.582 0.341-0.873 1.023-0.873h2.501l-0.057 0.058zM30.12 16.466v1.862c0 2.036 1.364 2.967 4.092 2.967 1.023 0 1.819-0.058 2.444-0.349 0.341-0.058 0.852-0.407 1.648-0.989 0.455-0.465 0.852-0.698 1.023-0.698 0.455 0 0.739 0.233 0.739 0.698s-0.341 1.047-1.023 1.629c-1.080 0.873-2.785 1.396-4.887 1.396-3.808 0-5.683-1.513-5.683-4.713v-4.596c0-1.047 0.398-2.036 1.193-2.735 1.023-1.047 2.614-1.513 4.66-1.513 3.694 0 5.513 1.92 5.513 5.76 0 0.989-0.398 1.396-1.023 1.396l-8.695-0.116zM30.12 14.778h8.127c0-2.502-1.364-3.782-4.092-3.782-1.023 0-1.875 0.233-2.785 0.756-0.796 0.64-1.25 1.28-1.25 2.095v0.931zM44.385 16.466v1.862c0 2.036 1.364 2.967 4.092 2.967 1.023 0 1.819-0.058 2.444-0.349 0.341-0.058 0.852-0.407 1.648-0.989 0.455-0.465 0.852-0.698 1.023-0.698 0.455 0 0.739 0.233 0.739 0.698s-0.341 1.047-1.023 1.629c-1.080 0.873-2.785 1.396-4.887 1.396-3.808 0-5.683-1.513-5.683-4.713v-4.596c0-1.047 0.398-2.036 1.193-2.735 1.023-1.047 2.614-1.513 4.66-1.513 3.694 0 5.513 1.92 5.513 5.76 0 0.989-0.398 1.396-1.023 1.396l-8.695-0.116zM44.385 14.778h8.127c0-2.502-1.364-3.782-4.092-3.782-1.023 0-1.875 0.233-2.785 0.756-0.852 0.64-1.25 1.28-1.25 2.095v0.931zM57.115 17.629v-7.273c0-3.898 1.989-5.76 5.91-5.76 1.591 0 2.842 0.407 3.864 1.047 1.080 0.873 1.648 2.095 1.648 3.665 0 0.756-0.227 1.047-0.852 1.047-0.398 0-0.739-0.349-0.852-1.047-0.057-0.582-0.341-1.105-0.625-1.629-0.455-0.989-1.591-1.396-3.296-1.396-1.421 0-2.501 0.407-3.183 1.105s-0.852 1.804-0.852 3.316v6.051c0 1.629 0.341 2.735 0.966 3.375 0.739 0.756 1.762 1.222 3.183 1.222 2.216 0 3.467-0.815 3.808-2.327 0.17-0.64 0.17-0.873 0.17-0.989 0.171-0.349 0.398-0.465 0.739-0.465 0.568 0 0.852 0.407 0.852 1.047 0 1.455-0.625 2.56-1.762 3.491-0.966 0.64-2.16 0.989-3.694 0.989-1.819 0-3.239-0.407-4.262-1.28-1.193-0.989-1.762-2.444-1.762-4.189zM71.152 18.676v-4.829c0-2.967 1.876-4.422 5.683-4.422s5.683 1.455 5.683 4.422v4.829c0 2.967-1.876 4.422-5.626 4.422-3.808-0.058-5.74-1.513-5.74-4.422zM80.87 18.676v-4.829c0-1.862-1.364-2.735-4.092-2.735-2.614 0-4.035 0.989-4.035 2.735v4.829c0 1.862 1.364 2.735 4.092 2.735 2.785-0.058 4.035-0.989 4.035-2.735zM95.021 21.411c-0.796 0.64-1.421 0.989-2.046 1.222s-1.421 0.407-2.273 0.407c-1.478 0-2.785-0.349-3.694-0.989-1.080-0.756-1.648-1.862-1.648-3.375v-5.004c0-1.455 0.568-2.56 1.591-3.316 0.852-0.64 2.16-0.989 3.58-0.989 0.966 0 1.762 0.058 2.387 0.349 0.625 0.233 1.364 0.64 2.046 1.28v-6.051c0-0.815 0.227-1.222 0.796-1.222s0.852 0.407 0.852 1.222v17.222c0 0.64-0.227 0.873-0.796 0.873-0.341 0-0.568-0.175-0.625-0.582-0.114-0.233-0.17-0.582-0.17-1.047zM94.907 19.491v-6.807c-0.796-0.64-1.421-1.047-1.989-1.222-0.739-0.233-1.421-0.407-2.216-0.407-1.023 0-1.875 0.175-2.5 0.64-0.796 0.465-1.25 1.28-1.25 2.211v4.713c0 0.989 0.398 1.687 1.25 2.269 0.739 0.407 1.478 0.64 2.614 0.64 0.852 0 1.648-0.175 2.273-0.407 0.568-0.524 1.193-0.989 1.819-1.629zM101.215 16.466v1.862c0 2.036 1.364 2.967 4.092 2.967 1.023 0 1.819-0.058 2.444-0.349 0.341-0.058 0.852-0.407 1.648-0.989 0.455-0.465 0.852-0.698 1.023-0.698 0.455 0 0.739 0.233 0.739 0.698s-0.341 1.047-1.023 1.629c-1.080 0.873-2.785 1.396-4.888 1.396-3.808 0-5.683-1.513-5.683-4.713v-4.596c0-1.047 0.398-2.036 1.193-2.735 1.023-1.047 2.614-1.513 4.66-1.513 3.694 0 5.512 1.92 5.512 5.76 0 0.989-0.398 1.396-1.023 1.396l-8.695-0.116zM101.215 14.778h8.127c0-2.502-1.364-3.782-4.092-3.782-1.023 0-1.875 0.233-2.785 0.756-0.852 0.64-1.25 1.28-1.25 2.095v0.931zM113.945 17.629v-7.273c0-3.898 1.989-5.76 5.91-5.76 1.591 0 2.842 0.407 3.864 1.047 1.080 0.873 1.648 2.095 1.648 3.665 0 0.756-0.227 1.047-0.852 1.047-0.398 0-0.739-0.349-0.852-1.047-0.057-0.582-0.341-1.105-0.625-1.629-0.455-0.989-1.591-1.396-3.296-1.396-1.421 0-2.501 0.407-3.183 1.105-0.625 0.756-0.852 1.804-0.852 3.316v6.051c0 1.629 0.341 2.735 0.966 3.375 0.682 0.756 1.762 1.222 3.182 1.222 2.216 0 3.467-0.815 3.808-2.327 0.171-0.64 0.171-0.873 0.171-0.989 0.17-0.349 0.398-0.465 0.682-0.465 0.568 0 0.852 0.407 0.852 1.047 0 1.455-0.625 2.56-1.762 3.491-0.966 0.64-2.16 0.989-3.694 0.989-1.819 0-3.239-0.407-4.262-1.28-1.137-0.989-1.705-2.444-1.705-4.189zM137.132 21.411c-0.796 0.64-1.421 1.047-1.875 1.222-0.625 0.233-1.364 0.407-2.216 0.407-1.364 0-2.501-0.233-3.41-0.873-1.023-0.756-1.478-1.687-1.478-3.084s0.568-2.444 1.591-3.258c0.852-0.698 2.046-1.047 3.467-1.047 1.080 0 2.387 0.233 3.864 0.815v-2.095c0-0.989-0.455-1.687-1.364-2.095-0.625-0.233-1.421-0.407-2.273-0.407-2.16 0-3.239 0.64-3.467 1.862-0.057 0.582-0.17 0.873-0.17 0.873-0.171 0.233-0.398 0.407-0.739 0.407-0.625 0-0.852-0.349-0.852-0.989 0-0.873 0.341-1.687 1.023-2.444 0.796-0.989 2.273-1.396 4.433-1.396 1.648 0 2.898 0.233 3.694 0.873 0.966 0.756 1.421 1.862 1.421 3.549v5.993c0 0.698 0.17 1.222 0.398 1.396 0 0 0.341 0.175 0.796 0.407 0.227 0.175 0.398 0.407 0.398 0.815 0 0.465-0.227 0.756-0.739 0.756-0.171 0-0.398 0-0.739-0.174-0.625-0.233-1.023-0.407-1.080-0.407-0.398-0.291-0.568-0.64-0.682-1.105zM137.075 19.666v-2.502c-1.25-0.407-2.5-0.64-3.58-0.64-2.444 0-3.637 0.814-3.637 2.444 0 0.873 0.398 1.513 1.080 1.862 0.625 0.349 1.364 0.465 2.216 0.465 0.796 0 1.478-0.175 2.103-0.465 0.455-0.116 1.023-0.524 1.819-1.164zM143.44 10.764c0.398-0.465 0.796-0.873 1.023-1.047 0.398-0.233 0.796-0.407 1.421-0.407 0.852 0 1.648 0.465 2.387 1.455 0.455-0.582 0.852-0.989 1.25-1.105 0.398-0.233 0.966-0.349 1.591-0.349 1.989 0 2.898 0.989 2.898 2.967v9.542c0 0.815-0.227 1.222-0.852 1.222-0.568 0-0.796-0.407-0.796-1.222v-8.96c0-1.222-0.455-1.862-1.421-1.862-0.739 0-1.421 0.465-2.046 1.396v9.425c0 0.815-0.227 1.222-0.796 1.222s-0.796-0.407-0.796-1.222v-8.727c0-1.396-0.568-2.036-1.591-2.036-0.739 0-1.364 0.465-1.989 1.396v9.484c0 0.815-0.227 1.222-0.852 1.222-0.568 0-0.796-0.407-0.796-1.222v-11.636c0-0.582 0.227-0.873 0.739-0.873 0.227 0 0.455 0.175 0.625 0.465-0.057 0.233 0 0.64 0 0.873zM158.216 10.764c1.25-0.989 2.785-1.396 4.433-1.396 3.466 0 5.114 1.513 5.114 4.422v4.829c0 1.396-0.454 2.502-1.421 3.316-0.851 0.756-2.045 1.047-3.579 1.047-1.762 0-3.24-0.465-4.604-1.455v5.585c0 0.873-0.227 1.28-0.796 1.28s-0.796-0.407-0.796-1.28v-16.465c0-0.873 0.227-1.28 0.682-1.28 0.227 0 0.455 0.175 0.625 0.465 0.114 0.349 0.171 0.698 0.341 0.931zM158.216 19.724c1.193 1.047 2.614 1.629 4.262 1.629 1.024 0 1.875-0.175 2.501-0.64 0.795-0.465 1.080-1.222 1.080-2.095v-4.829c0-1.047-0.398-1.687-1.251-2.211-0.624-0.349-1.477-0.465-2.499-0.465-0.966 0-1.762 0.175-2.274 0.407-0.568 0.233-1.080 0.756-1.876 1.513v6.691h0.057zM173.39 15.011c0-3.724 1.25-7.040 3.694-9.833 0.851-1.047 1.648-1.629 2.158-1.629 0.171 0 0.398 0 0.454 0.175 0.171 0.175 0.229 0.233 0.229 0.465s-0.342 0.698-0.966 1.396c-2.614 2.56-3.866 5.76-3.866 9.542 0 4.189 1.365 7.68 4.035 10.24 0.568 0.465 0.797 0.989 0.797 1.28 0 0.175-0.058 0.407-0.229 0.465-0.17 0.175-0.341 0.233-0.454 0.233-0.624 0-1.477-0.756-2.614-2.269-2.216-2.676-3.238-5.993-3.238-10.065zM207.715 16c0 3.724-1.25 7.040-3.693 9.833-0.853 1.047-1.648 1.629-2.16 1.629-0.171 0-0.398 0-0.454-0.175-0.171-0.175-0.227-0.349-0.227-0.465 0-0.233 0.341-0.756 0.966-1.28 2.613-2.56 3.864-5.76 3.864-9.542 0-4.189-1.365-7.68-4.035-10.24-0.568-0.465-0.795-0.989-0.795-1.28 0-0.175 0.056-0.407 0.227-0.465 0.17-0.175 0.341-0.233 0.454-0.233 0.626 0 1.477 0.756 2.614 2.269 2.16 2.618 3.238 5.993 3.238 9.949zM198.339 26.647h-15.686c-0.454 0-0.965-0.407-0.965-0.989s0.397-0.989 0.965-0.989h15.686c0.454 0 0.966 0.407 0.966 0.989-0.058 0.582-0.342 0.989-0.966 0.989zM187.2 5.586c0 0 1.363 0.989 1.363 2.56 0 2.909-3.864 6.167-3.864 9.193 0 3.316 2.443 5.411 4.717 6.051 0.341 0.058 0.454-0.349 0.058-0.407-0.966-0.233-2.046-1.513-2.046-3.549 0-1.862 1.762-2.56 2.443-3.491 0.739-0.989 0.57-2.095 0.171-2.444s-0.171-0.815 0.626-0.233c0.738 0.582 1.421 1.513 1.194 2.502-0.342 1.222 0.056 1.92 0.738 2.036 0.626 0.058 1.365-0.233 1.251-0.815-0.058-0.582-0.398-1.222-0.227-1.222 0.454 0 1.421 1.105 1.421 2.909s-1.421 3.084-1.877 3.549c-0.227 0.233 0.058 0.64 0.456 0.465 0.17-0.058 0.568-0.349 0.795-0.465 1.080-0.815 2.898-2.502 2.898-5.644 0-3.316-1.194-4.771-2.443-5.993-1.194-1.222-1.477-0.873-1.194-0.349 1.024 1.862 0.398 2.444-0.341 2.444-0.853 0-0.966-2.095-1.25-3.665-0.797-3.549-3.866-4.131-4.434-4.131-0.626 0.058-1.194 0.349-0.454 0.698z"></path>
</svg>
