<!-- Generated by IcoMoon.io -->
<svg version="1.1" xmlns="http://www.w3.org/2000/svg" width="32" height="32" viewBox="0 0 32 32">
<title>fox</title>
<path fill="#fc6d26" d="M31.943 18.297l-5.342-17.838c-0.046-0.134-0.126-0.247-0.229-0.331l-0.001-0.001c-0.095-0.077-0.217-0.124-0.35-0.125h-0c-0.133 0.001-0.254 0.048-0.35 0.126l0.001-0.001c-0.105 0.085-0.186 0.197-0.23 0.326l-0.002 0.005-3.55 11.858h-11.782l-3.551-11.857c-0.046-0.134-0.126-0.247-0.229-0.331l-0.001-0.001c-0.095-0.077-0.217-0.124-0.35-0.125h-0c-0.133 0.001-0.255 0.048-0.351 0.126l0.001-0.001c-0.104 0.085-0.184 0.197-0.228 0.326l-0.002 0.005-3.551 11.859-1.788 5.982c-0.077 0.269-0.077 0.562 0.003 0.83s0.235 0.498 0.44 0.651l15.497 12.222 15.497-12.223c0.205-0.153 0.36-0.383 0.44-0.651 0.038-0.125 0.061-0.269 0.061-0.419 0-0.146-0.021-0.288-0.061-0.422l0.003 0.010z"></path>
<path fill="#e24329" d="M16 32l5.892-19.69h-11.785l5.892 19.69z"></path>
<path fill="#fc6d26" d="M16 32.001l-5.892-19.687h-8.257l14.15 19.686z"></path>
<path fill="#fca326" d="M1.849 12.314l-1.79 5.981c-0.077 0.269-0.077 0.562 0.003 0.83s0.235 0.498 0.44 0.651l15.497 12.224-14.151-19.686z"></path>
<path fill="#e24329" d="M1.85 12.314h8.258l-3.55-11.857c-0.046-0.134-0.126-0.247-0.229-0.331l-0.001-0.001c-0.095-0.077-0.217-0.124-0.349-0.126h-0c-0.133 0.001-0.255 0.049-0.351 0.127l0.001-0.001c-0.105 0.085-0.185 0.197-0.229 0.326l-0.002 0.005-3.548 11.858z"></path>
<path fill="#fc6d26" d="M16 32l5.892-19.686h8.258l-14.151 19.686z"></path>
<path fill="#fca326" d="M30.15 12.314l1.792 5.982c0.077 0.269 0.077 0.562-0.003 0.83-0.077 0.266-0.232 0.489-0.437 0.649l-0.003 0.002-15.498 12.223 14.15-19.686z"></path>
<path fill="#e24329" d="M30.15 12.314h-8.257l3.55-11.857c0.046-0.134 0.126-0.247 0.229-0.331l0.001-0.001c0.095-0.077 0.217-0.124 0.349-0.126h0c0.125 0 0.246 0.044 0.35 0.126 0.105 0.085 0.185 0.197 0.229 0.326l0.002 0.005 3.55 11.858h-0.003z"></path>
</svg>
