<!-- Generated by IcoMoon.io -->
<svg version="1.1" xmlns="http://www.w3.org/2000/svg" width="29" height="32" viewBox="0 0 29 32">
<title>G</title>
<path d="M17.11 1.594c0.856 1.516 0.336 3.448-1.162 4.314l-9.307 5.387c-0.246 0.142-0.398 0.408-0.398 0.694v8.456c0 0.288 0.152 0.552 0.398 0.695l7.367 4.264c0.112 0.066 0.247 0.105 0.391 0.105s0.279-0.039 0.395-0.107l-0.004 0.002 7.368-4.264c0.246-0.142 0.398-0.408 0.398-0.695v-5.258l-6.623 3.784c-0.441 0.256-0.971 0.407-1.536 0.407-1.165 0-2.179-0.642-2.709-1.591l-0.008-0.016c-0.847-1.52-0.316-3.449 1.185-4.307l9.477-5.415c2.886-1.65 6.458 0.464 6.458 3.82v9.219c0 0.004 0 0.009 0 0.013 0 2.212-1.19 4.146-2.966 5.196l-0.028 0.015-8.458 4.896c-0.845 0.498-1.862 0.793-2.948 0.793s-2.103-0.294-2.976-0.808l0.028 0.015-8.458-4.896c-1.803-1.065-2.994-2.999-2.994-5.211 0-0.004 0-0.009 0-0.013v0.001-9.742c0-0.004 0-0.008 0-0.013 0-2.212 1.19-4.146 2.966-5.196l0.028-0.015 9.858-5.706c0.445-0.261 0.979-0.415 1.55-0.415 1.159 0 2.169 0.635 2.701 1.577l0.008 0.015z"></path>
</svg>
