<!-- Generated by IcoMoon.io -->
<svg version="1.1" xmlns="http://www.w3.org/2000/svg" width="32" height="32" viewBox="0 0 32 32">
<title>git</title>
<path d="M16 0c-3.981 0.006-7.615 1.487-10.387 3.926l0.018-0.015c-2.893 2.522-4.817 6.020-5.426 9.867-0.132 0.79-0.207 1.7-0.207 2.628 0 3.131 0.859 6.061 2.354 8.568l-0.042-0.077c1.966 3.332 5.025 5.841 8.629 7.072 0.801 0.143 1.097-0.349 1.097-0.779 0-0.39-0.020-1.686-0.020-3.057-4.020 0.759-5.060-1.004-5.38-1.927-0.37-0.921-0.931-1.698-1.637-2.311l-0.007-0.006c-0.561-0.308-1.361-1.067-0.020-1.087 0.512 0.056 1.004 0.239 1.431 0.533 0.429 0.294 0.781 0.69 1.028 1.153 0.22 0.403 0.513 0.757 0.866 1.044s0.757 0.498 1.19 0.623c0.28 0.085 0.601 0.134 0.934 0.134 0.615 0 1.191-0.166 1.685-0.457l-0.016 0.009c0.072-0.863 0.448-1.626 1.019-2.193l0-0c-3.563-0.41-7.281-1.824-7.281-8.099-0-0.029-0.001-0.062-0.001-0.096 0-1.659 0.624-3.173 1.65-4.319l-0.005 0.006c-0.209-0.586-0.33-1.262-0.33-1.967 0-0.86 0.18-1.679 0.505-2.42l-0.015 0.039s1.341-0.43 4.401 1.686c2.617-0.738 5.382-0.738 8 0 3.060-2.133 4.401-1.686 4.401-1.686 0.309 0.702 0.489 1.519 0.489 2.379 0 0.705-0.121 1.382-0.343 2.011l0.013-0.042c1.021 1.135 1.645 2.644 1.645 4.299 0 0.039-0 0.078-0.001 0.117l0-0.006c0 6.295-3.74 7.689-7.299 8.099 0.382 0.397 0.676 0.874 0.863 1.397 0.186 0.524 0.26 1.082 0.217 1.639 0 2.194-0.020 3.957-0.020 4.511 0 0.43 0.299 0.943 1.096 0.779 3.601-1.239 6.654-3.752 8.615-7.086 1.444-2.426 2.298-5.349 2.298-8.471 0-0.935-0.077-1.852-0.224-2.745l0.013 0.097c-0.612-3.843-2.538-7.338-5.431-9.86-2.754-2.421-6.386-3.9-10.364-3.907h-0.002z"></path>
</svg>
