<!-- Generated by IcoMoon.io -->
<svg version="1.1" xmlns="http://www.w3.org/2000/svg" width="103" height="32" viewBox="0 0 103 32">
<title>gitlab</title>
<path d="M34.175 17.815l-1.805-5.569-3.585-11.051c-0.192-0.567-0.72-0.968-1.341-0.968-0.005 0-0.009 0-0.014 0h0.001c-0.62 0.004-1.144 0.387-1.336 0.977l-3.403 10.488h-10.736l-3.409-10.489c-0.183-0.57-0.709-0.976-1.329-0.976-0.003 0-0.006 0-0.008 0h-0.006c-0.611 0-1.152 0.389-1.351 0.977l-3.575 11.043-1.813 5.568c-0.064 0.188-0.1 0.405-0.1 0.631 0 0.673 0.328 1.27 0.832 1.64l0.006 0.004 15.656 11.388c0.007 0.005 0.013 0.011 0.020 0.013-0.007-0.003-0.013-0.008-0.019-0.013l0.003 0.003 0.003 0.001c0.021 0.015 0.046 0.031 0.072 0.045l0.004 0.002 0.011 0.007 0.007 0.004 0.004 0.003h0.004l0.009 0.005 0.041 0.017 0.040 0.016h0.001l0.007 0.004 0.008 0.003h0.004l0.011 0.003 0.004 0.001c0.019 0.005 0.039 0.011 0.057 0.013l0.023 0.007h0.004l0.007 0.003 0.013 0.003h0.011c0.034 0.005 0.073 0.009 0.113 0.009h0.002c0.040-0.001 0.079-0.004 0.117-0.010l-0.005 0.001h0.013l0.012-0.003 0.007-0.003h0.004l0.023-0.005 0.057-0.013 0.004-0.003c0.004 0 0.007 0 0.011-0.003h0.004l0.008-0.003 0.007-0.003 0.001-0.001 0.041-0.017 0.040-0.016 0.009-0.004 0.008-0.004c0.003 0 0.005-0.003 0.007-0.004l0.011-0.007c0.030-0.016 0.055-0.031 0.079-0.047l-0.003 0.002 0.005-0.004h0.001l0.008-0.005 15.651-11.385c0.51-0.373 0.837-0.969 0.837-1.641 0-0.226-0.037-0.443-0.105-0.646l0.004 0.014zM27.44 2.231l3.069 9.461h-6.139l3.069-9.461zM29.972 13.292l-1.253 1.607-9.237 11.852 4.369-13.459h6.12zM16.559 31.073v0zM15.157 26.751l-10.485-13.457h6.121l4.364 13.459zM7.199 2.231l3.075 9.461h-6.139l3.065-9.461zM2.139 18.795c-0.108-0.079-0.178-0.206-0.178-0.349 0-0.049 0.008-0.095 0.023-0.139l-0.001 0.003 1.347-4.139 9.872 12.672-11.063-8.048zM16.821 31.452l-0.009-0.008-0.003-0.001c-0.018-0.016-0.035-0.031-0.051-0.047l0.003 0.003 0.004 0.003c0.022 0.022 0.046 0.042 0.070 0.061l0.002 0.001c0.003 0 0.003 0.003 0.004 0.003l-0.020-0.015zM17.319 28.236l-4.845-14.943h9.697l-4.853 14.944zM17.844 31.427l-0.017 0.016-0.003 0.001-0.009 0.008-0.020 0.016 0.003-0.004c0.027-0.020 0.051-0.040 0.074-0.062l-0 0 0.003-0.003 0.004-0.003c-0.010 0.009-0.021 0.019-0.032 0.028l-0.001 0.001zM32.499 18.795l-11.059 8.045 9.875-12.668 1.341 4.137c0.014 0.040 0.022 0.087 0.022 0.135 0 0.143-0.069 0.27-0.176 0.349l-0.001 0.001zM72.013 7.855h-2.18l0.009 16.28h8.835v-2.013h-6.653l-0.009-14.267zM87.085 21.277c-0.678 0.704-1.629 1.141-2.681 1.141-0.007 0-0.014-0-0.021-0h0.001c-1.661 0-2.332-0.821-2.332-1.893 0-1.613 1.12-2.384 3.501-2.384 0.451 0 1.171 0.051 1.541 0.12v3.016h-0.009zM84.824 11.411c-1.761 0-3.383 0.62-4.643 1.672l0.771 1.343c0.891-0.521 1.981-1.043 3.552-1.043 1.791 0 2.581 0.921 2.581 2.465v0.791c-0.453-0.075-0.976-0.118-1.509-0.12h-0.002c-3.823 0-5.764 1.343-5.764 4.147 0 2.515 1.541 3.777 3.872 3.777 1.571 0 3.081-0.72 3.603-1.893l0.4 1.593h1.541v-8.336c-0.011-2.635-1.152-4.397-4.403-4.397zM96.264 22.493c-0.82 0-1.541-0.1-2.081-0.349v-7.524c0.74-0.621 1.661-1.072 2.832-1.072 2.111 0 2.92 1.493 2.92 3.907 0 3.427-1.309 5.040-3.671 5.040zM97.184 11.413c-1.951 0-3.001 1.333-3.001 1.333v-2.104l-0.011-2.784h-2.131l0.011 15.877c1.069 0.451 2.531 0.692 4.121 0.692 4.072 0 6.033-2.605 6.033-7.103-0.009-3.557-1.821-5.911-5.023-5.911zM48.267 9.621c1.931 0 3.181 0.64 3.991 1.292l0.943-1.633c-1.271-1.121-2.992-1.723-4.832-1.723-4.643 0-7.895 2.835-7.895 8.555 0 5.992 3.512 8.325 7.524 8.325 0.009 0 0.020 0 0.031 0 1.735 0 3.389-0.346 4.897-0.973l-0.085 0.031-0.051-6.401v-2.013h-5.953v2.013h3.803l0.049 4.859c-0.5 0.251-1.36 0.451-2.531 0.451-3.221 0-5.383-2.033-5.383-6.312-0.011-4.357 2.221-6.471 5.493-6.471zM63.627 7.853h-2.131l0.009 2.733v9.448c0 2.635 1.141 4.397 4.392 4.397 0.451 0 0.891-0.040 1.311-0.12v-1.912c-0.282 0.045-0.606 0.071-0.937 0.071-0.018 0-0.037-0-0.055-0l0.003 0c-1.792 0-2.581-0.923-2.581-2.465v-6.512h3.571v-1.784h-3.571l-0.011-3.856zM56.076 24.133h2.131v-12.421h-2.131v12.421zM56.076 9.999h2.131v-2.133h-2.131v2.133z"></path>
</svg>
