<!-- Generated by IcoMoon.io -->
<svg version="1.1" xmlns="http://www.w3.org/2000/svg" width="32" height="32" viewBox="0 0 32 32">
<title>go</title>
<path fill="#00acd7" d="M5.055 14.379c-0.051 0-0.063-0.028-0.038-0.071l0.264-0.384c0.025-0.043 0.088-0.071 0.139-0.071h4.488c0.050 0 0.063 0.043 0.038 0.085l-0.213 0.37c-0.026 0.043-0.089 0.085-0.127 0.085l-4.551-0.014zM3.156 15.687c-0.051 0-0.063-0.028-0.038-0.071l0.264-0.384c0.025-0.043 0.088-0.071 0.139-0.071h5.733c0.051 0 0.076 0.043 0.063 0.085l-0.101 0.341c-0.012 0.057-0.063 0.085-0.113 0.085l-5.947 0.014zM6.199 16.996c-0.050 0-0.063-0.043-0.038-0.085l0.177-0.356c0.025-0.043 0.076-0.085 0.126-0.085h2.515c0.050 0 0.075 0.043 0.075 0.1l-0.024 0.341c0 0.057-0.051 0.1-0.089 0.1l-2.741-0.014zM19.25 14.123c-0.792 0.228-1.332 0.398-2.112 0.626-0.188 0.057-0.201 0.071-0.365-0.142-0.188-0.242-0.326-0.398-0.59-0.54-0.792-0.441-1.56-0.313-2.276 0.213-0.856 0.626-1.295 1.55-1.282 2.702 0.012 1.138 0.704 2.076 1.697 2.233 0.855 0.128 1.572-0.213 2.137-0.939 0.114-0.156 0.213-0.327 0.34-0.526h-2.427c-0.264 0-0.327-0.185-0.238-0.427 0.162-0.441 0.465-1.18 0.64-1.55 0.038-0.085 0.127-0.228 0.315-0.228h4.577c-0.026 0.384-0.026 0.768-0.076 1.152-0.134 1.051-0.501 1.996-1.046 2.811l0.015-0.024c-0.905 1.351-2.087 2.19-3.584 2.418-1.233 0.185-2.376-0.085-3.381-0.939-0.932-0.796-1.459-1.849-1.598-3.157-0.164-1.55 0.239-2.944 1.069-4.167 0.892-1.323 2.074-2.162 3.52-2.46 1.183-0.242 2.315-0.085 3.333 0.697 0.666 0.498 1.144 1.18 1.458 2.005 0.076 0.128 0.026 0.199-0.126 0.242z"></path>
<path fill="#00acd7" d="M23.412 21.988c-1.144-0.028-2.188-0.398-3.068-1.252-0.741-0.725-1.207-1.65-1.357-2.745-0.226-1.607 0.162-3.029 1.018-4.295 0.917-1.365 2.024-2.076 3.52-2.375 1.284-0.256 2.49-0.114 3.584 0.725 0.993 0.768 1.609 1.806 1.773 3.172 0.213 1.92-0.276 3.484-1.446 4.821-0.768 0.894-1.802 1.54-2.98 1.813l-0.038 0.007c-0.34 0.071-0.679 0.085-1.006 0.128zM26.405 16.242c-0.012-0.185-0.012-0.327-0.038-0.469-0.225-1.408-1.37-2.204-2.565-1.892-1.17 0.299-1.924 1.138-2.201 2.475-0.225 1.109 0.252 2.233 1.157 2.688 0.692 0.341 1.383 0.299 2.050-0.085 0.993-0.583 1.534-1.493 1.596-2.716z"></path>
</svg>
