<!-- Generated by IcoMoon.io -->
<svg version="1.1" xmlns="http://www.w3.org/2000/svg" width="95" height="32" viewBox="0 0 95 32">
<title>google</title>
<path fill="#ea4335" d="M40.383 16.41c0 4.441-3.485 7.714-7.763 7.714-4.277 0-7.762-3.273-7.762-7.714 0-4.473 3.485-7.715 7.763-7.715 4.277 0 7.762 3.242 7.762 7.715zM36.984 16.41c0-2.775-2.019-4.675-4.364-4.675-2.344 0-4.364 1.9-4.364 4.675 0 2.748 2.019 4.674 4.365 4.674 2.344 0 4.364-1.93 4.364-4.674z"></path>
<path fill="#fbbc05" d="M57.13 16.41c0 4.441-3.486 7.714-7.763 7.714s-7.763-3.273-7.763-7.714c0-4.469 3.486-7.715 7.763-7.715s7.763 3.242 7.763 7.715zM53.731 16.41c0-2.775-2.019-4.675-4.364-4.675s-4.364 1.9-4.364 4.675c0 2.748 2.019 4.674 4.364 4.674s4.364-1.93 4.364-4.674z"></path>
<path fill="#4285f4" d="M73.178 9.162v13.85c0 5.697-3.37 8.024-7.354 8.024-3.751 0-6.008-2.502-6.859-4.546l2.958-1.228c0.526 1.256 1.817 2.737 3.897 2.737 2.55 0 4.13-1.567 4.13-4.521v-1.109h-0.118c-0.761 0.936-2.226 1.752-4.075 1.752-3.87 0-7.414-3.36-7.414-7.683 0-4.354 3.544-7.743 7.414-7.743 1.845 0 3.31 0.818 4.075 1.726h0.118v-1.256h3.228v-0.003zM70.193 16.438c0-2.717-1.818-4.703-4.131-4.703-2.345 0-4.309 1.986-4.309 4.703 0 2.689 1.964 4.647 4.309 4.647 2.313 0 4.13-1.958 4.13-4.646z"></path>
<path fill="#34a853" d="M78.499 1.044v22.609h-3.315v-22.61h3.315z"></path>
<path fill="#ea4335" d="M91.414 18.95l2.637 1.753c-0.85 1.256-2.902 3.418-6.446 3.418-4.396 0-7.68-3.388-7.68-7.714 0-4.588 3.311-7.715 7.299-7.715 4.017 0 5.981 3.187 6.622 4.908l0.353 0.877-10.345 4.27c0.792 1.548 2.024 2.338 3.751 2.338 1.73 0 2.931-0.85 3.81-2.136zM83.296 16.174l6.915-2.863c-0.381-0.963-1.525-1.634-2.871-1.634-1.728 0-4.131 1.519-4.044 4.498z"></path>
<path fill="#4285f4" d="M12.312 14.403v-3.273h11.063c0.104 0.564 0.164 1.212 0.164 1.875 0 0.035-0 0.070-0 0.106l0-0.005c0 2.456-0.673 5.493-2.842 7.656-2.111 2.191-4.808 3.36-8.381 3.36-6.622 0-12.19-5.377-12.19-11.979s5.568-11.979 12.189-11.979c3.663 0 6.273 1.433 8.234 3.3l-2.317 2.31c-1.406-1.314-3.31-2.337-5.92-2.337-4.835 0-8.618 3.885-8.618 8.706s3.783 8.706 8.618 8.706c3.136 0 4.922-1.256 6.067-2.397 0.928-0.925 1.539-2.247 1.78-4.052l-7.847 0.003z"></path>
</svg>
