<!-- Generated by IcoMoon.io -->
<svg version="1.1" xmlns="http://www.w3.org/2000/svg" width="32" height="32" viewBox="0 0 32 32">
<title>java</title>
<path fill="#fff" d="M0 0h32v32h-32v-32z"></path>
<path fill="#3174b9" d="M13.343 16.889s-0.764 0.444 0.545 0.594c1.586 0.181 2.395 0.155 4.142-0.175 0 0 0.461 0.288 1.102 0.538-3.917 1.678-8.866-0.097-5.79-0.958zM12.864 14.696s-0.858 0.635 0.453 0.77c1.695 0.175 3.032 0.19 5.348-0.256 0 0 0.32 0.325 0.823 0.503-4.737 1.385-10.011 0.109-6.623-1.016z"></path>
<path fill="#ca3132" d="M16.9 10.981c0.966 1.112-0.254 2.112-0.254 2.112s2.452-1.266 1.326-2.85c-1.051-1.478-1.858-2.212 2.507-4.742 0 0-6.85 1.71-3.579 5.48z"></path>
<path fill="#3174b9" d="M22.081 18.509s0.565 0.467-0.623 0.827c-2.26 0.685-9.412 0.891-11.398 0.027-0.713-0.311 0.626-0.742 1.047-0.832 0.439-0.095 0.69-0.078 0.69-0.078-0.794-0.559-5.132 1.099-2.203 1.574 7.988 1.295 14.56-0.583 12.488-1.517zM13.71 12.428s-3.636 0.864-1.287 1.178c0.992 0.133 2.969 0.102 4.812-0.053 1.192-0.108 2.224-0.248 3.242-0.429l-0.226 0.033s-0.53 0.228-0.914 0.489c-3.694 0.972-10.829 0.519-8.775-0.474 1.737-0.841 3.149-0.744 3.149-0.744zM20.236 16.075c-0.018 0.046-0.075 0.098-0.075 0.098 5.013-1.318 3.17-4.646 0.772-3.803-0.21 0.073-0.32 0.247-0.32 0.247s0.133-0.053 0.429-0.115c1.212-0.252 2.949 1.623-0.806 3.573z"></path>
<path fill="#ca3132" d="M17.972 1.412s2.079 2.081-1.972 5.279c-3.25 2.566-0.741 4.030-0.001 5.701-1.896-1.711-3.289-3.218-2.355-4.62 1.37-2.057 5.167-3.055 4.328-6.36z"></path>
<path fill="#3174b9" d="M14.080 21.362c3.603 0.23 9.138-0.128 9.269-1.833 0 0-0.252 0.646-2.978 1.159-3.076 0.578-6.871 0.512-9.12 0.14 0 0 0.461 0.382 2.829 0.533z"></path>
<path fill="#ca3132" d="M23.183 24.42v0.308h0.076v-0.308h0.11v-0.062h-0.296v0.062h0.109zM23.772 24.435v0.292h0.071v-0.367h-0.105l-0.101 0.261-0.101-0.261h-0.107v0.367h0.073v-0.292h0.001l0.108 0.292h0.050l0.11-0.292zM13.49 27.877c-0.34 0.295-0.699 0.461-1.022 0.461-0.46 0-0.71-0.276-0.71-0.718 0-0.479 0.268-0.828 1.336-0.828h0.396v1.086zM14.427 28.935v-3.276c0-0.837-0.478-1.389-1.628-1.389-0.671 0-1.26 0.166-1.739 0.377l0.137 0.581c0.377-0.139 0.865-0.268 1.343-0.268 0.664 0 0.948 0.267 0.948 0.82v0.414h-0.332c-1.609 0-2.336 0.625-2.336 1.564 0 0.809 0.479 1.269 1.38 1.269 0.581 0 1.013-0.239 1.417-0.589l0.073 0.498h0.736zM17.557 28.935c0.672-1.417 1.151-3.073 1.416-4.582h-0.993c-0.156 1.196-0.469 2.438-0.91 3.662l-0.194-0.846-0.875-2.816h-1.022l1.409 4.582h1.169zM22.047 27.877c-0.341 0.295-0.7 0.461-1.023 0.461-0.459 0-0.709-0.276-0.709-0.718 0-0.479 0.268-0.828 1.336-0.828h0.396v1.086zM22.984 28.935v-3.276c0-0.837-0.479-1.389-1.628-1.389-0.672 0-1.261 0.166-1.739 0.377l0.137 0.581c0.377-0.139 0.865-0.268 1.344-0.268 0.661 0 0.948 0.267 0.948 0.82v0.414h-0.332c-1.612 0-2.337 0.625-2.337 1.564 0 0.809 0.478 1.269 1.38 1.269 0.581 0 1.012-0.239 1.417-0.589l0.075 0.498h0.735zM9.792 29.714c0.268-0.401 0.348-0.812 0.348-1.831v-5.159h-0.997v5.231c0 0.762-0.051 1.080-0.175 1.327-0.143 0.277-0.452 0.576-0.812 0.761l0.462 0.545c0.474-0.175 0.905-0.484 1.173-0.875z"></path>
</svg>
