<!-- Generated by IcoMoon.io -->
<svg version="1.1" xmlns="http://www.w3.org/2000/svg" width="105" height="32" viewBox="0 0 105 32">
<title>logo</title>
<path fill="#12100c" d="M44.836 24.355c-4.686 0-8.036-3.355-8.036-7.778s3.373-7.778 7.968-7.778c2.264 0 4.030 0.866 5.501 2.134l-0.928 1.888c-1.133-1.11-2.581-2.022-4.664-2.022-3.394 0-5.84 2.334-5.84 5.778s2.422 5.778 5.864 5.778c2.965 0 5.070-1.755 5.41-4.422h-6.044v-2h8.352v0.088c0 4.89-2.806 8.334-7.582 8.334zM54.544 13.245h1.947v11.11h-1.947v-11.11zM65.712 24.2v-1.689c-0.612 0.111-1.11 0.178-1.834 0.178-0.95 0-1.29-0.489-1.29-1.334v-6.443h3.101v-1.666h-3.102v-2.978h-1.946v2.978h-2.241v1.666h2.24v6.334c0 2.355 1.064 3.222 3.124 3.222 0.724 0 1.358-0.111 1.946-0.266z"></path>
<path fill="#12100c" d="M69.679 28.8h-1.947v-15.555h1.948v1.6c0.928-1.222 2.309-1.867 3.984-1.867 3.214 0 5.456 2.4 5.456 5.822s-2.242 5.822-5.456 5.822c-1.607 0-2.92-0.622-3.984-1.889v6.066zM69.543 18.8c0 2.466 1.494 4.045 3.78 4.045s3.781-1.6 3.781-4.045-1.494-4.045-3.78-4.045c-2.286 0-3.781 1.578-3.781 4.045zM80.33 18.8c0 3.334 2.535 5.822 5.93 5.822s5.931-2.489 5.931-5.822-2.535-5.822-5.931-5.822c-3.395 0-5.93 2.489-5.93 5.822zM90.178 18.8c0 2.311-1.562 3.978-3.917 3.978s-3.916-1.666-3.916-3.978 1.562-3.978 3.916-3.978c2.354 0 3.917 1.666 3.917 3.978zM102.854 8.8h1.946v15.555h-1.946v-1.6c-0.929 1.222-2.31 1.867-3.984 1.867-3.214 0-5.456-2.4-5.456-5.822s2.242-5.822 5.456-5.822c1.607 0 2.92 0.622 3.984 1.889v-6.066zM102.989 18.8c0-2.466-1.494-4.045-3.78-4.045s-3.78 1.6-3.78 4.045 1.494 4.045 3.78 4.045c2.286 0 3.78-1.578 3.78-4.045z"></path>
<path fill="#12100c" d="M55.522 11.784c0.769 0 1.392-0.61 1.392-1.362s-0.623-1.362-1.392-1.362c-0.77 0-1.394 0.61-1.394 1.362s0.624 1.362 1.394 1.362z"></path>
<path fill="#000" d="M17.11 1.594c0.856 1.516 0.336 3.448-1.162 4.314l-9.307 5.387c-0.246 0.142-0.398 0.408-0.398 0.694v8.456c0 0.288 0.152 0.552 0.398 0.695l7.367 4.264c0.112 0.066 0.247 0.105 0.391 0.105s0.279-0.039 0.395-0.107l-0.004 0.002 7.368-4.264c0.246-0.142 0.398-0.408 0.398-0.695v-5.258l-6.623 3.784c-0.441 0.256-0.971 0.407-1.536 0.407-1.165 0-2.179-0.642-2.709-1.591l-0.008-0.016c-0.847-1.52-0.316-3.449 1.185-4.307l9.477-5.415c2.886-1.65 6.458 0.464 6.458 3.82v9.219c0 0.004 0 0.009 0 0.013 0 2.212-1.19 4.146-2.966 5.196l-0.028 0.015-8.458 4.896c-0.845 0.498-1.862 0.793-2.948 0.793s-2.103-0.294-2.976-0.808l0.028 0.015-8.458-4.896c-1.803-1.065-2.994-2.999-2.994-5.211 0-0.004 0-0.009 0-0.013v0.001-9.742c0-0.004 0-0.008 0-0.013 0-2.212 1.19-4.146 2.966-5.196l0.028-0.015 9.858-5.706c0.445-0.261 0.979-0.415 1.55-0.415 1.159 0 2.169 0.635 2.701 1.577l0.008 0.015z"></path>
</svg>
