<!-- Generated by IcoMoon.io -->
<svg version="1.1" xmlns="http://www.w3.org/2000/svg" width="32" height="32" viewBox="0 0 32 32">
<title>phyton</title>
<path d="M15.885 0c-8.124 0-7.616 3.541-7.616 3.541l0.009 3.669h7.752v1.102h-10.831c0 0-5.198-0.593-5.198 7.647s4.537 7.947 4.537 7.947h2.708v-3.824c0 0-0.146-4.561 4.465-4.561s7.689 0 7.689 0 4.32 0.070 4.32-4.197c0-4.267 0-7.055 0-7.055s0.656-4.27-7.834-4.27zM11.61 2.467c0.771 0 1.395 0.627 1.395 1.402s-0.623 1.402-1.395 1.402c-0.771 0-1.395-0.627-1.395-1.402s0.623-1.402 1.395-1.402z"></path>
<path d="M16.115 32c8.124 0 7.616-3.541 7.616-3.541l-0.009-3.669h-7.752v-1.102h10.831c0 0 5.198 0.593 5.198-7.647s-4.537-7.947-4.537-7.947h-2.708v3.824c0 0 0.146 4.561-4.465 4.561s-7.689 0-7.689 0-4.32-0.070-4.32 4.197c0 4.267 0 7.055 0 7.055s-0.656 4.27 7.834 4.27zM20.39 29.533c-0.771 0-1.395-0.627-1.395-1.402s0.623-1.402 1.395-1.402 1.395 0.627 1.395 1.402c0 0.775-0.623 1.402-1.395 1.402z"></path>
</svg>
