<!-- Generated by IcoMoon.io -->
<svg version="1.1" xmlns="http://www.w3.org/2000/svg" width="32" height="32" viewBox="0 0 32 32">
<title>rust</title>
<path d="M15.789 5.262c-5.791 0-10.504 4.716-10.504 10.504s4.715 10.504 10.504 10.504c5.788 0 10.504-4.716 10.504-10.504s-4.716-10.504-10.504-10.504zM15.774 6.195c0.372 0.009 0.671 0.313 0.671 0.687 0 0.002 0 0.003-0 0.005v-0c-0.001 0.381-0.31 0.689-0.691 0.689s-0.691-0.309-0.691-0.691 0.309-0.691 0.691-0.691c0.007 0 0.014 0 0.021 0l-0.001-0zM17.356 7.333c2.509 0.482 4.588 2.012 5.8 4.107l0.022 0.041-0.815 1.839c-0.034 0.075-0.053 0.162-0.053 0.255 0 0.256 0.151 0.476 0.369 0.577l0.004 0.002 1.569 0.696c0.047 0.491 0.055 0.984 0.018 1.476h-0.873c-0.087 0-0.122 0.057-0.122 0.142v0.399c0 0.942-0.531 1.15-0.998 1.201-0.444 0.051-0.936-0.187-0.998-0.459-0.262-1.473-0.698-1.786-1.387-2.33 0.856-0.543 1.745-1.345 1.745-2.417 0-1.157-0.794-1.886-1.333-2.244-0.76-0.5-1.6-0.601-1.826-0.601h-9.023c1.218-1.357 2.854-2.316 4.705-2.676l0.054-0.009 1.064 1.116c0.114 0.12 0.276 0.195 0.454 0.195 0.169 0 0.322-0.067 0.435-0.175l-0 0 1.191-1.137zM7.533 12.449c0.004-0 0.010-0 0.015-0 0.382 0 0.692 0.31 0.692 0.692s-0.31 0.692-0.692 0.692c-0.019 0-0.039-0.001-0.058-0.002l0.003 0c-0.358-0.030-0.637-0.327-0.637-0.69 0-0.377 0.301-0.684 0.676-0.692h0.001zM24.011 12.48c0 0 0.001 0 0.001 0 0.382 0 0.691 0.309 0.691 0.691s-0.309 0.691-0.691 0.691c-0.014 0-0.028-0-0.042-0.001l0.002 0c-0.364-0.022-0.651-0.322-0.651-0.69 0-0.381 0.309-0.69 0.69-0.691h0zM8.836 12.591h1.204v5.431h-2.431c-0.207-0.698-0.326-1.501-0.326-2.331 0-0.323 0.018-0.641 0.053-0.955l-0.003 0.039 1.49-0.661c0.222-0.1 0.374-0.32 0.374-0.575 0-0.092-0.020-0.18-0.056-0.259l0.002 0.004-0.307-0.691zM13.862 12.648h2.868c0.151 0 1.048 0.172 1.048 0.845 0 0.557-0.689 0.759-1.256 0.759h-2.662l0.002-1.604zM13.862 16.551h2.199c0.199 0 1.073 0.058 1.351 1.173 0.087 0.343 0.28 1.458 0.41 1.816 0.132 0.399 0.664 1.199 1.229 1.199h3.588c-0.252 0.337-0.51 0.634-0.787 0.913l0-0-1.46-0.314c-0.040-0.009-0.085-0.014-0.132-0.014-0.301 0-0.553 0.211-0.616 0.493l-0.001 0.004-0.346 1.618c-1.031 0.479-2.237 0.758-3.509 0.758-1.3 0-2.532-0.292-3.633-0.813l0.052 0.022-0.347-1.618c-0.062-0.286-0.314-0.498-0.614-0.498-0.047 0-0.092 0.005-0.136 0.015l0.004-0.001-1.429 0.306c-0.257-0.265-0.499-0.549-0.721-0.848l-0.016-0.023h6.949c0.078 0 0.13-0.012 0.13-0.087v-2.458c0-0.071-0.052-0.087-0.13-0.087h-2.034l0.002-1.557zM10.656 22.181c0 0 0 0 0 0 0.382 0 0.691 0.309 0.691 0.691s-0.309 0.691-0.691 0.691c-0.014 0-0.028-0-0.042-0.001l0.002 0c-0.373-0.011-0.671-0.316-0.671-0.691 0-0.382 0.309-0.691 0.691-0.691 0.007 0 0.014 0 0.021 0l-0.001-0zM20.889 22.212c0.373 0.011 0.671 0.316 0.671 0.691 0 0.382-0.309 0.691-0.691 0.691-0.007 0-0.014-0-0.021-0l0.001 0c-0.373-0.011-0.671-0.316-0.671-0.691 0-0.382 0.309-0.691 0.691-0.691 0.007 0 0.014 0 0.021 0l-0.001-0z"></path>
<path stroke="#000" fill="#000" stroke-width="3.5556" stroke-miterlimit="4" stroke-linecap="round" stroke-linejoin="round" d="M25.707 15.767v0c0-5.477-4.44-9.918-9.918-9.918s-9.918 4.44-9.918 9.918v0c0 5.477 4.44 9.918 9.918 9.918s9.918-4.44 9.918-9.918zM25.519 14.809l1.547 0.958-1.547 0.958 1.33 1.242-1.702 0.639 1.062 1.478-1.798 0.293 0.755 1.658-1.819-0.065 0.417 1.774-1.773-0.418 0.064 1.82-1.657-0.756-0.294 1.798-1.478-1.062-0.638 1.702-1.242-1.329-0.958 1.547-0.958-1.547-1.242 1.329-0.638-1.702-1.478 1.062-0.294-1.798-1.658 0.756 0.065-1.82-1.773 0.418 0.417-1.774-1.82 0.065 0.756-1.658-1.798-0.293 1.062-1.478-1.702-0.639 1.329-1.242-1.547-0.958 1.547-0.958-1.329-1.242 1.702-0.638-1.062-1.478 1.798-0.294-0.756-1.657 1.82 0.064-0.417-1.773 1.773 0.417-0.065-1.819 1.659 0.755 0.293-1.798 1.478 1.063 0.638-1.703 1.242 1.33 0.958-1.547 0.958 1.547 1.242-1.33 0.638 1.703 1.478-1.063 0.294 1.798 1.657-0.755-0.064 1.819 1.773-0.417-0.416 1.773 1.819-0.064-0.755 1.657 1.798 0.294-1.062 1.478 1.702 0.638-1.33 1.242z"></path>
</svg>
