<!-- Generated by IcoMoon.io -->
<svg version="1.1" xmlns="http://www.w3.org/2000/svg" width="32" height="32" viewBox="0 0 32 32">
<title>svelte</title>
<path fill="#ff3e00" d="M29.945 4.231c-3.556-4.258-10.633-5.505-15.723-2.821l-8.971 4.773c-2.446 1.275-4.142 3.362-4.632 5.722-0.11 0.483-0.172 1.038-0.172 1.608 0 1.552 0.466 2.995 1.266 4.197l-0.017-0.028c-0.782 0.977-1.304 2.061-1.532 3.2-0.521 2.413 0.162 4.908 1.858 6.888 3.589 4.257 10.635 5.505 15.724 2.821l8.969-4.747c2.446-1.274 4.143-3.362 4.633-5.722 0.109-0.483 0.172-1.037 0.172-1.606 0-1.552-0.466-2.996-1.267-4.198l0.017 0.028c0.782-0.975 1.305-2.061 1.534-3.2 0.555-2.44-0.13-4.935-1.86-6.914z"></path>
<path fill="#fff" d="M13.342 28.177c-2.904 0.623-5.938-0.326-7.633-2.359-1.044-1.195-1.436-2.686-1.143-4.151 0.065-0.244 0.13-0.461 0.196-0.705l0.164-0.434 0.456 0.271c1.077 0.652 2.252 1.139 3.524 1.465l0.326 0.081-0.033 0.273c-0.032 0.379 0.098 0.786 0.359 1.111 0.521 0.623 1.435 0.922 2.316 0.732 0.196-0.055 0.391-0.108 0.555-0.19l8.937-4.745c0.457-0.244 0.75-0.597 0.849-1.031 0.019-0.088 0.029-0.188 0.029-0.291 0-0.366-0.134-0.701-0.357-0.957l0.002 0.002c-0.521-0.625-1.435-0.896-2.316-0.705-0.196 0.053-0.391 0.108-0.555 0.19l-3.425 1.817c-0.555 0.299-1.173 0.516-1.826 0.651-2.904 0.623-5.938-0.326-7.633-2.359-1.012-1.193-1.436-2.686-1.109-4.151 0.293-1.41 1.337-2.684 2.805-3.443l8.969-4.747c0.555-0.297 1.175-0.514 1.828-0.678 2.904-0.623 5.937 0.326 7.633 2.36 1.043 1.193 1.435 2.684 1.141 4.148-0.065 0.245-0.13 0.462-0.228 0.706l-0.164 0.434-0.456-0.271c-1.077-0.652-2.252-1.139-3.524-1.465l-0.326-0.081 0.032-0.271c0.002-0.031 0.003-0.066 0.003-0.102 0-0.385-0.136-0.737-0.363-1.012l0.002 0.003c-0.521-0.623-1.435-0.895-2.316-0.705-0.196 0.055-0.391 0.108-0.555 0.19l-8.939 4.745c-0.456 0.244-0.75 0.597-0.847 1.031-0.098 0.434 0.032 0.895 0.326 1.247 0.521 0.625 1.435 0.895 2.316 0.705 0.196-0.053 0.391-0.108 0.555-0.19l3.425-1.817c0.555-0.299 1.173-0.516 1.826-0.678 2.904-0.623 5.938 0.326 7.633 2.359 1.044 1.195 1.436 2.686 1.143 4.151-0.294 1.41-1.338 2.684-2.805 3.443l-8.971 4.747c-0.525 0.279-1.133 0.512-1.773 0.667l-0.054 0.011z"></path>
</svg>
