<!-- Generated by IcoMoon.io -->
<svg version="1.1" xmlns="http://www.w3.org/2000/svg" width="260" height="32" viewBox="0 0 260 32">
<title>theia</title>
<path d="M218.551 2.086c0 0 1.207 0 1.709 0.375 0 0 0.506 0.375 0.896 1.522l8.433 25.041c0 0 0.117 0.316 0.021 0.575 0 0-0.098 0.256-0.527 0.256h-3.575c0 0-0.427 0-0.68-0.098 0 0-0.254-0.098-0.408-0.533l-1.709-5.419h-9.873l-1.711 5.377c0 0-0.117 0.357-0.329 0.515 0 0-0.215 0.158-0.68 0.158h-3.576c0 0-0.427 0-0.544-0.256 0 0-0.115-0.259 0-0.575l8.393-25.041c0 0 0.196-0.593 0.39-0.948 0 0 0.196-0.357 0.486-0.554 0 0 0.294-0.199 0.681-0.298 0 0 0.388-0.098 0.932-0.098h1.672zM217.813 7.428h-0.194l-1.594 5.494-2.020 6.757h7.462l-2.020-6.641-1.634-5.61z"></path>
<path d="M138.292 2.162c0 0 0.544 0 0.738 0.14 0 0 0.193 0.137 0.193 0.691v10.258h12.089v-10.258c0 0 0-0.515 0.216-0.673 0 0 0.214-0.158 0.679-0.158h2.961c0 0 0.544 0 0.72 0.14 0 0 0.175 0.137 0.175 0.691v26.032c0 0 0 0.554-0.175 0.694 0 0-0.176 0.137-0.72 0.137h-2.961c0 0-0.465 0-0.679-0.158 0 0-0.216-0.158-0.216-0.673v-11.625h-12.089v11.625c0 0 0 0.554-0.193 0.694 0 0-0.193 0.137-0.738 0.137h-2.951c0 0-0.427 0-0.659-0.158 0 0-0.234-0.158-0.234-0.673l-0-26.032c0 0 0-0.515 0.234-0.673 0 0 0.232-0.158 0.659-0.158h2.951z"></path>
<path d="M126.448 2.162c0 0 0.427 0 0.565 0.158 0 0 0.135 0.16 0.135 0.595v2.737c0 0 0 0.396-0.135 0.554 0 0-0.137 0.158-0.565 0.158h-7.382v22.662c0 0 0 0.554-0.176 0.694 0 0-0.175 0.137-0.72 0.137h-3.037c0 0-0.466 0-0.679-0.158 0 0-0.214-0.158-0.214-0.673v-22.662h-7.23c0 0-0.427 0-0.544-0.158 0 0-0.117-0.158-0.117-0.554l-0-2.737c0 0 0-0.435 0.117-0.595 0 0 0.117-0.158 0.544-0.158h19.438z"></path>
<path d="M77.217 1.997c7.59 0 13.738 6.257 13.738 13.982 0 7.72-6.148 13.982-13.738 13.982h-30.283c-1.083 0-1.96-0.893-1.96-1.995s0.878-1.995 1.96-1.995h7.056c1.078 0 1.955-0.893 1.955-1.995s-0.878-1.995-1.955-1.995h-1.57c-1.083 0-1.96-0.893-1.96-1.995s0.878-1.995 1.96-1.995h4.706c1.089-0.003 1.933-0.906 1.96-1.995 0-1.102-0.878-1.995-1.96-1.995h-16.468c-1.083 0-1.96-0.893-1.96-1.995s0.878-1.995 1.96-1.995h12.152c1.089-0.003 1.933-0.906 1.96-1.995 0-1.102-0.878-1.995-1.96-1.995h-2.74c-1.083 0-1.96-0.893-1.96-1.995s0.878-2.047 1.96-2.047l27.148 0.021zM75.021 6.656c-4.218 0-7.631 3.479-7.631 7.767v3.108c0 4.293 3.413 7.767 7.631 7.767 4.213 0 7.631-3.473 7.631-7.767v-3.108c0-4.288-3.418-7.767-7.631-7.767zM77.628 13.999c1.016 0 1.842 0.841 1.842 1.875v0.24c0 1.034-0.826 1.875-1.842 1.875h-5.727c-1.016 0-1.842-0.841-1.842-1.875v-0.24c0-1.034 0.826-1.875 1.842-1.875h5.727z"></path>
<path d="M40.776 25.971c1.021 0 1.842 0.836 1.842 1.875v0.24c0 1.034-0.821 1.875-1.842 1.875h-6.779c-1.016 0-1.842-0.841-1.842-1.875v-0.24c0-1.039 0.826-1.875 1.842-1.875h6.779z"></path>
<path d="M183.54 2.136c0 0 0.504 0 0.641 0.22 0 0 0.135 0.217 0.135 0.691v2.496c0 0 0 0.515-0.135 0.694 0 0-0.137 0.179-0.641 0.179h-10.338c0 0-1.478 0-2.081 0.671 0 0-0.6 0.673-0.6 1.937v4.15h11.735c0 0 0.506 0 0.644 0.199 0 0 0.135 0.197 0.135 0.748v2.172c0 0 0 0.474-0.135 0.689 0 0-0.137 0.217-0.644 0.217h-11.735v5.781c0 0 0 1.266 0.641 1.919 0 0 0.641 0.655 2.040 0.655h10.57c0 0 0.544 0 0.682 0.197 0 0 0.135 0.197 0.135 0.751v2.447c0 0 0 0.435-0.155 0.671 0 0-0.155 0.238-0.661 0.238h-11.076c0 0-2.060 0-3.383-0.593 0 0-1.323-0.593-2.121-1.582 0 0-0.799-0.989-1.109-2.255 0 0-0.313-1.263-0.313-2.648v-13.523c0 0 0-1.385 0.369-2.669 0 0 0.371-1.287 1.208-2.276 0 0 0.837-0.986 2.16-1.582 0 0 1.325-0.593 3.19-0.593h10.844z"></path>
<path d="M197.212 2.162c0 0 0.542 0 0.738 0.14 0 0 0.194 0.137 0.194 0.691v26.032c0 0 0 0.554-0.194 0.694 0 0-0.196 0.137-0.738 0.137h-2.952c0 0-0.465 0-0.678-0.158 0 0-0.215-0.158-0.215-0.673v-26.032c0 0 0-0.515 0.215-0.673 0 0 0.213-0.158 0.678-0.158h2.952z"></path>
<path d="M43.916 2.029c1.016 0 1.837 0.841 1.837 1.875v0.245c0 1.034-0.821 1.87-1.837 1.87h-7.569c-1.016 0-1.842-0.836-1.842-1.87v-0.245c0-1.034 0.826-1.875 1.842-1.875h7.569z"></path>
<path d="M46.267 17.99c1.016 0 1.842 0.841 1.842 1.875v0.24c0 1.034-0.826 1.875-1.842 1.875h-4.157c-1.016 0-1.842-0.841-1.842-1.875v-0.24c0-1.034 0.826-1.875 1.842-1.875h4.157z"></path>
</svg>
