<!-- Generated by IcoMoon.io -->
<svg version="1.1" xmlns="http://www.w3.org/2000/svg" width="32" height="32" viewBox="0 0 32 32">
<title>ts</title>
<path fill="#3178c6" d="M28.875 0h-25.749c-1.726 0-3.125 1.399-3.125 3.125v0 25.749c0 1.726 1.399 3.125 3.125 3.125v0h25.749c1.726 0 3.125-1.399 3.125-3.125v0-25.749c0-1.726-1.399-3.125-3.125-3.125v0z"></path>
<path fill="#fff" d="M19.809 25.465l-0.008-0.007c1.043 0.889 2.394 1.428 3.872 1.434 0.397 0 0.744-0.036 1.041-0.109l0.016-0.003c0.265-0.059 0.514-0.162 0.728-0.293l0.006-0.003c0.178-0.11 0.328-0.261 0.439-0.447l-0.003 0.006c0.095-0.173 0.15-0.373 0.15-0.585 0-0.27-0.088-0.519-0.234-0.717-0.156-0.216-0.37-0.414-0.641-0.596-0.27-0.183-0.591-0.359-0.964-0.529-0.371-0.169-0.772-0.341-1.203-0.519-1.095-0.455-1.912-1.012-2.45-1.671-0.538-0.658-0.807-1.453-0.807-2.386 0-0.73 0.147-1.357 0.441-1.882 0.293-0.525 0.692-0.956 1.197-1.295l-0.020 0.012c0.523-0.347 1.11-0.606 1.776-0.76 0.665-0.16 1.369-0.239 2.113-0.239l-0.006 0c0.040-0 0.080-0.001 0.12-0.001 0.645 0 1.278 0.048 1.827 0.132l0.043 0.005c0.544 0.084 1.069 0.226 1.517 0.401v2.923c-0.235-0.162-0.491-0.306-0.768-0.43-0.276-0.123-0.562-0.225-0.856-0.308l0.046 0.011c-0.555-0.159-1.14-0.246-1.748-0.251-0.358 0-0.685 0.034-0.978 0.103s-0.542 0.165-0.743 0.288c-0.203 0.124-0.359 0.273-0.471 0.446l0.003-0.004c-0.107 0.165-0.169 0.361-0.169 0.572 0 0.004 0 0.009 0 0.013v-0.001c-0 0.006-0 0.011-0 0.017 0 0.23 0.070 0.443 0.186 0.616l0.005 0.007c0.142 0.2 0.317 0.375 0.524 0.521l-0.017-0.011c0.256 0.184 0.528 0.347 0.848 0.501l-0.111-0.050c0.358 0.177 0.721 0.343 1.217 0.544l0.081 0.030c0.514 0.216 1.010 0.466 1.429 0.716l0.025 0.014c0.413 0.243 0.791 0.54 1.124 0.882 0.32 0.332 0.564 0.711 0.735 1.138 0.169 0.427 0.254 0.924 0.254 1.491 0 0.782-0.148 1.439-0.444 1.97-0.296 0.532-0.699 0.962-1.209 1.292-0.507 0.329-1.1 0.565-1.775 0.709-0.674 0.143-1.387 0.215-2.137 0.215-0.769 0-1.502-0.065-2.196-0.196s-1.295-0.326-1.804-0.587v-3.129zM14.548 17.755v11.432h-3.18v-11.432h-3.994v-2.567h11.188v2.567h-4.013z"></path>
</svg>
