<!-- Generated by IcoMoon.io -->
<svg version="1.1" xmlns="http://www.w3.org/2000/svg" width="32" height="32" viewBox="0 0 32 32">
<title>twitter</title>
<path d="M0 16c0-8.836 7.164-16 16-16s16 7.164 16 16-7.164 16-16 16-16-7.164-16-16zM15.52 13.005l0.035 0.553-0.56-0.067c-2.037-0.261-3.816-1.143-5.327-2.623l-0.739-0.733-0.191 0.541c-0.403 1.209-0.147 2.485 0.693 3.344 0.448 0.475 0.347 0.543-0.425 0.26-0.268-0.091-0.503-0.157-0.525-0.124-0.079 0.080 0.191 1.107 0.403 1.515 0.291 0.564 0.884 1.117 1.533 1.445l0.548 0.26-0.648 0.012c-0.627 0-0.649 0.011-0.583 0.248 0.224 0.733 1.108 1.515 2.093 1.853l0.693 0.237-0.604 0.361c-0.896 0.52-1.947 0.813-3 0.836-0.503 0.011-0.917 0.056-0.917 0.091 0 0.113 1.365 0.747 2.16 0.993 2.384 0.735 5.215 0.419 7.341-0.836 1.511-0.892 3.023-2.667 3.727-4.384 0.381-0.915 0.761-2.587 0.761-3.389 0-0.52 0.033-0.587 0.66-1.208 0.369-0.363 0.717-0.757 0.784-0.871 0.112-0.213 0.101-0.213-0.471-0.023-0.951 0.339-1.085 0.293-0.615-0.213 0.347-0.363 0.76-1.017 0.76-1.211 0-0.033-0.167 0.023-0.357 0.125-0.276 0.139-0.602 0.27-0.941 0.373l-0.044 0.011-0.604 0.192-0.548-0.373c-0.303-0.203-0.728-0.429-0.952-0.497-0.571-0.157-1.443-0.135-1.959 0.045-1.399 0.509-2.283 1.82-2.181 3.253z"></path>
</svg>
