<!-- Generated by IcoMoon.io -->
<svg version="1.1" xmlns="http://www.w3.org/2000/svg" width="92" height="32" viewBox="0 0 92 32">
<title>uber</title>
<path d="M5.3 22.854c0.389 1.034 0.928 1.918 1.617 2.652 0.671 0.716 1.487 1.287 2.402 1.668l0.046 0.017c0.943 0.389 1.969 0.584 3.077 0.584 0.016 0 0.034 0 0.053 0 1.076 0 2.1-0.223 3.028-0.626l-0.049 0.019c0.965-0.416 1.787-0.993 2.468-1.704l0.003-0.003c0.697-0.734 1.253-1.609 1.621-2.577l0.018-0.053c0.39-1.018 0.584-2.158 0.584-3.416v-19.415h4.717v31.461h-4.671v-2.923c-1.021 1.080-2.254 1.947-3.635 2.535l-0.071 0.027c-1.422 0.599-2.957 0.899-4.603 0.899-1.678 0-3.242-0.292-4.693-0.877-1.473-0.592-2.729-1.437-3.773-2.493l-0.001-0.001c-1.063-1.079-1.901-2.375-2.514-3.889s-0.921-3.198-0.921-5.055v-19.685h4.717v19.416c0 1.258 0.194 2.405 0.584 3.438zM33.012 0v11.461c1.022-1.022 2.227-1.861 3.563-2.463l0.076-0.031c1.377-0.615 2.875-0.921 4.492-0.921 1.678 0 3.248 0.314 4.717 0.944 1.483 0.635 2.75 1.499 3.818 2.562l-0-0c1.062 1.069 1.926 2.337 2.53 3.742l0.030 0.078c0.629 1.467 0.944 3.025 0.944 4.674s-0.314 3.198-0.944 4.651c-0.638 1.475-1.501 2.735-2.56 3.799l0-0c-1.068 1.063-2.335 1.927-3.739 2.532l-0.078 0.030c-1.468 0.628-3.040 0.944-4.717 0.944-1.617 0-3.121-0.307-4.514-0.921-1.42-0.629-2.634-1.469-3.661-2.495l0 0v2.877h-4.492v-31.461h4.536zM33.529 23.147c0.414 0.978 0.983 1.814 1.684 2.516l-0-0c0.705 0.704 1.539 1.279 2.463 1.687l0.052 0.020c0.896 0.398 1.941 0.631 3.040 0.631 0.021 0 0.042-0 0.062-0l-0.003 0c0.011 0 0.025 0 0.038 0 1.091 0 2.128-0.232 3.064-0.649l-0.048 0.019c0.97-0.424 1.797-1 2.491-1.707l0.001-0.001c0.691-0.709 1.258-1.543 1.663-2.464l0.021-0.053c0.398-0.896 0.63-1.941 0.63-3.040 0-0.021-0-0.043-0-0.064l0 0.003c0-0.015 0-0.032 0-0.049 0-1.11-0.232-2.167-0.649-3.123l0.020 0.050c-0.422-0.984-0.989-1.826-1.685-2.543l0.002 0.002c-0.693-0.705-1.521-1.274-2.444-1.666l-0.050-0.019c-0.889-0.384-1.924-0.607-3.012-0.607-0.015 0-0.030 0-0.045 0h0.002c-0.013-0-0.028-0-0.043-0-1.087 0-2.122 0.223-3.062 0.626l0.051-0.019c-0.978 0.414-1.813 0.983-2.515 1.685l0-0c-0.707 0.711-1.282 1.553-1.687 2.486l-0.020 0.052c-0.397 0.906-0.629 1.961-0.629 3.071 0 0.018 0 0.037 0 0.055v-0.003c0 1.109 0.202 2.143 0.606 3.101zM55.739 15.415c0.614-1.47 1.448-2.729 2.475-3.802l-0.004 0.004c1.035-1.076 2.274-1.948 3.655-2.555l0.074-0.029c1.437-0.629 2.994-0.944 4.671-0.944 1.647 0 3.174 0.3 4.581 0.899 1.421 0.604 2.631 1.447 3.635 2.491l0.003 0.004c1.018 1.064 1.812 2.322 2.381 3.775 0.569 1.454 0.853 3.034 0.853 4.742v1.484h-18.639c0.306 1.869 1.239 3.48 2.573 4.644l0.009 0.008c0.651 0.566 1.409 1.029 2.238 1.352l0.052 0.018c0.853 0.33 1.76 0.495 2.718 0.495 2.725 0 4.926-1.124 6.603-3.371l3.279 2.427c-1.114 1.497-2.526 2.709-4.155 3.564l-0.067 0.032c-1.678 0.869-3.564 1.303-5.659 1.303-1.707 0-3.302-0.301-4.784-0.899-1.502-0.606-2.786-1.458-3.865-2.519l0.002 0.002c-1.071-1.060-1.942-2.32-2.552-3.72l-0.030-0.077c-0.628-1.454-0.944-3.034-0.944-4.742 0-1.617 0.3-3.146 0.898-4.584zM62.050 13.641c-1.272 1.064-2.118 2.479-2.538 4.247h13.969c-0.39-1.768-1.221-3.184-2.493-4.247s-2.763-1.596-4.469-1.596c-1.707 0-3.196 0.532-4.469 1.596zM86.551 14.158c-0.958 1.048-1.437 2.472-1.437 4.27v13.033h-4.536v-22.92h4.492v2.832c0.556-0.911 1.305-1.653 2.194-2.185l0.029-0.016c0.912-0.54 1.998-0.81 3.256-0.81h1.571v4.224h-1.885c-1.497 0-2.725 0.525-3.684 1.574z"></path>
</svg>
