<!-- Generated by IcoMoon.io -->
<svg version="1.1" xmlns="http://www.w3.org/2000/svg" width="32" height="32" viewBox="0 0 32 32">
<title>viber</title>
<path d="M0 15.72v16.28l15.987-0.016c8.68 0 15.72-7.309 15.72-15.989s-7.047-15.995-15.717-15.995c-8.68 0-15.989 7.039-15.989 15.72zM7.773 10.845c1.73-2.869 4.829-4.758 8.369-4.76h0.010c5.381 0.001 9.743 4.363 9.743 9.744s-4.363 9.744-9.744 9.744c-1.451 0-2.829-0.317-4.066-0.886l0.061 0.025-6.332 1.432 1.764-5.671c-0.74-1.341-1.175-2.939-1.175-4.64 0-1.841 0.51-3.562 1.397-5.031l-0.024 0.044z"></path>
</svg>
