<svg fill="none" xmlns="http://www.w3.org/2000/svg" viewBox="0 0 86 26"><g clip-path="url(#clip0_1:766)" fill-rule="evenodd" clip-rule="evenodd"><path d="M53.353 20.333C48.355 24.028 41.11 26 34.875 26c-8.745 0-16.618-3.245-22.574-8.642-.468-.424-.049-1.002.513-.672 6.428 3.752 14.375 6.01 22.585 6.01 5.536 0 11.627-1.15 17.227-3.535.846-.36 1.554.556.727 1.172z" fill="#F90"/><path d="M55.43 17.948c-.636-.819-4.222-.387-5.832-.195-.49.06-.565-.368-.124-.676 2.857-2.017 7.544-1.435 8.09-.759.547.68-.142 5.393-2.826 7.643-.412.345-.805.161-.622-.297.603-1.51 1.955-4.894 1.314-5.716z" fill="#F90"/><path d="M49.71 2.84V.878c0-.297.225-.496.494-.496h8.75c.28 0 .504.203.504.496v1.679c-.003.281-.24.65-.658 1.232l-4.534 6.493c1.685-.041 3.463.21 4.99 1.074.345.195.438.48.465.763v2.091c0 .286-.315.62-.644.447-2.692-1.415-6.267-1.57-9.243.015-.303.166-.622-.165-.622-.45v-1.987c0-.32.004-.864.322-1.348l5.252-7.557h-4.57c-.281 0-.506-.199-.506-.492zM17.797 15.071h-2.662a.503.503 0 01-.475-.454V.913a.5.5 0 01.512-.492h2.482c.259.01.465.21.483.458V2.67h.05C18.833.94 20.05.131 21.69.131c1.666 0 2.707.808 3.455 2.54C25.79.938 27.253.13 28.821.13c1.116 0 2.336.462 3.081 1.499.843 1.153.67 2.828.67 4.296l-.003 8.65a.503.503 0 01-.513.495h-2.658a.507.507 0 01-.48-.496V7.312c0-.578.053-2.02-.074-2.569-.199-.92-.794-1.179-1.565-1.179-.644 0-1.318.432-1.59 1.123-.274.69-.248 1.848-.248 2.625v7.263a.503.503 0 01-.513.496H22.27a.504.504 0 01-.479-.496l-.004-7.263c0-1.528.251-3.778-1.64-3.778-1.912 0-1.837 2.193-1.837 3.778v7.263a.503.503 0 01-.513.496M66.99.131c3.95 0 6.087 3.403 6.087 7.73 0 4.18-2.362 7.496-6.087 7.496-3.878 0-5.99-3.403-5.99-7.643C61 3.448 63.139.13 66.99.13zm.023 2.798c-1.962 0-2.085 2.682-2.085 4.353 0 1.675-.026 5.25 2.062 5.25 2.063 0 2.16-2.884 2.16-4.642 0-1.156-.048-2.538-.396-3.635-.3-.954-.895-1.326-1.741-1.326zM78.198 15.071h-2.65a.507.507 0 01-.48-.496L75.066.867a.504.504 0 01.513-.446h2.467a.51.51 0 01.475.383v2.095h.05c.744-1.874 1.789-2.768 3.627-2.768 1.194 0 2.358.432 3.107 1.615C86 2.843 86 4.686 86 6.013v8.626a.512.512 0 01-.513.432h-2.669a.505.505 0 01-.472-.432V7.196c0-1.499.172-3.692-1.666-3.692-.647 0-1.242.436-1.538 1.097-.374.837-.423 1.67-.423 2.595v7.38a.513.513 0 01-.52.495M42.736 8.525c0 1.04.026 1.908-.498 2.832-.423.751-1.097 1.213-1.842 1.213-1.022 0-1.62-.781-1.62-1.934 0-2.276 2.032-2.69 3.96-2.69v.58zm2.684 6.509a.554.554 0 01-.629.063c-.883-.736-1.044-1.077-1.527-1.78-1.46 1.495-2.497 1.942-4.388 1.942-2.242 0-3.983-1.386-3.983-4.161 0-2.167 1.168-3.643 2.838-4.364 1.445-.639 3.463-.751 5.005-.928v-.345c0-.635.049-1.386-.326-1.934-.322-.492-.943-.695-1.493-.695-1.015 0-1.917.522-2.138 1.603-.045.24-.22.477-.464.489l-2.58-.278c-.216-.05-.46-.226-.396-.56C35.93.946 38.76 0 41.29 0c1.295 0 2.987.346 4.01 1.33 1.295 1.213 1.171 2.831 1.171 4.593v4.16c0 1.251.517 1.8 1.003 2.476.169.24.206.53-.01.71-.544.454-1.51 1.299-2.041 1.772l-.004-.007M7.843 8.525c0 1.04.026 1.908-.498 2.832-.423.751-1.093 1.213-1.842 1.213-1.022 0-1.617-.781-1.617-1.934 0-2.276 2.033-2.69 3.957-2.69v.58zm2.684 6.509a.554.554 0 01-.63.063c-.883-.736-1.04-1.077-1.526-1.78-1.46 1.495-2.494 1.942-4.388 1.942C1.744 15.259 0 13.873 0 11.098 0 8.93 1.172 7.455 2.838 6.734c1.445-.639 3.462-.751 5.005-.928v-.345c0-.635.048-1.386-.322-1.934-.326-.492-.947-.695-1.494-.695-1.014 0-1.92.522-2.141 1.603-.045.24-.221.477-.46.489L.841 4.646c-.217-.05-.456-.226-.397-.56C1.041.946 3.867 0 6.398 0c1.295 0 2.987.346 4.009 1.33 1.295 1.213 1.172 2.831 1.172 4.593v4.16c0 1.251.516 1.8 1.003 2.476.172.24.21.53-.008.71-.542.454-1.508 1.299-2.04 1.772l-.007-.007" fill="#000"/></g><defs><clipPath id="clip0_1:766"><path fill="#fff" d="M0 0h86v26H0z"/></clipPath></defs></svg>