<svg fill="none" xmlns="http://www.w3.org/2000/svg" viewBox="0 0 77 24"><path d="M25.631 13.361l-1.354-4.176.001.006-.001-.007L21.588.896A1.06 1.06 0 0020.572.17c-.465.003-.858.29-1.002.733l-2.552 7.866H8.966L6.409.902A1.045 1.045 0 005.406.17h-.005c-.458 0-.864.292-1.013.733l-2.68 8.28-.001.001-.002.007.002-.006-1.36 4.176A1.524 1.524 0 00.9 15.067l11.736 8.538.006.003c.005.004.01.008.015.01-.005-.002-.01-.006-.014-.01l.002.002.002.001a.582.582 0 00.057.035l.008.005.005.003.003.002h.003l.007.004.031.013.03.012h.001l.005.003.006.002h.003l.008.002.003.001c.014.004.029.008.043.01l.017.005h.003l.005.002.01.002h.008a.604.604 0 00.085.007h.001a.607.607 0 00.084-.007h.01l.009-.002.005-.002h.003l.017-.004.043-.01.003-.002c.003 0 .005 0 .008-.002h.003l.006-.002.005-.002.001-.001.031-.013.03-.012.007-.003.002-.001.004-.002c.002 0 .004-.002.005-.003l.008-.005a.596.596 0 00.057-.034l.004-.003h.001l.006-.004 11.738-8.539a1.521 1.521 0 00.552-1.705zM20.58 1.673l2.302 7.096h-4.604l2.302-7.096zm1.899 8.296l-.94 1.205-6.928 8.889 3.277-10.094h4.59zm-10.06 13.336l.002.005-.002-.005zm-1.051-3.242L3.504 9.97h4.591l3.273 10.094zM5.399 1.673l2.306 7.096H3.101L5.4 1.673zM1.604 14.096a.324.324 0 01-.117-.364l1.01-3.104 7.404 9.504-8.297-6.036zm11.012 9.493l-.007-.006-.002-.001a.73.73 0 01-.038-.035l.002.002.003.002a.61.61 0 00.054.047c.002 0 .002.002.003.002l-.015-.011zm.373-2.412l-1.926-5.94L9.355 9.97h7.273l-3.64 11.208zm.394 2.393l-.013.012-.002.001-.007.006-.015.012.002-.003a.577.577 0 00.055-.046l.002-.002.003-.002a.582.582 0 01-.025.022zm10.991-9.474L16.08 20.13l7.406-9.501 1.006 3.103a.325.325 0 01-.117.364zM54.01 5.891h-1.635l.007 12.21h6.626v-1.51h-4.99l-.007-10.7zM65.314 15.958a2.79 2.79 0 01-2.026.856c-1.246 0-1.749-.616-1.749-1.42 0-1.21.84-1.788 2.626-1.788.338 0 .878.038 1.156.09v2.262h-.007zm-1.696-7.4c-1.321 0-2.537.465-3.482 1.254l.578 1.007c.668-.391 1.486-.782 2.664-.782 1.343 0 1.936.691 1.936 1.849v.593a7.45 7.45 0 00-1.133-.09c-2.867 0-4.323 1.007-4.323 3.11 0 1.886 1.156 2.833 2.904 2.833 1.178 0 2.311-.54 2.702-1.42l.3 1.195h1.156v-6.252c-.008-1.976-.864-3.298-3.302-3.298zM72.198 16.87c-.615 0-1.156-.075-1.561-.262v-5.643c.555-.466 1.246-.804 2.124-.804 1.583 0 2.19 1.12 2.19 2.93 0 2.57-.982 3.78-2.753 3.78zm.69-8.31c-1.463 0-2.251 1-2.251 1V7.982l-.008-2.088h-1.598l.008 11.908c.802.338 1.898.519 3.091.519 3.054 0 4.525-1.954 4.525-5.327-.007-2.668-1.366-4.433-3.767-4.433M36.2 7.216c1.448 0 2.386.48 2.993.969L39.9 6.96c-.953-.841-2.244-1.292-3.624-1.292-3.482 0-5.921 2.126-5.921 6.416 0 4.494 2.634 6.244 5.643 6.244a9.577 9.577 0 003.632-.706l-.038-4.801v-1.51h-4.465v1.51h2.852l.037 3.644c-.375.188-1.02.338-1.898.338-2.416 0-4.037-1.525-4.037-4.734-.008-3.268 1.666-4.853 4.12-4.853M47.72 5.89h-1.598l.007 2.05v7.086c0 1.976.856 3.298 3.294 3.298.338 0 .668-.03.983-.09V16.8a4.67 4.67 0 01-.742.053c-1.344 0-1.936-.692-1.936-1.849V10.12h2.678V8.782h-2.678L47.72 5.89zM42.057 18.1h1.598V8.784h-1.598V18.1zM42.057 7.499h1.598v-1.6h-1.598v1.6z" fill="#231F20"/></svg>