<svg aria-hidden="true" style="position:absolute;width:0;height:0" xmlns="http://www.w3.org/2000/svg" overflow="hidden">
<defs>
<symbol id="amazon" viewBox="0 0 106 32"><path fill="var(--color1, #f90)" d="M65.665 25.025C59.514 29.573 50.597 32 42.923 32 32.16 32 22.47 28.006 15.14 21.364c-.576-.522-.06-1.233.631-.827 7.911 4.618 17.692 7.397 27.797 7.397 6.814 0 14.31-1.415 21.202-4.351 1.041-.443 1.913.684.895 1.442z"/><path fill="var(--color1, #f90)" d="M68.222 22.09c-.783-1.008-5.196-.476-7.178-.24-.603.074-.695-.453-.153-.832 3.516-2.482 9.285-1.766 9.957-.934.673.837-.175 6.638-3.478 9.407-.507.425-.991.198-.766-.366.742-1.858 2.406-6.023 1.617-7.035z"/><path fill="var(--color2, #000)" d="M61.182 3.493c0 .361.277.606.623.606h5.625L60.966 13.4c-.391.596-.396 1.265-.396 1.659v2.446c0 .351.393.758.766.554 3.663-1.951 8.063-1.76 11.376-.018.405.213.793-.198.793-.55v-2.574c-.033-.348-.148-.699-.572-.939-1.879-1.063-4.068-1.372-6.142-1.322l5.58-7.991c.514-.716.806-1.17.81-1.516V1.083a.6.6 0 0 0-.62-.61H61.792a.595.595 0 0 0-.608.61v2.415zM21.904 18.549h-.001.013a.62.62 0 0 0 .619-.611V8.999c0-1.951-.092-4.65 2.261-4.65 2.327 0 2.018 2.769 2.018 4.65l.005 8.939a.622.622 0 0 0 .59.61h3.284a.62.62 0 0 0 .619-.611V8.998c0-.956-.032-2.382.305-3.231.335-.85 1.164-1.382 1.957-1.382.949 0 1.681.319 1.926 1.451.156.676.091 2.45.091 3.162v8.938a.625.625 0 0 0 .591.61h3.284a.619.619 0 0 0 .619-.609l.004-10.646c0-1.807.213-3.868-.825-5.287C38.347.728 36.846.159 35.472.159c-1.93 0-3.73.994-4.524 3.127C30.027 1.154 28.746.16 26.696.16c-2.018 0-3.516.996-4.311 3.125h-.062V1.081a.616.616 0 0 0-.594-.564h-3.07c-.336 0-.61.27-.615.606v16.869c.03.302.277.54.584.556h3.276zM82.449.161c4.862 0 7.492 4.188 7.492 9.514 0 5.145-2.907 9.226-7.492 9.226-4.773 0-7.372-4.188-7.372-9.407 0-5.25 2.633-9.334 7.372-9.334zm.029 3.444c-2.415 0-2.566 3.301-2.566 5.358 0 2.062-.032 6.462 2.538 6.462 2.539 0 2.658-3.55 2.658-5.713 0-1.423-.059-3.124-.487-4.474-.369-1.174-1.102-1.632-2.143-1.632zm13.767 14.944h.009c.341 0 .619-.27.631-.609V8.857c0-1.138.06-2.164.521-3.194.364-.814 1.097-1.35 1.893-1.35 2.262 0 2.05 2.699 2.05 4.544v9.164a.622.622 0 0 0 .581.528H105.223a.631.631 0 0 0 .622-.532V7.4c0-1.633 0-3.902-.855-5.252C104.068.692 102.636.16 101.166.16c-2.262 0-3.548 1.1-4.464 3.407h-.062V.989l-.001-.004a.63.63 0 0 0-.584-.467h-3.052a.622.622 0 0 0-.616.549l.002 16.871v.001a.625.625 0 0 0 .591.61h3.262zm-43.647-8.055V9.78c-2.373 0-4.874.51-4.874 3.311 0 1.419.736 2.38 1.994 2.38.917 0 1.746-.569 2.267-1.493.645-1.137.613-2.206.613-3.486zm3.304 8.009a.677.677 0 0 1-.778.075l.003.002c-1.087-.906-1.285-1.326-1.879-2.191-1.797 1.84-3.073 2.39-5.401 2.39-2.759 0-4.902-1.706-4.902-5.121 0-2.667 1.438-4.484 3.493-5.371 1.778-.786 4.262-.924 6.16-1.142V6.72c0-.782.06-1.706-.401-2.38-.396-.606-1.161-.855-1.838-.855-1.249 0-2.359.642-2.631 1.973-.055.295-.271.587-.571.602l-3.175-.342c-.266-.062-.566-.278-.487-.689C44.222 1.164 47.705 0 50.819 0c1.594 0 3.676.426 4.935 1.637 1.594 1.493 1.441 3.484 1.441 5.653v5.12c0 1.54.636 2.215 1.234 3.047.208.295.254.652-.012.874a132.43 132.43 0 0 0-2.512 2.181l-.005-.009zM9.653 10.494V9.78c-2.368 0-4.87.51-4.87 3.311 0 1.419.732 2.38 1.99 2.38.922 0 1.746-.569 2.267-1.493.645-1.137.613-2.206.613-3.486zm3.303 8.009a.677.677 0 0 1-.778.076l.003.002c-1.087-.906-1.28-1.326-1.878-2.191-1.797 1.84-3.07 2.39-5.401 2.39C2.146 18.78 0 17.074 0 13.659c0-2.668 1.442-4.484 3.493-5.371 1.778-.786 4.261-.924 6.16-1.142v-.425c0-.782.059-1.706-.396-2.38-.401-.606-1.166-.855-1.839-.855-1.248 0-2.363.642-2.635 1.973-.055.295-.272.587-.566.602l-3.182-.342C.768 5.657.474 5.441.546 5.03 1.281 1.165 4.759.001 7.874.001c1.594 0 3.676.426 4.934 1.637 1.594 1.493 1.442 3.484 1.442 5.653v5.12c0 1.54.635 2.215 1.234 3.047.212.295.258.652-.01.874-.667.559-1.856 1.599-2.511 2.181l-.009-.009z"/></symbol>
<symbol id="code" viewBox="0 0 72 32"><path fill="var(--color3, #4a4a4f)" d="M12.501 10.973c-.457-.858-1.006-1.47-1.707-1.9s-1.524-.644-2.469-.644c-1.25 0-2.318.46-3.171 1.379-.853.92-1.28 2.085-1.28 3.464s.427 2.514 1.31 3.433c.884.92 1.95 1.349 3.293 1.349 1.006 0 1.859-.214 2.53-.643s1.189-1.104 1.493-1.962h3.964c-.488 1.992-1.432 3.525-2.836 4.659-1.402 1.134-3.109 1.685-5.152 1.685-1.189 0-2.287-.214-3.293-.643a8.259 8.259 0 0 1-2.742-1.898l-.003-.003A8.38 8.38 0 0 1 .67 16.491 7.641 7.641 0 0 1 0 13.334c0-1.134.183-2.207.579-3.188a8.417 8.417 0 0 1 1.74-2.669l-.002.002c.853-.889 1.768-1.563 2.836-2.023a8.241 8.241 0 0 1 3.361-.705h.024-.001c1.95 0 3.659.552 5.122 1.685 1.433 1.134 2.379 2.636 2.836 4.536h-3.994zm37.287-4.444V0h3.69v21.394h-3.69v-1.318a8.783 8.783 0 0 1-2.316 1.318 8.275 8.275 0 0 1-2.653.43 8.152 8.152 0 0 1-2.866-.491c-.884-.337-1.707-.797-2.408-1.41-.975-.859-1.707-1.839-2.226-3.004s-.792-2.36-.792-3.648c0-1.195.244-2.329.731-3.432s1.158-2.054 2.042-2.851a7.433 7.433 0 0 1 2.45-1.577l.05-.017a8.104 8.104 0 0 1 2.966-.552h.055-.003c1.036 0 1.95.123 2.744.398a7.512 7.512 0 0 1 2.226 1.288zm-.152 6.835c0-1.379-.427-2.544-1.31-3.464s-1.951-1.379-3.262-1.379c-1.28 0-2.378.459-3.293 1.41S40.4 11.985 40.4 13.303c0 1.349.457 2.482 1.371 3.402s2.073 1.349 3.476 1.349c1.219 0 2.256-.459 3.11-1.379.823-.858 1.28-1.992 1.28-3.31zm9.848 1.134c.122 1.165.579 2.084 1.371 2.758s1.83 1.012 3.08 1.012c.853 0 1.586-.184 2.257-.521a4.373 4.373 0 0 0 1.575-1.454l.01-.017h4.025c-.67 1.746-1.707 3.125-3.049 4.107-1.371.981-2.927 1.47-4.726 1.47-1.189 0-2.286-.213-3.292-.643a7.849 7.849 0 0 1-2.709-1.895l-.005-.005a8.725 8.725 0 0 1-1.768-2.758 8.243 8.243 0 0 1-.641-3.187v-.001c0-1.134.183-2.176.579-3.188.396-.981.945-1.9 1.707-2.667a9.389 9.389 0 0 1 2.774-2.023c1.037-.459 2.104-.705 3.202-.705 1.403 0 2.683.306 3.903.95s2.225 1.532 3.079 2.697c.518.705.884 1.471 1.158 2.33.244.858.366 1.839.366 2.973v.797l-12.897-.03zm8.842-2.973c-.305-1.073-.853-1.9-1.616-2.452s-1.707-.858-2.866-.858c-.975 0-1.89.306-2.683.92s-1.31 1.41-1.586 2.39h8.75z"/><path fill="var(--color4, #e84610)" d="M18.11 13.242c0-1.134.213-2.207.61-3.25.427-1.011 1.006-1.931 1.799-2.728a7.962 7.962 0 0 1 2.692-1.85l.053-.019a7.906 7.906 0 0 1 3.152-.644h.02-.001c1.158 0 2.225.184 3.201.582s1.89.95 2.714 1.747a8.543 8.543 0 0 1 1.93 2.766l.021.055c.457 1.073.701 2.146.701 3.279 0 1.227-.183 2.36-.61 3.371-.396 1.012-1.006 1.931-1.799 2.759s-1.707 1.471-2.744 1.9a8.542 8.542 0 0 1-3.323.644c-1.22 0-2.318-.215-3.293-.644-1.006-.429-1.89-1.073-2.714-1.931a8.833 8.833 0 0 1-1.768-2.789c-.457-1.073-.641-2.115-.641-3.249zm3.842-.031c0 1.501.396 2.697 1.219 3.555.824.889 1.952 1.318 3.355 1.318 1.371 0 2.469-.46 3.293-1.349s1.219-2.085 1.219-3.617c0-1.349-.427-2.483-1.28-3.342s-1.952-1.318-3.232-1.318c-1.342 0-2.44.43-3.293 1.318s-1.28 2.024-1.28 3.433zm14.543 12.474v-.797h.792v.797h-.792zm.031 6.253v-4.874h.701v4.874h-.701zm5.792 0v-3.004c0-.858-.457-1.288-1.189-1.288s-1.189.43-1.189 1.288v3.004h-.702v-4.874h.701v.521c.335-.398.823-.582 1.371-.582.519 0 .946.152 1.251.459.335.338.488.797.488 1.349v3.127h-.731zm4.148.061c-.823 0-1.464-.184-1.982-.705l.488-.491c.396.398.914.552 1.493.552.793 0 1.281-.276 1.281-.858 0-.429-.244-.674-.792-.705l-.792-.061c-.946-.092-1.464-.491-1.464-1.318 0-.889.731-1.41 1.768-1.41.702 0 1.311.184 1.739.521l-.457.459c-.335-.276-.793-.398-1.281-.398-.701 0-1.097.306-1.097.797 0 .429.244.674.853.705l.792.061c.853.092 1.432.399 1.432 1.318 0 .981-.792 1.533-1.981 1.533zm4.816-.061c-.823 0-1.25-.583-1.25-1.318v-3.004h-.61v-.552h.61v-1.532h.701v1.532h1.036v.552h-1.036v2.974c0 .429.213.705.67.705h.366v.613l-.488.03zm2.073-6.253v-.797h.792v.797h-.792zm.031 6.253v-4.874h.701v4.874h-.701zm4.056 0c-.823 0-1.25-.583-1.25-1.318v-3.004h-.61v-.552h.61v-1.532h.701v1.532h1.037v.552h-1.036v2.974c0 .429.213.705.67.705h.366v.613l-.488.03zm5.152 0v-.552c-.335.398-.823.613-1.372.613-.518 0-.945-.152-1.25-.459-.336-.338-.488-.797-.488-1.379v-3.096h.701v3.004c0 .858.457 1.288 1.189 1.288s1.221-.43 1.221-1.288v-3.004h.701v4.874h-.701zm4.025 0c-.823 0-1.25-.583-1.25-1.318v-3.004h-.61v-.552h.61v-1.532h.701v1.532h1.037v.552h-1.036v2.974c0 .429.213.705.67.705h.366v.613l-.488.03zm2.469-2.237c0 1.073.488 1.686 1.433 1.686.549 0 .884-.184 1.28-.552l.488.429c-.488.49-.945.766-1.768.766-1.28 0-2.104-.766-2.104-2.482 0-1.563.762-2.483 1.981-2.483 1.251 0 1.982.92 1.982 2.36v.337l-3.293-.061zm2.409-1.349c-.183-.429-.61-.736-1.128-.736s-.945.276-1.128.736c-.122.276-.122.429-.152.797h2.56c-.03-.368-.03-.521-.152-.797z"/></symbol>
<symbol id="corb" viewBox="0 0 32 32"><path fill="var(--color5, #2684ff)" d="M1.038 0h-.021a.9.9 0 0 0-.414.1L.608.098a1.068 1.068 0 0 0-.361.296L.245.396a1.143 1.143 0 0 0-.208.422L.035.826a1.284 1.284 0 0 0-.024.504L.01 1.323l4.355 29.383c.066.372.239.705.488.94.249.236.559.362.876.354h20.879l.031.001a.899.899 0 0 0 .628-.255 1.25 1.25 0 0 0 .365-.697l.001-.007 4.353-29.713a1.316 1.316 0 0 0-.03-.506l.002.009a1.172 1.172 0 0 0-.21-.431l.002.003a1.085 1.085 0 0 0-.355-.295l-.006-.003a.9.9 0 0 0-.409-.097h-.023.001L1.037 0zm18.326 21.236H12.7l-1.805-10.483h10.086l-1.617 10.483z"/><path fill="var(--color2, #000)" d="M30.601 10.752H20.98l-1.614 10.484h-6.665L4.833 31.618c.255.243.57.375.897.375h20.885l.031.001a.899.899 0 0 0 .628-.255 1.25 1.25 0 0 0 .366-.703l2.962-20.285z"/></symbol>
<symbol id="dwave" viewBox="0 0 48 32"><path fill="var(--color6, #1d2329)" d="M30.275 16.272a1.476 1.476 0 0 1-.994.358h-2.825c-.386 0-.714-.122-.985-.358s-.411-.546-.411-.921v-.227c0-.359.14-.66.427-.904.288-.252.608-.375.969-.375h1.799v.847h-1.799a.53.53 0 0 0-.336.123.382.382 0 0 0-.156.309v.228c0 .285.164.424.492.424h2.825c.336 0 .501-.139.501-.424v-2.183c0-.115-.049-.212-.156-.301a.518.518 0 0 0-.345-.131h-4.139v-.847h4.157c.368 0 .703.143.952.376l-.001-.001c.288.252.427.554.427.904v2.183c0 .375-.131.684-.402.921zm5.678-.921c-.222.855-.682 1.279-1.396 1.279h-1.216c-.714 0-1.174-.423-1.396-1.279l-.895-3.462h.961l.862 3.3c.099.391.304.587.599.587h.953c.304 0 .517-.196.617-.587l.853-3.3h.961l-.903 3.462zm6.425-1.051a1.424 1.424 0 0 1-.969.374h-1.807v-.855h1.807a.535.535 0 0 0 .329-.122c.107-.09.165-.187.165-.301v-.228c0-.285-.165-.432-.493-.432h-2.833c-.329 0-.493.147-.493.432v2.174c0 .122.05.22.156.302.107.089.213.13.337.13h4.148v.847h-4.148c-.362 0-.681-.122-.969-.366-.287-.253-.427-.554-.427-.912v-2.174c0-.384.14-.685.411-.921s.599-.359.985-.359h2.833c.386 0 .715.123.986.35.27.236.411.546.411.929v.228c0 .35-.14.651-.427.904zm-28.887-.047a.567.567 0 0 1-.57.565h-.002a.568.568 0 0 1-.568-.565c0-.312.256-.565.57-.565s.57.254.57.566zm0-1.804a.567.567 0 0 1-.57.565h-.002a.568.568 0 0 1-.568-.565c0-.312.256-.565.57-.565s.57.252.57.565zm1.894 3.608c0 .312-.255.566-.57.566s-.569-.254-.569-.566.255-.565.569-.565c.315 0 .57.253.57.565z"/><path fill="var(--color7, #3875e1)" d="M15.385 14.253a.567.567 0 0 1-.57.565h-.002a.567.567 0 0 1-.567-.565.57.57 0 0 1 1.14 0z"/><path fill="var(--color6, #1d2329)" d="m20.182 15.343-.02.082c-.229.793-.679 1.186-1.366 1.186h-.627c-.712 0-1.169-.421-1.39-1.273l-.892-3.448h.957l.859 3.286c.099.39.303.584.597.584h.364c.303 0 .515-.192.614-.581 0 0 .222-.683.903-.691 0 0 .668-.064.898.663l.009.024z"/><path fill="var(--color6, #1d2329)" d="M21.089 15.174c.092.377.321.585.615.585h.364c.303 0 .515-.195.614-.585l.851-3.285h.956l-.899 3.448c-.221.852-.679 1.274-1.39 1.274h-.626c-.711 0-1.173-.425-1.394-1.277l.909-.16zM10.47 13.167c0-.114-.049-.212-.155-.302s-.211-.131-.334-.131H6.469v3.047h3.512c.325 0 .488-.139.488-.425v-2.188zm.496 3.112a1.445 1.445 0 0 1-.983.359h-4.4v-4.753h4.4c.358 0 .675.122.959.375s.423.556.423.907v2.188c0 .376-.13.686-.398.923zm-5.338 1.622h1.394v.212h-.581v1.444H6.2v-1.443h-.572v-.213zm1.581 0h.217v.705a.424.424 0 0 1 .34-.165c.073 0 .139.018.197.054s.101.087.13.151a.75.75 0 0 1 .042.286v.624h-.217V18.865a.296.296 0 0 0-.061-.18l.001.001a.192.192 0 0 0-.151-.073H7.698a.264.264 0 0 0-.134.037l.001-.001a.629.629 0 0 0-.141.122v.784h-.217v-1.656zm1.387.997h.553a.296.296 0 0 0-.077-.199.247.247 0 0 0-.174-.071h-.013.001-.01a.269.269 0 0 0-.182.071.344.344 0 0 0-.097.199zm.768.131h-.773a.358.358 0 0 0 .106.25.349.349 0 0 0 .239.094h.014-.001a.665.665 0 0 0 .397-.133v.211a.731.731 0 0 1-.199.094.818.818 0 0 1-.216.028h-.015.001a.533.533 0 0 1-.295-.074.548.548 0 0 1-.178-.199l-.001-.003a.596.596 0 0 1-.068-.279v-.014.001c0-.166.047-.302.142-.406s.218-.156.37-.156c.146 0 .261.051.348.152s.13.238.13.409v.027zm1.767-.928c-.187 0-.342.06-.464.18s-.183.272-.183.454c0 .178.062.325.185.444s.277.177.463.177c.183 0 .338-.061.463-.182s.188-.269.188-.446c0-.181-.061-.331-.185-.45s-.279-.178-.467-.178zm.859 1.558-.24.234a1.038 1.038 0 0 1-.241-.042l.007.002a1.545 1.545 0 0 1-.257-.097l.009.004a2.724 2.724 0 0 1-.344-.208l.008.005a.836.836 0 0 1-.5-.286l-.001-.001a.8.8 0 0 1-.196-.526v-.01c0-.247.084-.452.254-.614s.383-.243.642-.243c.258 0 .471.081.642.241s.256.363.256.606a.845.845 0 0 1-.694.832l.063.023c.196.075.338.112.424.112.048 0 .103-.01.167-.033zm1.016-.103v-.14a.506.506 0 0 1-.156.115l-.003.001a.427.427 0 0 1-.178.041h-.004a.374.374 0 0 1-.191-.052l.002.001a.346.346 0 0 1-.133-.138l-.001-.002a.69.69 0 0 1-.045-.293v-.625h.217v.622c0 .115.016.195.05.24s.092.068.176.068c.105 0 .194-.05.267-.151v-.78h.217v1.091h-.217zm1.016-.217v-.325l-.146.056a.485.485 0 0 0-.157.089.149.149 0 0 0-.046.107v.004c0 .045.015.082.044.111s.066.043.113.043a.276.276 0 0 0 .192-.085zm.214-.441v.464c0 .037.012.056.038.056s.067-.019.123-.058v.133a.71.71 0 0 1-.118.063.247.247 0 0 1-.092.017h-.002c-.092 0-.148-.036-.164-.107a.48.48 0 0 1-.297.107h-.007a.262.262 0 0 1-.262-.262v-.003c0-.068.025-.13.075-.185a.532.532 0 0 1 .213-.129l.279-.095v-.059c0-.133-.066-.199-.198-.199-.119 0-.234.061-.346.181v-.234c.084-.098.206-.148.364-.148.119 0 .214.031.286.093a.292.292 0 0 1 .063.077l.001.001c.018.028.03.062.036.097v.002c.005.033.009.095.009.187zm.566-.433v.133a.44.44 0 0 1 .331-.158.367.367 0 0 1 .326.198c.03.061.046.158.046.292v.626h-.217v-.624c0-.113-.017-.193-.051-.24s-.092-.072-.172-.072c-.103 0-.19.051-.262.152v.785h-.223v-1.091h.223zm.846.172.41-.4v.227h.348v.194h-.348v.534c0 .125.052.187.156.187a.49.49 0 0 0 .247-.076v.2a.55.55 0 0 1-.274.07h-.013a.36.36 0 0 1-.235-.087.256.256 0 0 1-.051-.058l-.001-.001a.315.315 0 0 1-.034-.084v-.002a.955.955 0 0 1-.014-.201v-.484h-.192v-.022zm1.677.919v-.14c-.046.05-.099.089-.159.117s-.119.041-.178.041h-.004a.374.374 0 0 1-.191-.052l.002.001a.346.346 0 0 1-.133-.138l-.001-.002a.69.69 0 0 1-.045-.293v-.625h.217v.622c0 .115.017.195.051.24.033.046.091.068.175.068.104 0 .193-.05.266-.151v-.78h.217v1.091h-.217zm1.418-.792v.792h-.22v-.61c0-.122-.017-.206-.049-.254s-.09-.072-.171-.072H18.3a.243.243 0 0 0-.123.033l.001-.001a.576.576 0 0 0-.128.112l-.001.001v.792h-.217v-1.091h.217v.144c.111-.112.219-.168.325-.168.139 0 .247.067.324.201.116-.133.237-.201.363-.201.107 0 .194.039.263.116s.103.196.103.355v.644h-.217v-.649a.34.34 0 0 0-.056-.209.192.192 0 0 0-.15-.073h-.011.001c-.09 0-.173.046-.251.138zm3.136.407v.261a1.257 1.257 0 0 1-.607.143c-.187 0-.345-.037-.475-.112s-.234-.178-.306-.303l-.002-.004a.82.82 0 0 1-.114-.421v-.003c0-.241.087-.444.26-.609s.387-.247.641-.247c.176 0 .37.046.585.137v.255a1.158 1.158 0 0 0-.573-.167c-.191 0-.35.06-.476.18a.593.593 0 0 0-.189.436v.016-.001a.59.59 0 0 0 .186.449.67.67 0 0 0 .477.176c.202 0 .4-.062.593-.185zm.763-.515h-.012a.34.34 0 0 0-.243.102.351.351 0 0 0-.1.246v.014-.001c0 .104.034.19.102.255s.156.099.262.099h.013a.353.353 0 0 0 .248-.101.342.342 0 0 0 .102-.244v-.013.001-.01a.34.34 0 0 0-.105-.247.368.368 0 0 0-.254-.102h-.013.001zm.011-.194c.167 0 .305.053.415.161s.165.242.165.404c0 .158-.056.288-.168.392s-.252.156-.423.156a.569.569 0 0 1-.411-.159.522.522 0 0 1-.166-.382v-.014.001c0-.16.055-.293.167-.399s.252-.16.42-.16zm1.723.302v.792h-.22v-.61c0-.122-.016-.206-.049-.254s-.089-.072-.171-.072h-.003a.243.243 0 0 0-.123.033l.001-.001a.554.554 0 0 0-.128.112l-.001.001v.792h-.217v-1.091h.217v.144c.111-.112.219-.168.325-.168.139 0 .247.067.324.201.116-.133.237-.201.363-.201.107 0 .194.039.263.116s.103.196.103.355v.644h-.217v-.649a.333.333 0 0 0-.056-.209.192.192 0 0 0-.15-.073h-.011.001c-.09 0-.173.046-.251.138zm1.358-.096h-.153v.669a.444.444 0 0 0 .21.052c.101 0 .185-.035.25-.105s.097-.161.097-.272v-.009a.367.367 0 0 0-.047-.181l.001.002a.275.275 0 0 0-.123-.118l-.002-.001a.563.563 0 0 0-.232-.037zm-.376 1.446v-1.65h.381c.195 0 .347.048.455.144s.163.231.163.405c0 .164-.052.298-.154.403s-.232.157-.391.157a.7.7 0 0 1-.232-.046v.586h-.223zm1.935-.558v-.14a.508.508 0 0 1-.16.117.427.427 0 0 1-.178.041h-.004a.374.374 0 0 1-.191-.052l.002.001a.343.343 0 0 1-.132-.138l-.001-.002a.687.687 0 0 1-.046-.293v-.625h.217v.622c0 .115.017.195.05.24s.092.068.176.068c.104 0 .193-.05.266-.151v-.78h.217v1.091h-.217zm.372-.919.41-.4v.227h.349v.194h-.349v.534c0 .125.052.187.156.187a.493.493 0 0 0 .248-.076v.2a.55.55 0 0 1-.273.07h-.014a.36.36 0 0 1-.235-.087.256.256 0 0 1-.051-.058l-.001-.001a.315.315 0 0 1-.034-.084v-.002a.955.955 0 0 1-.014-.201v-.484h-.193v-.022zm.987-.172h.217v1.091h-.217v-1.091zm.108-.458c.036 0 .066.012.092.036s.038.055.038.09v.001a.121.121 0 0 1-.038.088c-.023.023-.055.038-.09.038s-.067-.015-.09-.038a.12.12 0 0 1 0-.178.121.121 0 0 1 .088-.038h.001zm.637.458v.133a.44.44 0 0 1 .331-.158.367.367 0 0 1 .326.198.682.682 0 0 1 .046.292v.626h-.217v-.624c0-.113-.017-.193-.052-.24s-.092-.072-.172-.072c-.103 0-.19.051-.262.152v.785h-.223v-1.091h.223zm1.346.188h-.004a.214.214 0 0 0-.147.059.19.19 0 0 0-.062.141v.007a.18.18 0 0 0 .061.135c.039.035.09.056.147.056h.015a.217.217 0 0 0 .148-.057.183.183 0 0 0 .061-.137v-.008a.184.184 0 0 0-.062-.138.222.222 0 0 0-.149-.057h-.007zm-.053.956c-.073 0-.133.016-.18.046s-.07.07-.07.119c0 .112.102.168.305.168.096 0 .171-.015.224-.042s.079-.068.079-.119c0-.051-.033-.091-.1-.124s-.153-.048-.259-.048zm-.356-.766c0-.116.043-.208.128-.276s.203-.102.35-.102h.453v.17h-.222c.043.043.073.083.09.119s.025.076.025.122a.322.322 0 0 1-.049.168.348.348 0 0 1-.124.126l-.002.001a.762.762 0 0 1-.253.07c-.084.012-.125.04-.125.084 0 .025.015.046.046.062s.086.033.167.05c.135.03.221.052.26.069s.073.04.105.071a.264.264 0 0 1 .079.19v.008c0 .104-.047.186-.139.248s-.217.093-.372.093c-.157 0-.282-.031-.375-.093s-.14-.145-.14-.25c0-.148.092-.243.275-.286-.073-.047-.109-.093-.109-.139 0-.035.015-.067.047-.095a.283.283 0 0 1 .125-.062h.002c-.161-.071-.242-.187-.242-.346zm3.25.328v.261a1.258 1.258 0 0 1-.608.143c-.186 0-.345-.037-.475-.112s-.234-.178-.306-.303l-.002-.004a.821.821 0 0 1-.113-.418v-.006c0-.241.086-.444.26-.609s.387-.247.641-.247c.176 0 .37.046.584.137v.255a1.154 1.154 0 0 0-.572-.167c-.191 0-.35.06-.476.18a.594.594 0 0 0-.19.436v.016-.001c0 .182.062.332.186.449s.283.176.477.176c.203 0 .4-.062.593-.185zm.763-.515h-.012a.34.34 0 0 0-.243.102.354.354 0 0 0-.1.247v.013-.001c0 .104.034.19.103.255s.156.099.262.099h.013a.353.353 0 0 0 .248-.101.342.342 0 0 0 .102-.244v-.013.001-.01a.341.341 0 0 0-.106-.247.368.368 0 0 0-.254-.102h-.013.001zm.012-.194c.167 0 .305.053.416.161s.165.242.165.404c0 .158-.056.288-.168.392s-.252.156-.422.156a.569.569 0 0 1-.411-.159.522.522 0 0 1-.166-.382v-.014.001c0-.16.055-.293.167-.399s.251-.16.419-.16zm1.722.302v.792h-.22v-.61c0-.122-.016-.206-.049-.254s-.09-.072-.171-.072h-.004a.246.246 0 0 0-.123.033l.001-.001a.554.554 0 0 0-.128.112l-.001.001v.792h-.217v-1.091h.217v.144c.11-.112.219-.168.325-.168.139 0 .247.067.324.201.116-.133.237-.201.364-.201.106 0 .193.039.262.116s.103.196.103.355v.644h-.217v-.649a.34.34 0 0 0-.056-.209.192.192 0 0 0-.15-.073h-.011.001c-.09 0-.174.046-.251.138zm1.359-.096h-.154v.669a.447.447 0 0 0 .21.052c.102 0 .185-.035.25-.105s.097-.161.097-.272v-.009a.367.367 0 0 0-.047-.181l.001.002a.275.275 0 0 0-.123-.118l-.002-.001a.563.563 0 0 0-.232-.037zm-.377 1.446v-1.65h.381c.195 0 .347.048.456.144a.515.515 0 0 1 .162.405c0 .164-.051.298-.153.403s-.233.157-.391.157a.71.71 0 0 1-.233-.046v.586h-.222zm1.726-.775v-.325l-.145.056a.463.463 0 0 0-.157.089.151.151 0 0 0-.046.108v.003c0 .045.014.082.044.111s.066.043.113.043a.276.276 0 0 0 .192-.085zm.214-.441v.464c0 .037.013.056.039.056.027 0 .068-.019.124-.058v.133a.712.712 0 0 1-.119.063.247.247 0 0 1-.092.017h-.002c-.093 0-.147-.036-.164-.107a.48.48 0 0 1-.297.107h-.007a.262.262 0 0 1-.262-.262v-.003c0-.068.025-.13.075-.185a.525.525 0 0 1 .213-.129l.278-.095v-.059c0-.133-.066-.199-.198-.199-.118 0-.234.061-.346.181v-.234c.084-.098.206-.148.364-.148.118 0 .213.031.285.093.024.02.045.046.064.079.017.028.03.062.036.097v.002c.005.033.007.095.007.187h.001zm.565-.433v.133a.444.444 0 0 1 .331-.158h.001c.141 0 .263.08.324.196l.001.002c.03.061.046.158.046.292v.626h-.217v-.624c0-.113-.017-.193-.051-.24s-.092-.072-.172-.072c-.103 0-.19.051-.263.152v.785h-.223v-1.091h.223zm1.632 0h.243l-.775 1.65h-.243l.371-.788-.423-.861h.248l.294.614.285-.614zm1.09.649h-.095v-.619h.153l.157.494.152-.494h.149v.619h-.095v-.519l-.159.519h-.094l-.169-.528v.528zm-.369 0h-.104v-.531h-.203v-.088h.511v.088h-.205v.531z"/></symbol>
<symbol id="fb" viewBox="0 0 201 32"><path fill="var(--color8, #4267b2)" d="M43.16 7.275c-1.621 0-2.09.7-2.09 2.245v2.563h4.324l-.433 4.14h-3.889v12.564h-5.19V16.223h-3.496v-4.14h3.496V9.591c0-4.176 1.729-6.382 6.552-6.382a25.245 25.245 0 0 1 3.024.175V7.28l-2.298-.005zM45.754 19.908c0-4.667 2.27-8.182 7.026-8.182 2.594 0 4.178 1.299 4.936 2.913v-2.556h4.971v16.704h-4.971V26.26c-.721 1.615-2.342 2.878-4.936 2.878-4.756 0-7.026-3.51-7.026-8.182v-1.049zm5.188 1.124c0 2.49.936 4.14 3.35 4.14 2.127 0 3.207-1.509 3.207-3.895V19.6c0-2.386-1.08-3.895-3.207-3.895-2.414 0-3.35 1.649-3.35 4.14v1.186zM73.496 11.731c2.016 0 3.926.422 4.971 1.123l-1.152 3.58a8.347 8.347 0 0 0-3.459-.772c-2.811 0-4.032 1.579-4.032 4.282v.982c0 2.703 1.225 4.282 4.032 4.282a8.347 8.347 0 0 0 3.459-.772l1.152 3.579c-1.045.702-2.953 1.124-4.971 1.124-6.09 0-8.864-3.194-8.864-8.318v-.772c0-5.123 2.774-8.318 8.864-8.318zM79.151 21.073V19.6c0-4.737 2.774-7.855 8.432-7.855 5.332 0 7.674 3.158 7.674 7.791v2.667h-10.92c.109 2.281 1.154 3.299 4.032 3.299 1.947 0 4-.386 5.514-1.018l.949 3.461c-1.369.704-4.18 1.229-6.664 1.229-6.567-.002-9.017-3.193-9.017-8.102zm5.188-2.176h6.27v-.421c0-1.825-.756-3.273-3.024-3.273-2.344.002-3.246 1.442-3.246 3.687v.007zM114.488 20.962c0 4.667-2.305 8.182-7.056 8.182-2.594 0-4.395-1.263-5.116-2.878v2.527h-4.899V3.696l5.188-.458v11.16c.756-1.473 2.414-2.667 4.828-2.667 4.756 0 7.056 3.51 7.056 8.182l-.002 1.051zm-5.188-1.159c0-2.351-.936-4.106-3.422-4.106-2.127 0-3.279 1.473-3.279 3.86v1.754c0 2.386 1.153 3.86 3.279 3.86 2.486 0 3.422-1.754 3.422-4.106v-1.263zM116.224 20.855v-.841c0-4.809 2.811-8.283 8.54-8.283s8.541 3.474 8.541 8.283v.841c0 4.808-2.811 8.283-8.54 8.283s-8.541-3.476-8.541-8.283zm11.891-1.193c0-2.211-.937-3.965-3.36-3.965s-3.352 1.754-3.352 3.965v1.545c0 2.211.937 3.965 3.352 3.965s3.36-1.754 3.36-3.965v-1.545zM135.03 20.855v-.841c0-4.809 2.811-8.283 8.539-8.283s8.54 3.474 8.54 8.283v.841c0 4.808-2.812 8.283-8.54 8.283s-8.539-3.476-8.539-8.283zm11.891-1.193c0-2.211-.938-3.965-3.352-3.965s-3.35 1.754-3.35 3.965v1.545c0 2.211.936 3.965 3.35 3.965s3.352-1.754 3.352-3.965v-1.545zM159.242 20.048l5.116-7.966h5.511l-5.367 8.247 5.584 8.457h-5.511l-5.332-8.182v8.182h-5.19V3.694l5.19-.458v16.812z"/></symbol>
<symbol id="fcc" viewBox="0 0 230 32"><path fill="var(--color9, #006400)" d="M3.069 11.287H1.25c-.625 0-.966-.233-.966-.873 0-.582.341-.873.966-.873h1.819V7.912c0-2.851 1.421-4.305 4.205-4.305 1.08 0 2.046.233 2.842.64.966.64 1.421 1.513 1.421 2.56 0 .756-.227 1.047-.796 1.047a.855.855 0 0 1-.852-.64c-.227-.756-.455-1.222-.625-1.396-.341-.407-1.023-.64-1.989-.64-1.762 0-2.501.873-2.501 2.56v1.629H8.07c.739 0 1.08.233 1.08.873 0 .582-.398.873-1.08.873H4.774v10.764c0 .64-.227.989-.796.989s-.796-.349-.796-.989l-.114-10.589zm14.719 9.833v-9.775h-2.444c-.682 0-1.023-.233-1.023-.873 0-.582.341-.873 1.023-.873h3.239c.568 0 .852.465.852 1.455 1.023-1.105 2.046-1.687 3.239-1.687.966 0 1.648.233 2.216.873s.796 1.396.796 2.327c0 .64-.227.989-.796.989-.341 0-.568-.233-.739-.64-.227-.815-.398-1.222-.398-1.28-.227-.407-.739-.64-1.25-.64-.625 0-1.25.233-1.762.756-.341.233-.796.756-1.364 1.513v7.855h3.069c.739 0 1.023.233 1.023.815s-.341.873-1.023.873h-7.104c-.739 0-1.023-.233-1.023-.873 0-.582.341-.873 1.023-.873h2.501l-.057.058zm12.332-4.654v1.862c0 2.036 1.364 2.967 4.092 2.967 1.023 0 1.819-.058 2.444-.349.341-.058.852-.407 1.648-.989.455-.465.852-.698 1.023-.698.455 0 .739.233.739.698s-.341 1.047-1.023 1.629c-1.08.873-2.785 1.396-4.887 1.396-3.808 0-5.683-1.513-5.683-4.713v-4.596c0-1.047.398-2.036 1.193-2.735 1.023-1.047 2.614-1.513 4.66-1.513 3.694 0 5.513 1.92 5.513 5.76 0 .989-.398 1.396-1.023 1.396l-8.695-.116zm0-1.688h8.127c0-2.502-1.364-3.782-4.092-3.782-1.023 0-1.875.233-2.785.756-.796.64-1.25 1.28-1.25 2.095v.931zm14.265 1.688v1.862c0 2.036 1.364 2.967 4.092 2.967 1.023 0 1.819-.058 2.444-.349.341-.058.852-.407 1.648-.989.455-.465.852-.698 1.023-.698.455 0 .739.233.739.698s-.341 1.047-1.023 1.629c-1.08.873-2.785 1.396-4.887 1.396-3.808 0-5.683-1.513-5.683-4.713v-4.596c0-1.047.398-2.036 1.193-2.735 1.023-1.047 2.614-1.513 4.66-1.513 3.694 0 5.513 1.92 5.513 5.76 0 .989-.398 1.396-1.023 1.396l-8.695-.116zm0-1.688h8.127c0-2.502-1.364-3.782-4.092-3.782-1.023 0-1.875.233-2.785.756-.852.64-1.25 1.28-1.25 2.095v.931zm12.73 2.851v-7.273c0-3.898 1.989-5.76 5.91-5.76 1.591 0 2.842.407 3.864 1.047 1.08.873 1.648 2.095 1.648 3.665 0 .756-.227 1.047-.852 1.047-.398 0-.739-.349-.852-1.047-.057-.582-.341-1.105-.625-1.629-.455-.989-1.591-1.396-3.296-1.396-1.421 0-2.501.407-3.183 1.105s-.852 1.804-.852 3.316v6.051c0 1.629.341 2.735.966 3.375.739.756 1.762 1.222 3.183 1.222 2.216 0 3.467-.815 3.808-2.327.17-.64.17-.873.17-.989.171-.349.398-.465.739-.465.568 0 .852.407.852 1.047 0 1.455-.625 2.56-1.762 3.491-.966.64-2.16.989-3.694.989-1.819 0-3.239-.407-4.262-1.28-1.193-.989-1.762-2.444-1.762-4.189zm14.037 1.047v-4.829c0-2.967 1.876-4.422 5.683-4.422s5.683 1.455 5.683 4.422v4.829c0 2.967-1.876 4.422-5.626 4.422-3.808-.058-5.74-1.513-5.74-4.422zm9.718 0v-4.829c0-1.862-1.364-2.735-4.092-2.735-2.614 0-4.035.989-4.035 2.735v4.829c0 1.862 1.364 2.735 4.092 2.735 2.785-.058 4.035-.989 4.035-2.735zm14.151 2.735c-.796.64-1.421.989-2.046 1.222s-1.421.407-2.273.407c-1.478 0-2.785-.349-3.694-.989-1.08-.756-1.648-1.862-1.648-3.375v-5.004c0-1.455.568-2.56 1.591-3.316.852-.64 2.16-.989 3.58-.989.966 0 1.762.058 2.387.349.625.233 1.364.64 2.046 1.28V4.945c0-.815.227-1.222.796-1.222s.852.407.852 1.222v17.222c0 .64-.227.873-.796.873-.341 0-.568-.175-.625-.582-.114-.233-.17-.582-.17-1.047zm-.114-1.92v-6.807c-.796-.64-1.421-1.047-1.989-1.222-.739-.233-1.421-.407-2.216-.407-1.023 0-1.875.175-2.5.64-.796.465-1.25 1.28-1.25 2.211v4.713c0 .989.398 1.687 1.25 2.269.739.407 1.478.64 2.614.64a6.65 6.65 0 0 0 2.273-.407c.568-.524 1.193-.989 1.819-1.629zm6.308-3.025v1.862c0 2.036 1.364 2.967 4.092 2.967 1.023 0 1.819-.058 2.444-.349.341-.058.852-.407 1.648-.989.455-.465.852-.698 1.023-.698.455 0 .739.233.739.698s-.341 1.047-1.023 1.629c-1.08.873-2.785 1.396-4.888 1.396-3.808 0-5.683-1.513-5.683-4.713v-4.596c0-1.047.398-2.036 1.193-2.735 1.023-1.047 2.614-1.513 4.66-1.513 3.694 0 5.512 1.92 5.512 5.76 0 .989-.398 1.396-1.023 1.396l-8.695-.116zm0-1.688h8.127c0-2.502-1.364-3.782-4.092-3.782-1.023 0-1.875.233-2.785.756-.852.64-1.25 1.28-1.25 2.095v.931zm12.73 2.851v-7.273c0-3.898 1.989-5.76 5.91-5.76 1.591 0 2.842.407 3.864 1.047 1.08.873 1.648 2.095 1.648 3.665 0 .756-.227 1.047-.852 1.047-.398 0-.739-.349-.852-1.047-.057-.582-.341-1.105-.625-1.629-.455-.989-1.591-1.396-3.296-1.396-1.421 0-2.501.407-3.183 1.105-.625.756-.852 1.804-.852 3.316v6.051c0 1.629.341 2.735.966 3.375.682.756 1.762 1.222 3.182 1.222 2.216 0 3.467-.815 3.808-2.327.171-.64.171-.873.171-.989.17-.349.398-.465.682-.465.568 0 .852.407.852 1.047 0 1.455-.625 2.56-1.762 3.491-.966.64-2.16.989-3.694.989-1.819 0-3.239-.407-4.262-1.28-1.137-.989-1.705-2.444-1.705-4.189zm23.187 3.782c-.796.64-1.421 1.047-1.875 1.222a6.291 6.291 0 0 1-2.216.407c-1.364 0-2.501-.233-3.41-.873-1.023-.756-1.478-1.687-1.478-3.084s.568-2.444 1.591-3.258c.852-.698 2.046-1.047 3.467-1.047 1.08 0 2.387.233 3.864.815v-2.095c0-.989-.455-1.687-1.364-2.095a6.626 6.626 0 0 0-2.273-.407c-2.16 0-3.239.64-3.467 1.862-.057.582-.17.873-.17.873-.171.233-.398.407-.739.407-.625 0-.852-.349-.852-.989 0-.873.341-1.687 1.023-2.444.796-.989 2.273-1.396 4.433-1.396 1.648 0 2.898.233 3.694.873.966.756 1.421 1.862 1.421 3.549v5.993c0 .698.17 1.222.398 1.396l.796.407a.946.946 0 0 1 .398.815c0 .465-.227.756-.739.756-.171 0-.398 0-.739-.174-.625-.233-1.023-.407-1.08-.407-.398-.291-.568-.64-.682-1.105zm-.057-1.745v-2.502c-1.25-.407-2.5-.64-3.58-.64-2.444 0-3.637.814-3.637 2.444 0 .873.398 1.513 1.08 1.862.625.349 1.364.465 2.216.465.796 0 1.478-.175 2.103-.465.455-.116 1.023-.524 1.819-1.164zm6.365-8.902c.398-.465.796-.873 1.023-1.047.398-.233.796-.407 1.421-.407.852 0 1.648.465 2.387 1.455.455-.582.852-.989 1.25-1.105.398-.233.966-.349 1.591-.349 1.989 0 2.898.989 2.898 2.967v9.542c0 .815-.227 1.222-.852 1.222-.568 0-.796-.407-.796-1.222v-8.96c0-1.222-.455-1.862-1.421-1.862-.739 0-1.421.465-2.046 1.396v9.425c0 .815-.227 1.222-.796 1.222s-.796-.407-.796-1.222v-8.727c0-1.396-.568-2.036-1.591-2.036-.739 0-1.364.465-1.989 1.396v9.484c0 .815-.227 1.222-.852 1.222-.568 0-.796-.407-.796-1.222V10.3c0-.582.227-.873.739-.873.227 0 .455.175.625.465-.057.233 0 .64 0 .873zm14.776 0c1.25-.989 2.785-1.396 4.433-1.396 3.466 0 5.114 1.513 5.114 4.422v4.829c0 1.396-.454 2.502-1.421 3.316-.851.756-2.045 1.047-3.579 1.047-1.762 0-3.24-.465-4.604-1.455v5.585c0 .873-.227 1.28-.796 1.28s-.796-.407-.796-1.28V10.647c0-.873.227-1.28.682-1.28.227 0 .455.175.625.465.114.349.171.698.341.931zm0 8.96c1.193 1.047 2.614 1.629 4.262 1.629 1.024 0 1.875-.175 2.501-.64.795-.465 1.08-1.222 1.08-2.095v-4.829c0-1.047-.398-1.687-1.251-2.211-.624-.349-1.477-.465-2.499-.465-.966 0-1.762.175-2.274.407-.568.233-1.08.756-1.876 1.513v6.691h.057zm15.174-4.713c0-3.724 1.25-7.04 3.694-9.833.851-1.047 1.648-1.629 2.158-1.629.171 0 .398 0 .454.175.171.175.229.233.229.465s-.342.698-.966 1.396c-2.614 2.56-3.866 5.76-3.866 9.542 0 4.189 1.365 7.68 4.035 10.24.568.465.797.989.797 1.28 0 .175-.058.407-.229.465-.17.175-.341.233-.454.233-.624 0-1.477-.756-2.614-2.269-2.216-2.676-3.238-5.993-3.238-10.065zm34.325.989c0 3.724-1.25 7.04-3.693 9.833-.853 1.047-1.648 1.629-2.16 1.629-.171 0-.398 0-.454-.175-.171-.175-.227-.349-.227-.465 0-.233.341-.756.966-1.28 2.613-2.56 3.864-5.76 3.864-9.542 0-4.189-1.365-7.68-4.035-10.24-.568-.465-.795-.989-.795-1.28 0-.175.056-.407.227-.465.17-.175.341-.233.454-.233.626 0 1.477.756 2.614 2.269 2.16 2.618 3.238 5.993 3.238 9.949zm-9.376 10.647h-15.686c-.454 0-.965-.407-.965-.989s.397-.989.965-.989h15.686c.454 0 .966.407.966.989-.058.582-.342.989-.966.989zM187.2 5.586s1.363.989 1.363 2.56c0 2.909-3.864 6.167-3.864 9.193 0 3.316 2.443 5.411 4.717 6.051.341.058.454-.349.058-.407-.966-.233-2.046-1.513-2.046-3.549 0-1.862 1.762-2.56 2.443-3.491.739-.989.57-2.095.171-2.444s-.171-.815.626-.233c.738.582 1.421 1.513 1.194 2.502-.342 1.222.056 1.92.738 2.036.626.058 1.365-.233 1.251-.815-.058-.582-.398-1.222-.227-1.222.454 0 1.421 1.105 1.421 2.909s-1.421 3.084-1.877 3.549c-.227.233.058.64.456.465.17-.058.568-.349.795-.465 1.08-.815 2.898-2.502 2.898-5.644 0-3.316-1.194-4.771-2.443-5.993-1.194-1.222-1.477-.873-1.194-.349 1.024 1.862.398 2.444-.341 2.444-.853 0-.966-2.095-1.25-3.665-.797-3.549-3.866-4.131-4.434-4.131-.626.058-1.194.349-.454.698z"/></symbol>
<symbol id="fox" viewBox="0 0 32 32"><path fill="var(--color10, #fc6d26)" d="M31.943 18.297 26.601.459a.73.73 0 0 0-.229-.331l-.001-.001a.561.561 0 0 0-.35-.125.559.559 0 0 0-.35.126l.001-.001a.72.72 0 0 0-.23.326l-.002.005-3.55 11.858H10.108L6.557.459a.73.73 0 0 0-.229-.331L6.327.127a.561.561 0 0 0-.35-.125.561.561 0 0 0-.351.126l.001-.001a.723.723 0 0 0-.228.326l-.002.005-3.551 11.859-1.788 5.982c-.077.269-.077.562.003.83s.235.498.44.651l15.497 12.222 15.497-12.223c.205-.153.36-.383.44-.651a1.456 1.456 0 0 0 0-.841l.003.01z"/><path fill="var(--color11, #e24329)" d="m16 32 5.892-19.69H10.107L15.999 32z"/><path fill="var(--color10, #fc6d26)" d="m16 32.001-5.892-19.687H1.851L16.001 32z"/><path fill="var(--color12, #fca326)" d="m1.849 12.314-1.79 5.981c-.077.269-.077.562.003.83s.235.498.44.651L15.999 32 1.848 12.314z"/><path fill="var(--color11, #e24329)" d="M1.85 12.314h8.258L6.558.457a.73.73 0 0 0-.229-.331L6.328.125a.568.568 0 0 0-.349-.126.562.562 0 0 0-.351.127l.001-.001A.718.718 0 0 0 5.4.451l-.002.005L1.85 12.314z"/><path fill="var(--color10, #fc6d26)" d="m16 32 5.892-19.686h8.258L15.999 32z"/><path fill="var(--color12, #fca326)" d="m30.15 12.314 1.792 5.982c.077.269.077.562-.003.83a1.265 1.265 0 0 1-.437.649l-.003.002L16.001 32l14.15-19.686z"/><path fill="var(--color11, #e24329)" d="M30.15 12.314h-8.257L25.443.457a.73.73 0 0 1 .229-.331l.001-.001a.568.568 0 0 1 .349-.126c.125 0 .246.044.35.126a.718.718 0 0 1 .229.326l.002.005 3.55 11.858h-.003z"/></symbol>
<symbol id="G" viewBox="0 0 29 32"><path d="M17.11 1.594c.856 1.516.336 3.448-1.162 4.314l-9.307 5.387a.802.802 0 0 0-.398.694v8.456c0 .288.152.552.398.695l7.367 4.264a.779.779 0 0 0 .786-.002l-.004.002 7.368-4.264a.802.802 0 0 0 .398-.695v-5.258l-6.623 3.784a3.1 3.1 0 0 1-4.245-1.184l-.008-.016c-.847-1.52-.316-3.449 1.185-4.307l9.477-5.415c2.886-1.65 6.458.464 6.458 3.82v9.232a6.028 6.028 0 0 1-2.966 5.196l-.028.015-8.458 4.896c-.845.498-1.862.793-2.948.793s-2.103-.294-2.976-.808l.028.015-8.458-4.896C1.191 25.247 0 23.313 0 21.101v-.013.001-9.755a6.028 6.028 0 0 1 2.966-5.196l.028-.015L12.852.417a3.066 3.066 0 0 1 1.55-.415c1.159 0 2.169.635 2.701 1.577l.008.015z"/></symbol>
<symbol id="git" viewBox="0 0 32 32"><path d="M16 0A15.706 15.706 0 0 0 5.613 3.926l.018-.015C2.738 6.433.814 9.931.205 13.778c-.132.79-.207 1.7-.207 2.628 0 3.131.859 6.061 2.354 8.568l-.042-.077c1.966 3.332 5.025 5.841 8.629 7.072.801.143 1.097-.349 1.097-.779 0-.39-.02-1.686-.02-3.057-4.02.759-5.06-1.004-5.38-1.927a5.995 5.995 0 0 0-1.637-2.311l-.007-.006c-.561-.308-1.361-1.067-.02-1.087a3.123 3.123 0 0 1 1.431.533c.429.294.781.69 1.028 1.153.22.403.513.757.866 1.044a3.363 3.363 0 0 0 3.809.3l-.016.009a3.484 3.484 0 0 1 1.019-2.193c-3.563-.41-7.281-1.824-7.281-8.099l-.001-.096c0-1.659.624-3.173 1.65-4.319l-.005.006a5.909 5.909 0 0 1-.33-1.967c0-.86.18-1.679.505-2.42l-.015.039s1.341-.43 4.401 1.686a14.73 14.73 0 0 1 8 0c3.06-2.133 4.401-1.686 4.401-1.686.309.702.489 1.519.489 2.379 0 .705-.121 1.382-.343 2.011l.013-.042a6.41 6.41 0 0 1 1.645 4.299l-.001.117v-.006c0 6.295-3.74 7.689-7.299 8.099.382.397.676.874.863 1.397.186.524.26 1.082.217 1.639 0 2.194-.02 3.957-.02 4.511 0 .43.299.943 1.096.779 3.601-1.239 6.654-3.752 8.615-7.086 1.444-2.426 2.298-5.349 2.298-8.471 0-.935-.077-1.852-.224-2.745l.013.097c-.612-3.843-2.538-7.338-5.431-9.86A15.697 15.697 0 0 0 16.001.003h-.002z"/></symbol>
<symbol id="gitlab" viewBox="0 0 103 32"><path d="m34.175 17.815-1.805-5.569-3.585-11.051a1.416 1.416 0 0 0-1.341-.968h-.014.001a1.394 1.394 0 0 0-1.336.977l-3.403 10.488H11.956L8.547 1.203A1.397 1.397 0 0 0 7.218.227h-.014c-.611 0-1.152.389-1.351.977L2.278 12.247.465 17.815a2.031 2.031 0 0 0 .732 2.271l.006.004 15.656 11.388c.007.005.013.011.02.013-.007-.003-.013-.008-.019-.013l.003.003.003.001a.687.687 0 0 0 .072.045l.004.002.011.007.007.004.004.003h.004l.009.005.041.017.04.016h.001l.007.004.008.003h.004l.011.003.004.001c.019.005.039.011.057.013l.023.007h.004l.007.003.013.003h.011a.784.784 0 0 0 .113.009h.002a.893.893 0 0 0 .117-.01l-.005.001h.013l.012-.003.007-.003h.004l.023-.005.057-.013.004-.003c.004 0 .007 0 .011-.003h.004l.008-.003.007-.003.001-.001.041-.017.04-.016.009-.004.008-.004c.003 0 .005-.003.007-.004l.011-.007a.917.917 0 0 0 .079-.047l-.003.002.005-.004h.001l.008-.005L33.443 20.09a2.027 2.027 0 0 0 .732-2.287l.004.014zM27.44 2.231l3.069 9.461H24.37l3.069-9.461zm2.532 11.061-1.253 1.607-9.237 11.852 4.369-13.459h6.12zM16.559 31.073zm-1.402-4.322L4.672 13.294h6.121l4.364 13.459zM7.199 2.231l3.075 9.461H4.135L7.2 2.231zm-5.06 16.564a.432.432 0 0 1-.155-.488l-.001.003 1.347-4.139 9.872 12.672-11.063-8.048zm14.682 12.657-.009-.008-.003-.001-.051-.047.003.003.004.003a.804.804 0 0 0 .07.061l.002.001c.003 0 .003.003.004.003l-.02-.015zm.498-3.216-4.845-14.943h9.697l-4.853 14.944zm.525 3.191-.017.016-.003.001-.009.008-.02.016.003-.004a.758.758 0 0 0 .074-.062l.003-.003.004-.003-.032.028-.001.001zm14.655-12.632L21.44 26.84l9.875-12.668 1.341 4.137a.433.433 0 0 1-.154.484l-.001.001zm39.514-10.94h-2.18l.009 16.28h8.835v-2.013h-6.653l-.009-14.267zm15.072 13.422a3.71 3.71 0 0 1-2.681 1.141h-.021.001c-1.661 0-2.332-.821-2.332-1.893 0-1.613 1.12-2.384 3.501-2.384.451 0 1.171.051 1.541.12v3.016h-.009zm-2.261-9.866c-1.761 0-3.383.62-4.643 1.672l.771 1.343c.891-.521 1.981-1.043 3.552-1.043 1.791 0 2.581.921 2.581 2.465v.791a9.657 9.657 0 0 0-1.509-.12h-.002c-3.823 0-5.764 1.343-5.764 4.147 0 2.515 1.541 3.777 3.872 3.777 1.571 0 3.081-.72 3.603-1.893l.4 1.593h1.541v-8.336c-.011-2.635-1.152-4.397-4.403-4.397zm11.44 11.082c-.82 0-1.541-.1-2.081-.349V14.62c.74-.621 1.661-1.072 2.832-1.072 2.111 0 2.92 1.493 2.92 3.907 0 3.427-1.309 5.04-3.671 5.04zm.92-11.08c-1.951 0-3.001 1.333-3.001 1.333v-2.104l-.011-2.784h-2.131l.011 15.877c1.069.451 2.531.692 4.121.692 4.072 0 6.033-2.605 6.033-7.103-.009-3.557-1.821-5.911-5.023-5.911zM48.267 9.621c1.931 0 3.181.64 3.991 1.292l.943-1.633c-1.271-1.121-2.992-1.723-4.832-1.723-4.643 0-7.895 2.835-7.895 8.555 0 5.992 3.512 8.325 7.524 8.325h.031c1.735 0 3.389-.346 4.897-.973l-.085.031-.051-6.401v-2.013h-5.953v2.013h3.803l.049 4.859c-.5.251-1.36.451-2.531.451-3.221 0-5.383-2.033-5.383-6.312-.011-4.357 2.221-6.471 5.493-6.471zm15.36-1.768h-2.131l.009 2.733v9.448c0 2.635 1.141 4.397 4.392 4.397.451 0 .891-.04 1.311-.12v-1.912a6.06 6.06 0 0 1-.937.071h-.055.003c-1.792 0-2.581-.923-2.581-2.465v-6.512h3.571v-1.784h-3.571l-.011-3.856zm-7.551 16.28h2.131V11.712h-2.131v12.421zm0-14.134h2.131V7.866h-2.131v2.133z"/></symbol>
<symbol id="go" viewBox="0 0 32 32"><path fill="var(--color13, #00acd7)" d="M5.055 14.379c-.051 0-.063-.028-.038-.071l.264-.384c.025-.043.088-.071.139-.071h4.488c.05 0 .063.043.038.085l-.213.37c-.026.043-.089.085-.127.085l-4.551-.014zm-1.899 1.308c-.051 0-.063-.028-.038-.071l.264-.384c.025-.043.088-.071.139-.071h5.733c.051 0 .076.043.063.085l-.101.341c-.012.057-.063.085-.113.085l-5.947.014zm3.043 1.309c-.05 0-.063-.043-.038-.085l.177-.356c.025-.043.076-.085.126-.085h2.515c.05 0 .075.043.075.1l-.024.341c0 .057-.051.1-.089.1L6.2 16.997zm13.051-2.873c-.792.228-1.332.398-2.112.626-.188.057-.201.071-.365-.142-.188-.242-.326-.398-.59-.54-.792-.441-1.56-.313-2.276.213-.856.626-1.295 1.55-1.282 2.702.012 1.138.704 2.076 1.697 2.233.855.128 1.572-.213 2.137-.939.114-.156.213-.327.34-.526h-2.427c-.264 0-.327-.185-.238-.427.162-.441.465-1.18.64-1.55.038-.085.127-.228.315-.228h4.577c-.026.384-.026.768-.076 1.152a6.5 6.5 0 0 1-1.046 2.811l.015-.024c-.905 1.351-2.087 2.19-3.584 2.418-1.233.185-2.376-.085-3.381-.939-.932-.796-1.459-1.849-1.598-3.157-.164-1.55.239-2.944 1.069-4.167.892-1.323 2.074-2.162 3.52-2.46 1.183-.242 2.315-.085 3.333.697.666.498 1.144 1.18 1.458 2.005.076.128.026.199-.126.242z"/><path fill="var(--color13, #00acd7)" d="M23.412 21.988c-1.144-.028-2.188-.398-3.068-1.252-.741-.725-1.207-1.65-1.357-2.745-.226-1.607.162-3.029 1.018-4.295.917-1.365 2.024-2.076 3.52-2.375 1.284-.256 2.49-.114 3.584.725.993.768 1.609 1.806 1.773 3.172.213 1.92-.276 3.484-1.446 4.821a5.593 5.593 0 0 1-2.98 1.813l-.038.007c-.34.071-.679.085-1.006.128zm2.993-5.746c-.012-.185-.012-.327-.038-.469-.225-1.408-1.37-2.204-2.565-1.892-1.17.299-1.924 1.138-2.201 2.475-.225 1.109.252 2.233 1.157 2.688.692.341 1.383.299 2.05-.085.993-.583 1.534-1.493 1.596-2.716z"/></symbol>
<symbol id="google" viewBox="0 0 95 32"><path fill="var(--color14, #ea4335)" d="M40.383 16.41c0 4.441-3.485 7.714-7.763 7.714-4.277 0-7.762-3.273-7.762-7.714 0-4.473 3.485-7.715 7.763-7.715 4.277 0 7.762 3.242 7.762 7.715zm-3.399 0c0-2.775-2.019-4.675-4.364-4.675-2.344 0-4.364 1.9-4.364 4.675 0 2.748 2.019 4.674 4.365 4.674 2.344 0 4.364-1.93 4.364-4.674z"/><path fill="var(--color15, #fbbc05)" d="M57.13 16.41c0 4.441-3.486 7.714-7.763 7.714s-7.763-3.273-7.763-7.714c0-4.469 3.486-7.715 7.763-7.715s7.763 3.242 7.763 7.715zm-3.399 0c0-2.775-2.019-4.675-4.364-4.675s-4.364 1.9-4.364 4.675c0 2.748 2.019 4.674 4.364 4.674s4.364-1.93 4.364-4.674z"/><path fill="var(--color16, #4285f4)" d="M73.178 9.162v13.85c0 5.697-3.37 8.024-7.354 8.024-3.751 0-6.008-2.502-6.859-4.546l2.958-1.228c.526 1.256 1.817 2.737 3.897 2.737 2.55 0 4.13-1.567 4.13-4.521v-1.109h-.118c-.761.936-2.226 1.752-4.075 1.752-3.87 0-7.414-3.36-7.414-7.683 0-4.354 3.544-7.743 7.414-7.743 1.845 0 3.31.818 4.075 1.726h.118V9.165h3.228v-.003zm-2.985 7.276c0-2.717-1.818-4.703-4.131-4.703-2.345 0-4.309 1.986-4.309 4.703 0 2.689 1.964 4.647 4.309 4.647 2.313 0 4.13-1.958 4.13-4.646z"/><path fill="var(--color17, #34a853)" d="M78.499 1.044v22.609h-3.315V1.043h3.315z"/><path fill="var(--color14, #ea4335)" d="m91.414 18.95 2.637 1.753c-.85 1.256-2.902 3.418-6.446 3.418-4.396 0-7.68-3.388-7.68-7.714 0-4.588 3.311-7.715 7.299-7.715 4.017 0 5.981 3.187 6.622 4.908l.353.877-10.345 4.27c.792 1.548 2.024 2.338 3.751 2.338 1.73 0 2.931-.85 3.81-2.136zm-8.118-2.776 6.915-2.863c-.381-.963-1.525-1.634-2.871-1.634-1.728 0-4.131 1.519-4.044 4.498z"/><path fill="var(--color16, #4285f4)" d="M12.312 14.403V11.13h11.063c.104.564.164 1.212.164 1.875v.106-.005c0 2.456-.673 5.493-2.842 7.656-2.111 2.191-4.808 3.36-8.381 3.36-6.622 0-12.19-5.377-12.19-11.979S5.694.164 12.315.164c3.663 0 6.273 1.433 8.234 3.3l-2.317 2.31c-1.406-1.314-3.31-2.337-5.92-2.337-4.835 0-8.618 3.885-8.618 8.706s3.783 8.706 8.618 8.706c3.136 0 4.922-1.256 6.067-2.397.928-.925 1.539-2.247 1.78-4.052l-7.847.003z"/></symbol>
<symbol id="intel" viewBox="0 0 49 32"><path fill="var(--color18, #0071c5)" d="M14.397 13.598v7.757h-2.484v-9.75l5.128.005c2.178 0 2.92 1.527 2.92 2.914v6.831h-2.479v-6.819c0-.581-.303-.938-1.032-.938h-2.052zm16.889-.117c-.849 0-1.506.434-1.78 1.023-.163.353-.218.625-.237 1.057h3.821c-.049-1.057-.531-2.08-1.803-2.08zm-2.018 3.761c0 1.263.79 2.193 2.2 2.193 1.097 0 1.642-.302 2.276-.929l1.534 1.456c-.982.964-2.013 1.549-3.829 1.549-2.378 0-4.653-1.288-4.653-5.045 0-3.21 1.987-5.027 4.597-5.027 2.646 0 4.175 2.127 4.175 4.914v.89h-6.3zM24.7 21.343c-2.023 0-2.881-1.4-2.881-2.784v-9.61h2.479v2.657h1.869v1.993h-1.869v4.808c0 .566.269.881.86.881h1.009v2.057h-1.468zM9.704 10.257h-2.5V7.895h2.5v2.362zm.006 11.2c-1.873-.179-2.509-1.308-2.509-2.611l.003-7.242h2.507v9.853zm29.805-.208c-1.869-.179-2.502-1.307-2.502-2.608V7.558h2.502v13.69zm8.749-12.088C45.997-1.834 24.532-2.53 10.695 5.845v.925C24.517-.292 44.12-.251 45.906 9.876c.598 3.348-1.3 6.839-4.69 8.846v2.625c4.08-1.484 8.264-6.296 7.049-12.186zm-25.15 19.236c-9.549.877-19.5-.5-20.892-7.919-.682-3.657.994-7.534 3.217-9.942V9.248C1.436 12.736-.736 17.154.515 22.373c1.596 6.692 10.136 10.486 23.171 9.226 5.158-.5 11.908-2.15 16.601-4.71v-3.638c-4.259 2.522-11.305 4.606-17.174 5.146z"/><path fill="var(--color18, #0071c5)" d="M42.408 8.294c0-.12-.07-.159-.233-.159h-.156v.342l.157.004c.162 0 .232-.054.232-.166v-.02zm.244.848h-.186a.042.042 0 0 1-.038-.024l-.253-.426c-.004-.009-.026-.019-.035-.019h-.114v.422c0 .023-.015.047-.045.047h-.168c-.02 0-.042-.024-.042-.047V8.026c0-.061.024-.088.077-.096.06-.007.22-.013.307-.013.307 0 .493.09.493.378v.02c0 .178-.089.272-.227.318l.262.44c.001.009.008.021.008.032 0 .017-.01.036-.04.036zm-.44-1.418a.822.822 0 1 0 0 1.645.826.826 0 0 0 .826-.819.83.83 0 0 0-.826-.826zm0 1.815h-.004a.992.992 0 0 1-.992-.99.999.999 0 0 1 1.994-.003v.002c0 .545-.451.99-.998.99z"/></symbol>
<symbol id="java" viewBox="0 0 32 32"><path fill="var(--color19, #fff)" d="M0 0h32v32H0V0z"/><path fill="var(--color20, #3174b9)" d="M13.343 16.889s-.764.444.545.594c1.586.181 2.395.155 4.142-.175 0 0 .461.288 1.102.538-3.917 1.678-8.866-.097-5.79-.958zm-.479-2.193s-.858.635.453.77c1.695.175 3.032.19 5.348-.256 0 0 .32.325.823.503-4.737 1.385-10.011.109-6.623-1.016z"/><path fill="var(--color21, #ca3132)" d="M16.9 10.981c.966 1.112-.254 2.112-.254 2.112s2.452-1.266 1.326-2.85c-1.051-1.478-1.858-2.212 2.507-4.742 0 0-6.85 1.71-3.579 5.48z"/><path fill="var(--color20, #3174b9)" d="M22.081 18.509s.565.467-.623.827c-2.26.685-9.412.891-11.398.027-.713-.311.626-.742 1.047-.832.439-.095.69-.078.69-.078-.794-.559-5.132 1.099-2.203 1.574 7.988 1.295 14.56-.583 12.488-1.517zm-8.371-6.081s-3.636.864-1.287 1.178c.992.133 2.969.102 4.812-.053a37.414 37.414 0 0 0 3.242-.429l-.226.033s-.53.228-.914.489c-3.694.972-10.829.519-8.775-.474 1.737-.841 3.149-.744 3.149-.744zm6.526 3.647c-.018.046-.075.098-.075.098 5.013-1.318 3.17-4.646.772-3.803-.21.073-.32.247-.32.247s.133-.053.429-.115c1.212-.252 2.949 1.623-.806 3.573z"/><path fill="var(--color21, #ca3132)" d="M17.972 1.412S20.051 3.493 16 6.691c-3.25 2.566-.741 4.03-.001 5.701-1.896-1.711-3.289-3.218-2.355-4.62 1.37-2.057 5.167-3.055 4.328-6.36z"/><path fill="var(--color20, #3174b9)" d="M14.08 21.362c3.603.23 9.138-.128 9.269-1.833 0 0-.252.646-2.978 1.159-3.076.578-6.871.512-9.12.14 0 0 .461.382 2.829.533z"/><path fill="var(--color21, #ca3132)" d="M23.183 24.42v.308h.076v-.308h.11v-.062h-.296v.062h.109zm.589.015v.292h.071v-.367h-.105l-.101.261-.101-.261h-.107v.367h.073v-.292h.001l.108.292h.05l.11-.292zM13.49 27.877c-.34.295-.699.461-1.022.461-.46 0-.71-.276-.71-.718 0-.479.268-.828 1.336-.828h.396v1.086zm.937 1.058v-3.276c0-.837-.478-1.389-1.628-1.389-.671 0-1.26.166-1.739.377l.137.581c.377-.139.865-.268 1.343-.268.664 0 .948.267.948.82v.414h-.332c-1.609 0-2.336.625-2.336 1.564 0 .809.479 1.269 1.38 1.269.581 0 1.013-.239 1.417-.589l.073.498h.736zm3.13 0c.672-1.417 1.151-3.073 1.416-4.582h-.993a17.633 17.633 0 0 1-.91 3.662l-.194-.846-.875-2.816h-1.022l1.409 4.582h1.169zm4.49-1.058c-.341.295-.7.461-1.023.461-.459 0-.709-.276-.709-.718 0-.479.268-.828 1.336-.828h.396v1.086zm.937 1.058v-3.276c0-.837-.479-1.389-1.628-1.389-.672 0-1.261.166-1.739.377l.137.581c.377-.139.865-.268 1.344-.268.661 0 .948.267.948.82v.414h-.332c-1.612 0-2.337.625-2.337 1.564 0 .809.478 1.269 1.38 1.269.581 0 1.012-.239 1.417-.589l.075.498h.735zm-13.192.779c.268-.401.348-.812.348-1.831v-5.159h-.997v5.231c0 .762-.051 1.08-.175 1.327-.143.277-.452.576-.812.761l.462.545c.474-.175.905-.484 1.173-.875z"/></symbol>
<symbol id="logo" viewBox="0 0 105 32"><path fill="var(--color22, #12100c)" d="M44.836 24.355c-4.686 0-8.036-3.355-8.036-7.778s3.373-7.778 7.968-7.778c2.264 0 4.03.866 5.501 2.134l-.928 1.888c-1.133-1.11-2.581-2.022-4.664-2.022-3.394 0-5.84 2.334-5.84 5.778s2.422 5.778 5.864 5.778c2.965 0 5.07-1.755 5.41-4.422h-6.044v-2h8.352v.088c0 4.89-2.806 8.334-7.582 8.334zm9.708-11.11h1.947v11.11h-1.947v-11.11zM65.712 24.2v-1.689a9.337 9.337 0 0 1-1.834.178c-.95 0-1.29-.489-1.29-1.334v-6.443h3.101v-1.666h-3.102v-2.978h-1.946v2.978H58.4v1.666h2.24v6.334c0 2.355 1.064 3.222 3.124 3.222.724 0 1.358-.111 1.946-.266zM69.679 28.8h-1.947V13.245h1.948v1.6c.928-1.222 2.309-1.867 3.984-1.867 3.214 0 5.456 2.4 5.456 5.822s-2.242 5.822-5.456 5.822c-1.607 0-2.92-.622-3.984-1.889v6.066zm-.136-10c0 2.466 1.494 4.045 3.78 4.045s3.781-1.6 3.781-4.045-1.494-4.045-3.78-4.045c-2.286 0-3.781 1.578-3.781 4.045zm10.787 0c0 3.334 2.535 5.822 5.93 5.822s5.931-2.489 5.931-5.822-2.535-5.822-5.931-5.822c-3.395 0-5.93 2.489-5.93 5.822zm9.848 0c0 2.311-1.562 3.978-3.917 3.978s-3.916-1.666-3.916-3.978 1.562-3.978 3.916-3.978 3.917 1.666 3.917 3.978zm12.676-10h1.946v15.555h-1.946v-1.6c-.929 1.222-2.31 1.867-3.984 1.867-3.214 0-5.456-2.4-5.456-5.822s2.242-5.822 5.456-5.822c1.607 0 2.92.622 3.984 1.889V8.801zm.135 10c0-2.466-1.494-4.045-3.78-4.045s-3.78 1.6-3.78 4.045 1.494 4.045 3.78 4.045c2.286 0 3.78-1.578 3.78-4.045zM55.522 11.784c.769 0 1.392-.61 1.392-1.362s-.623-1.362-1.392-1.362c-.77 0-1.394.61-1.394 1.362s.624 1.362 1.394 1.362z"/><path d="M17.11 1.594c.856 1.516.336 3.448-1.162 4.314l-9.307 5.387a.802.802 0 0 0-.398.694v8.456c0 .288.152.552.398.695l7.367 4.264a.779.779 0 0 0 .786-.002l-.004.002 7.368-4.264a.802.802 0 0 0 .398-.695v-5.258l-6.623 3.784a3.1 3.1 0 0 1-4.245-1.184l-.008-.016c-.847-1.52-.316-3.449 1.185-4.307l9.477-5.415c2.886-1.65 6.458.464 6.458 3.82v9.232a6.028 6.028 0 0 1-2.966 5.196l-.028.015-8.458 4.896c-.845.498-1.862.793-2.948.793s-2.103-.294-2.976-.808l.028.015-8.458-4.896C1.191 25.247 0 23.313 0 21.101v-.013.001-9.755a6.028 6.028 0 0 1 2.966-5.196l.028-.015L12.852.417a3.066 3.066 0 0 1 1.55-.415c1.159 0 2.169.635 2.701 1.577l.008.015z"/></symbol>
<symbol id="phyton" viewBox="0 0 32 32"><path d="M15.885 0C7.761 0 8.269 3.541 8.269 3.541l.009 3.669h7.752v1.102H5.199S.001 7.719.001 15.959s4.537 7.947 4.537 7.947h2.708v-3.824s-.146-4.561 4.465-4.561H19.4s4.32.07 4.32-4.197V4.269s.656-4.27-7.834-4.27zM11.61 2.467c.771 0 1.395.627 1.395 1.402s-.623 1.402-1.395 1.402c-.771 0-1.395-.627-1.395-1.402s.623-1.402 1.395-1.402z"/><path d="M16.115 32c8.124 0 7.616-3.541 7.616-3.541l-.009-3.669H15.97v-1.102h10.831s5.198.593 5.198-7.647-4.537-7.947-4.537-7.947h-2.708v3.824s.146 4.561-4.465 4.561H12.6s-4.32-.07-4.32 4.197v7.055s-.656 4.27 7.834 4.27zm4.275-2.467c-.771 0-1.395-.627-1.395-1.402s.623-1.402 1.395-1.402 1.395.627 1.395 1.402c0 .775-.623 1.402-1.395 1.402z"/></symbol>
<symbol id="rust" viewBox="0 0 32 32"><path d="M15.789 5.262c-5.791 0-10.504 4.716-10.504 10.504S10 26.27 15.789 26.27c5.788 0 10.504-4.716 10.504-10.504S21.577 5.262 15.789 5.262zm-.015.933a.688.688 0 0 1 .671.687v.005a.69.69 0 1 1-.691-.693h.021-.001zm1.582 1.138a8.535 8.535 0 0 1 5.8 4.107l.022.041-.815 1.839a.635.635 0 0 0 .316.832l.004.002 1.569.696c.047.491.055.984.018 1.476h-.873c-.087 0-.122.057-.122.142v.399c0 .942-.531 1.15-.998 1.201-.444.051-.936-.187-.998-.459-.262-1.473-.698-1.786-1.387-2.33.856-.543 1.745-1.345 1.745-2.417 0-1.157-.794-1.886-1.333-2.244-.76-.5-1.6-.601-1.826-.601H9.455a8.5 8.5 0 0 1 4.705-2.676l.054-.009 1.064 1.116a.626.626 0 0 0 .889.02l1.191-1.137zm-9.823 5.116h.015a.692.692 0 1 1-.058 1.382h.003a.693.693 0 0 1 .039-1.382h.001zm16.478.031h.001a.69.69 0 1 1 0 1.382l-.042-.001h.002a.691.691 0 0 1 .039-1.381zm-15.175.111h1.204v5.431H7.609a8.303 8.303 0 0 1-.326-2.331c0-.323.018-.641.053-.955l-.003.039 1.49-.661a.63.63 0 0 0 .318-.834l.002.004-.307-.691zm5.026.057h2.868c.151 0 1.048.172 1.048.845 0 .557-.689.759-1.256.759H13.86l.002-1.604zm0 3.903h2.199c.199 0 1.073.058 1.351 1.173.087.343.28 1.458.41 1.816.132.399.664 1.199 1.229 1.199h3.588c-.252.337-.51.634-.787.913l-1.46-.314a.632.632 0 0 0-.748.479l-.001.004-.346 1.618a8.367 8.367 0 0 1-3.509.758c-1.3 0-2.532-.292-3.633-.813l.052.022-.347-1.618a.63.63 0 0 0-.75-.483l.004-.001-1.429.306a8.491 8.491 0 0 1-.721-.848l-.016-.023h6.949c.078 0 .13-.012.13-.087v-2.458c0-.071-.052-.087-.13-.087h-2.034l.002-1.557zm-3.206 5.63a.69.69 0 1 1 0 1.382l-.042-.001h.002a.691.691 0 0 1 .02-1.382h.021-.001zm10.233.031a.691.691 0 0 1-.02 1.382h-.021.001a.691.691 0 0 1 .02-1.382h.021-.001z"/><path stroke-width="3.556" stroke-linecap="round" stroke-linejoin="round" d="M25.707 15.767c0-5.477-4.44-9.918-9.918-9.918s-9.918 4.44-9.918 9.918c0 5.477 4.44 9.918 9.918 9.918s9.918-4.44 9.918-9.918zm-.188-.958 1.547.958-1.547.958 1.33 1.242-1.702.639 1.062 1.478-1.798.293.755 1.658-1.819-.065.417 1.774-1.773-.418.064 1.82-1.657-.756-.294 1.798-1.478-1.062-.638 1.702-1.242-1.329-.958 1.547-.958-1.547-1.242 1.329-.638-1.702-1.478 1.062-.294-1.798-1.658.756.065-1.82-1.773.418.417-1.774-1.82.065.756-1.658-1.798-.293 1.062-1.478-1.702-.639 1.329-1.242-1.547-.958 1.547-.958-1.329-1.242 1.702-.638-1.062-1.478 1.798-.294L6.409 9.5l1.82.064-.417-1.773 1.773.417-.065-1.819 1.659.755.293-1.798 1.478 1.063.638-1.703 1.242 1.33.958-1.547.958 1.547 1.242-1.33.638 1.703 1.478-1.063.294 1.798 1.657-.755-.064 1.819 1.773-.417-.416 1.773 1.819-.064-.755 1.657 1.798.294-1.062 1.478 1.702.638-1.33 1.242z"/></symbol>
<symbol id="svelte" viewBox="0 0 32 32"><path fill="var(--color23, #ff3e00)" d="M29.945 4.231C26.389-.027 19.312-1.274 14.222 1.41L5.251 6.183C2.805 7.458 1.109 9.545.619 11.905a7.362 7.362 0 0 0-.172 1.608c0 1.552.466 2.995 1.266 4.197l-.017-.028c-.782.977-1.304 2.061-1.532 3.2-.521 2.413.162 4.908 1.858 6.888 3.589 4.257 10.635 5.505 15.724 2.821l8.969-4.747c2.446-1.274 4.143-3.362 4.633-5.722a7.412 7.412 0 0 0 .172-1.606 7.545 7.545 0 0 0-1.267-4.198l.017.028c.782-.975 1.305-2.061 1.534-3.2.555-2.44-.13-4.935-1.86-6.914z"/><path fill="var(--color19, #fff)" d="M13.342 28.177c-2.904.623-5.938-.326-7.633-2.359-1.044-1.195-1.436-2.686-1.143-4.151.065-.244.13-.461.196-.705l.164-.434.456.271a12.985 12.985 0 0 0 3.524 1.465l.326.081-.033.273c-.032.379.098.786.359 1.111.521.623 1.435.922 2.316.732.196-.055.391-.108.555-.19l8.937-4.745c.457-.244.75-.597.849-1.031a1.452 1.452 0 0 0-.328-1.248l.002.002c-.521-.625-1.435-.896-2.316-.705a3.04 3.04 0 0 0-.555.19l-3.425 1.817a6.719 6.719 0 0 1-1.826.651c-2.904.623-5.938-.326-7.633-2.359-1.012-1.193-1.436-2.686-1.109-4.151.293-1.41 1.337-2.684 2.805-3.443l8.969-4.747c.555-.297 1.175-.514 1.828-.678 2.904-.623 5.937.326 7.633 2.36 1.043 1.193 1.435 2.684 1.141 4.148-.065.245-.13.462-.228.706l-.164.434-.456-.271a12.985 12.985 0 0 0-3.524-1.465l-.326-.081.032-.271a1.583 1.583 0 0 0-.36-1.114l.002.003c-.521-.623-1.435-.895-2.316-.705-.196.055-.391.108-.555.19l-8.939 4.745c-.456.244-.75.597-.847 1.031-.098.434.032.895.326 1.247.521.625 1.435.895 2.316.705a3.04 3.04 0 0 0 .555-.19l3.425-1.817a7.809 7.809 0 0 1 1.826-.678c2.904-.623 5.938.326 7.633 2.359 1.044 1.195 1.436 2.686 1.143 4.151-.294 1.41-1.338 2.684-2.805 3.443l-8.971 4.747a7.665 7.665 0 0 1-1.773.667l-.054.011z"/></symbol>
<symbol id="theia" viewBox="0 0 260 32"><path d="M218.551 2.086s1.207 0 1.709.375c0 0 .506.375.896 1.522l8.433 25.041s.117.316.021.575c0 0-.098.256-.527.256h-3.575s-.427 0-.68-.098c0 0-.254-.098-.408-.533l-1.709-5.419h-9.873l-1.711 5.377s-.117.357-.329.515c0 0-.215.158-.68.158h-3.576s-.427 0-.544-.256c0 0-.115-.259 0-.575l8.393-25.041s.196-.593.39-.948c0 0 .196-.357.486-.554 0 0 .294-.199.681-.298 0 0 .388-.098.932-.098h1.672zm-.738 5.342h-.194l-1.594 5.494-2.02 6.757h7.462l-2.02-6.641-1.634-5.61zM138.292 2.162s.544 0 .738.14c0 0 .193.137.193.691v10.258h12.089V2.993s0-.515.216-.673c0 0 .214-.158.679-.158h2.961s.544 0 .72.14c0 0 .175.137.175.691v26.032s0 .554-.175.694c0 0-.176.137-.72.137h-2.961s-.465 0-.679-.158c0 0-.216-.158-.216-.673V17.4h-12.089v11.625s0 .554-.193.694c0 0-.193.137-.738.137h-2.951s-.427 0-.659-.158c0 0-.234-.158-.234-.673V2.993s0-.515.234-.673c0 0 .232-.158.659-.158h2.951zM126.448 2.162s.427 0 .565.158c0 0 .135.16.135.595v2.737s0 .396-.135.554c0 0-.137.158-.565.158h-7.382v22.662s0 .554-.176.694c0 0-.175.137-.72.137h-3.037s-.466 0-.679-.158c0 0-.214-.158-.214-.673V6.364h-7.23s-.427 0-.544-.158c0 0-.117-.158-.117-.554V2.915s0-.435.117-.595c0 0 .117-.158.544-.158h19.438zM77.217 1.997c7.59 0 13.738 6.257 13.738 13.982 0 7.72-6.148 13.982-13.738 13.982H46.934c-1.083 0-1.96-.893-1.96-1.995s.878-1.995 1.96-1.995h7.056c1.078 0 1.955-.893 1.955-1.995s-.878-1.995-1.955-1.995h-1.57c-1.083 0-1.96-.893-1.96-1.995s.878-1.995 1.96-1.995h4.706c1.089-.003 1.933-.906 1.96-1.995 0-1.102-.878-1.995-1.96-1.995H40.658c-1.083 0-1.96-.893-1.96-1.995s.878-1.995 1.96-1.995H52.81c1.089-.003 1.933-.906 1.96-1.995 0-1.102-.878-1.995-1.96-1.995h-2.74c-1.083 0-1.96-.893-1.96-1.995s.878-2.047 1.96-2.047L77.218 2zm-2.196 4.659c-4.218 0-7.631 3.479-7.631 7.767v3.108c0 4.293 3.413 7.767 7.631 7.767 4.213 0 7.631-3.473 7.631-7.767v-3.108c0-4.288-3.418-7.767-7.631-7.767zm2.607 7.343c1.016 0 1.842.841 1.842 1.875v.24c0 1.034-.826 1.875-1.842 1.875h-5.727c-1.016 0-1.842-.841-1.842-1.875v-.24c0-1.034.826-1.875 1.842-1.875h5.727zM40.776 25.971c1.021 0 1.842.836 1.842 1.875v.24c0 1.034-.821 1.875-1.842 1.875h-6.779c-1.016 0-1.842-.841-1.842-1.875v-.24c0-1.039.826-1.875 1.842-1.875h6.779zM183.54 2.136s.504 0 .641.22c0 0 .135.217.135.691v2.496s0 .515-.135.694c0 0-.137.179-.641.179h-10.338s-1.478 0-2.081.671c0 0-.6.673-.6 1.937v4.15h11.735s.506 0 .644.199c0 0 .135.197.135.748v2.172s0 .474-.135.689c0 0-.137.217-.644.217h-11.735v5.781s0 1.266.641 1.919c0 0 .641.655 2.04.655h10.57s.544 0 .682.197c0 0 .135.197.135.751v2.447s0 .435-.155.671c0 0-.155.238-.661.238h-11.076s-2.06 0-3.383-.593c0 0-1.323-.593-2.121-1.582 0 0-.799-.989-1.109-2.255 0 0-.313-1.263-.313-2.648V9.257s0-1.385.369-2.669c0 0 .371-1.287 1.208-2.276 0 0 .837-.986 2.16-1.582 0 0 1.325-.593 3.19-.593h10.844zM197.212 2.162s.542 0 .738.14c0 0 .194.137.194.691v26.032s0 .554-.194.694c0 0-.196.137-.738.137h-2.952s-.465 0-.678-.158c0 0-.215-.158-.215-.673V2.993s0-.515.215-.673c0 0 .213-.158.678-.158h2.952z"/><path d="M43.916 2.029c1.016 0 1.837.841 1.837 1.875v.245c0 1.034-.821 1.87-1.837 1.87h-7.569c-1.016 0-1.842-.836-1.842-1.87v-.245c0-1.034.826-1.875 1.842-1.875h7.569zM46.267 17.99c1.016 0 1.842.841 1.842 1.875v.24c0 1.034-.826 1.875-1.842 1.875H42.11c-1.016 0-1.842-.841-1.842-1.875v-.24c0-1.034.826-1.875 1.842-1.875h4.157z"/></symbol>
<symbol id="ts" viewBox="0 0 32 32"><path fill="var(--color24, #3178c6)" d="M28.875 0H3.126A3.125 3.125 0 0 0 .001 3.125v25.749a3.125 3.125 0 0 0 3.125 3.125h25.749A3.125 3.125 0 0 0 32 28.874V3.125A3.125 3.125 0 0 0 28.875 0z"/><path fill="var(--color19, #fff)" d="m19.809 25.465-.008-.007a5.986 5.986 0 0 0 3.872 1.434c.397 0 .744-.036 1.041-.109l.016-.003c.265-.059.514-.162.728-.293l.006-.003c.178-.11.328-.261.439-.447l-.003.006a1.214 1.214 0 0 0-.084-1.302 2.487 2.487 0 0 0-.641-.596 6.603 6.603 0 0 0-.964-.529 36.867 36.867 0 0 0-1.203-.519c-1.095-.455-1.912-1.012-2.45-1.671-.538-.658-.807-1.453-.807-2.386 0-.73.147-1.357.441-1.882a3.73 3.73 0 0 1 1.197-1.295l-.02.012a5.364 5.364 0 0 1 1.776-.76 9.007 9.007 0 0 1 2.113-.239h-.006l.12-.001c.645 0 1.278.048 1.827.132l.043.005a7.307 7.307 0 0 1 1.517.401v2.923a4.82 4.82 0 0 0-.768-.43 6.316 6.316 0 0 0-.856-.308l.046.011a6.527 6.527 0 0 0-1.748-.251c-.358 0-.685.034-.978.103s-.542.165-.743.288a1.445 1.445 0 0 0-.471.446l.003-.004a1.047 1.047 0 0 0-.169.572v.013-.001.017c0 .23.07.443.186.616l.005.007c.142.2.317.375.524.521l-.017-.011c.256.184.528.347.848.501l-.111-.05c.358.177.721.343 1.217.544l.081.03c.514.216 1.01.466 1.429.716l.025.014c.413.243.791.54 1.124.882.32.332.564.711.735 1.138.169.427.254.924.254 1.491 0 .782-.148 1.439-.444 1.97a3.602 3.602 0 0 1-1.209 1.292 5.24 5.24 0 0 1-1.775.709c-.674.143-1.387.215-2.137.215-.769 0-1.502-.065-2.196-.196s-1.295-.326-1.804-.587v-3.129zm-5.261-7.71v11.432h-3.18V17.755H7.374v-2.567h11.188v2.567h-4.013z"/></symbol>
<symbol id="twitter" viewBox="0 0 32 32"><path d="M0 16C0 7.164 7.164 0 16 0s16 7.164 16 16-7.164 16-16 16S0 24.836 0 16zm15.52-2.995.035.553-.56-.067c-2.037-.261-3.816-1.143-5.327-2.623l-.739-.733-.191.541c-.403 1.209-.147 2.485.693 3.344.448.475.347.543-.425.26-.268-.091-.503-.157-.525-.124-.079.08.191 1.107.403 1.515.291.564.884 1.117 1.533 1.445l.548.26-.648.012c-.627 0-.649.011-.583.248.224.733 1.108 1.515 2.093 1.853l.693.237-.604.361a6.304 6.304 0 0 1-3 .836c-.503.011-.917.056-.917.091 0 .113 1.365.747 2.16.993 2.384.735 5.215.419 7.341-.836 1.511-.892 3.023-2.667 3.727-4.384.381-.915.761-2.587.761-3.389 0-.52.033-.587.66-1.208.369-.363.717-.757.784-.871.112-.213.101-.213-.471-.023-.951.339-1.085.293-.615-.213.347-.363.76-1.017.76-1.211 0-.033-.167.023-.357.125a6.03 6.03 0 0 1-.941.373l-.044.011-.604.192-.548-.373c-.303-.203-.728-.429-.952-.497-.571-.157-1.443-.135-1.959.045-1.399.509-2.283 1.82-2.181 3.253z"/></symbol>
<symbol id="uber" viewBox="0 0 92 32"><path d="M5.3 22.854c.389 1.034.928 1.918 1.617 2.652a6.958 6.958 0 0 0 2.402 1.668l.046.017c.943.389 1.969.584 3.077.584h.053c1.076 0 2.1-.223 3.028-.626l-.049.019a7.493 7.493 0 0 0 2.468-1.704l.003-.003a7.74 7.74 0 0 0 1.621-2.577l.018-.053c.39-1.018.584-2.158.584-3.416V0h4.717v31.461h-4.671v-2.923a10.855 10.855 0 0 1-3.635 2.535l-.071.027c-1.422.599-2.957.899-4.603.899-1.678 0-3.242-.292-4.693-.877a11.045 11.045 0 0 1-3.773-2.493l-.001-.001c-1.063-1.079-1.901-2.375-2.514-3.889s-.921-3.198-.921-5.055V-.001H4.72v19.416c0 1.258.194 2.405.584 3.438zM33.012 0v11.461a12.032 12.032 0 0 1 3.563-2.463l.076-.031c1.377-.615 2.875-.921 4.492-.921 1.678 0 3.248.314 4.717.944a12.119 12.119 0 0 1 3.818 2.562 12.088 12.088 0 0 1 2.53 3.742l.03.078c.629 1.467.944 3.025.944 4.674s-.314 3.198-.944 4.651a12.19 12.19 0 0 1-2.56 3.799 12.08 12.08 0 0 1-3.739 2.532l-.078.03c-1.468.628-3.04.944-4.717.944-1.617 0-3.121-.307-4.514-.921a12.009 12.009 0 0 1-3.661-2.495v2.877h-4.492V.002h4.536zm.517 23.147a7.865 7.865 0 0 0 1.684 2.516 8.142 8.142 0 0 0 2.463 1.687l.052.02a7.531 7.531 0 0 0 3.04.631h.062-.003.038a7.51 7.51 0 0 0 3.064-.649l-.048.019c.97-.424 1.797-1 2.491-1.707l.001-.001a8.349 8.349 0 0 0 1.663-2.464l.021-.053a7.53 7.53 0 0 0 .63-3.04v-.064.003-.049c0-1.11-.232-2.167-.649-3.123l.02.05a8.32 8.32 0 0 0-1.685-2.543l.002.002a7.585 7.585 0 0 0-2.444-1.666l-.05-.019a7.64 7.64 0 0 0-3.012-.607h-.045.002-.043a7.752 7.752 0 0 0-3.062.626l.051-.019a7.847 7.847 0 0 0-2.515 1.685 8.103 8.103 0 0 0-1.687 2.486l-.02.052a7.695 7.695 0 0 0-.629 3.071v.055-.003a7.9 7.9 0 0 0 .606 3.101zm22.21-7.732a12.293 12.293 0 0 1 2.475-3.802l-.004.004a11.487 11.487 0 0 1 3.655-2.555l.074-.029c1.437-.629 2.994-.944 4.671-.944 1.647 0 3.174.3 4.581.899a10.921 10.921 0 0 1 3.635 2.491l.003.004c1.018 1.064 1.812 2.322 2.381 3.775.569 1.454.853 3.034.853 4.742v1.484H59.424a7.802 7.802 0 0 0 2.573 4.644l.009.008a7.651 7.651 0 0 0 2.238 1.352l.052.018a7.47 7.47 0 0 0 2.718.495c2.725 0 4.926-1.124 6.603-3.371l3.279 2.427a12.297 12.297 0 0 1-4.155 3.564l-.067.032c-1.678.869-3.564 1.303-5.659 1.303-1.707 0-3.302-.301-4.784-.899a11.7 11.7 0 0 1-3.865-2.519l.002.002a11.957 11.957 0 0 1-2.552-3.72l-.03-.077c-.628-1.454-.944-3.034-.944-4.742 0-1.617.3-3.146.898-4.584zm6.311-1.774c-1.272 1.064-2.118 2.479-2.538 4.247h13.969c-.39-1.768-1.221-3.184-2.493-4.247s-2.763-1.596-4.469-1.596c-1.707 0-3.196.532-4.469 1.596zm24.501.517c-.958 1.048-1.437 2.472-1.437 4.27v13.033h-4.536V8.541h4.492v2.832a6.441 6.441 0 0 1 2.194-2.185l.029-.016c.912-.54 1.998-.81 3.256-.81h1.571v4.224h-1.885c-1.497 0-2.725.525-3.684 1.574z"/></symbol>
<symbol id="viber" viewBox="0 0 32 32"><path d="M0 15.72V32l15.987-.016c8.68 0 15.72-7.309 15.72-15.989S24.66 0 15.99 0C7.31 0 .001 7.039.001 15.72zm7.773-4.875c1.73-2.869 4.829-4.758 8.369-4.76h.01c5.381.001 9.743 4.363 9.743 9.744s-4.363 9.744-9.744 9.744a9.707 9.707 0 0 1-4.066-.886l.061.025-6.332 1.432 1.764-5.671a9.623 9.623 0 0 1-1.175-4.64A9.7 9.7 0 0 1 7.8 10.802l-.024.044z"/></symbol>
<symbol id="chrome" viewBox="0 0 32 32"><path d="M8.071 13.954 3.492 6.023A15.97 15.97 0 0 1 16 0c5.857 0 10.978 3.148 13.767 7.844H16.712a8.38 8.38 0 0 0-.711-.031c-3.809 0-7.018 2.614-7.929 6.142zm13.657-3.798h9.171A15.948 15.948 0 0 1 32 16c0 8.776-7.066 15.9-15.818 15.998l6.544-11.334A8.142 8.142 0 0 0 24.188 16a8.165 8.165 0 0 0-2.459-5.844zM10.188 16c0-3.205 2.607-5.813 5.813-5.813s5.813 2.607 5.813 5.813c0 3.205-2.608 5.813-5.813 5.813S10.188 19.205 10.188 16zm8.005 7.889-4.581 7.934C5.908 30.67-.001 24.026-.001 16.001c0-2.851.746-5.526 2.053-7.845L8.584 19.47c1.308 2.785 4.14 4.718 7.415 4.718.759 0 1.495-.104 2.193-.299z"/></symbol>
<symbol id="firefox1" viewBox="0 0 32 32"><path d="m31.954 10.442-.371 2.377s-.53-4.402-1.179-6.047c-.995-2.521-1.438-2.501-1.441-2.498.667 1.694.546 2.604.546 2.604s-1.181-3.219-4.303-4.243c-3.459-1.134-5.33-.824-5.547-.765h-.095l.076.007-.003.002c.014.017 3.822.666 4.497 1.594 0 0-1.617 0-3.227.464-.073.021 5.923.749 7.148 6.74 0 0-.657-1.371-1.47-1.604.535 1.626.397 4.712-.112 6.245-.066.197-.133-.853-1.135-1.305.321 2.301-.019 5.952-1.616 6.957-.124.078 1.001-3.603.226-2.18-4.46 6.838-9.731 3.155-12.101 1.535 1.215.264 3.52-.041 4.541-.8l.004-.003c1.108-.758 1.765-1.311 2.354-1.18s.982-.46.524-.985c-.459-.526-1.572-1.249-3.079-.855-1.063.278-2.379 1.454-4.389.264-1.543-.914-1.688-1.673-1.702-2.199.038-.186.086-.361.143-.52.178-.496.716-.646 1.015-.764.508.087.946.246 1.405.481a7.627 7.627 0 0 0-.001-.586c.044-.088.017-.352-.054-.674a4.927 4.927 0 0 0-.211-.959h.001l.005-.002.007-.006.001-.002a.03.03 0 0 0 .006-.015c.032-.144.376-.423.804-.722.383-.268.834-.553 1.19-.774.314-.195.554-.34.605-.378l.068-.051.014-.011.009-.007c.169-.135.421-.389.474-.924v-.004l.004-.048a.388.388 0 0 0 .002-.034l.001-.027.002-.065v-.004c.001-.052 0-.106-.003-.163a.69.69 0 0 0-.009-.086l-.001-.004-.002-.008a.05.05 0 0 0-.004-.013l-.001-.001-.005-.014v-.001c-.055-.128-.26-.177-1.108-.191h-.002a72.735 72.735 0 0 0-1.391-.004c-1.039.004-1.613-1.016-1.797-1.41.251-1.389.977-2.379 2.17-3.051.023-.013.018-.023-.009-.031.233-.141-2.82-.004-4.225 1.782-1.247-.31-2.333-.289-3.269-.069a3.763 3.763 0 0 1-.67-.083c-.623-.564-1.514-1.606-1.562-2.85l-.008.006a.434.434 0 0 1-.002-.036S1.795 3.702 2.079 7.678l-.004.184c-.514.696-.768 1.282-.787 1.411-.455.926-.917 2.32-1.292 4.437 0 0 .263-.833.79-1.777-.388 1.188-.693 3.036-.514 5.808 0 0 .047-.615.215-1.5.131 1.719.704 3.841 2.152 6.337 2.78 4.791 7.052 7.211 11.775 7.582a16.12 16.12 0 0 0 2.544.006l.236-.018a17.65 17.65 0 0 0 2.914-.449C33.395 26.487 31.95 10.443 31.95 10.443z"/></symbol>
<symbol id="menu" viewBox="0 0 16 16">
<path fill="var(--color19, #000)" d="M1 3h14v3h-14zM1 7h14v3h-14zM1 11h14v3h-14z"></path>
</symbol>
<symbol id="cross" viewBox="0 0 16 16">
<path fill="var(--color19, #000)" d="M15.854 12.854c-0-0-0-0-0-0l-4.854-4.854 4.854-4.854c0-0 0-0 0-0 0.052-0.052 0.090-0.113 0.114-0.178 0.066-0.178 0.028-0.386-0.114-0.529l-2.293-2.293c-0.143-0.143-0.351-0.181-0.529-0.114-0.065 0.024-0.126 0.062-0.178 0.114 0 0-0 0-0 0l-4.854 4.854-4.854-4.854c-0-0-0-0-0-0-0.052-0.052-0.113-0.090-0.178-0.114-0.178-0.066-0.386-0.029-0.529 0.114l-2.293 2.293c-0.143 0.143-0.181 0.351-0.114 0.529 0.024 0.065 0.062 0.126 0.114 0.178 0 0 0 0 0 0l4.854 4.854-4.854 4.854c-0 0-0 0-0 0-0.052 0.052-0.090 0.113-0.114 0.178-0.066 0.178-0.029 0.386 0.114 0.529l2.293 2.293c0.143 0.143 0.351 0.181 0.529 0.114 0.065-0.024 0.126-0.062 0.178-0.114 0-0 0-0 0-0l4.854-4.854 4.854 4.854c0 0 0 0 0 0 0.052 0.052 0.113 0.090 0.178 0.114 0.178 0.066 0.386 0.029 0.529-0.114l2.293-2.293c0.143-0.143 0.181-0.351 0.114-0.529-0.024-0.065-0.062-0.126-0.114-0.178z"></path>
</symbol>
<symbol id="close" viewBox="0 0 30 30">
<path d="M8 8L22 22" stroke="black" stroke-width="2"/>
<path d="M8 22L22 8" stroke="black" stroke-width="2"/>
</symbol>
</defs></svg>